<svg width="90" height="90" viewBox="0 0 90 90" fill="none" xmlns="http://www.w3.org/2000/svg">
<g clip-path="url(#clip0)">
<path d="M77.2813 30.3613L45.8817 4.94253C45.3676 4.52628 44.6321 4.52628 44.1178 4.94253L12.7184 30.3613C12.3897 30.6275 12.1986 31.0279 12.1986 31.451V88.2692H77.8013V31.4508C77.8013 31.0279 77.6102 30.6276 77.2813 30.3613Z" fill="#FC8946"/>
<path d="M52.3599 10.1867L45.8813 4.94208C45.367 4.52584 44.6315 4.52584 44.1173 4.94208L18.1477 25.9651L12.7176 30.3609C12.43 30.5938 12.2477 30.9294 12.2068 31.2932C12.201 31.3453 12.198 31.3976 12.198 31.4506V88.2688C12.198 89.0429 12.8255 89.6704 13.5999 89.6704H18.1477V37.1195L52.3599 10.1867Z" fill="#F87728"/>
<path d="M89.9901 35.0602C89.946 34.6911 89.7567 34.3546 89.4643 34.1249L47.5982 1.23028C46.0682 0.0284649 43.932 0.0284649 42.4018 1.23028L0.535879 34.1249C0.243555 34.3546 0.0544152 34.6911 0.0101184 35.0602C-0.0341784 35.4293 0.0698839 35.8009 0.29963 36.0933L3.76392 40.5022C4.24222 41.1109 5.12341 41.2166 5.73214 40.7384L45.0002 9.88503L84.2681 40.7384C84.5249 40.9402 84.83 41.038 85.1333 41.038C85.5486 41.038 85.96 40.8541 86.2363 40.5022L89.7006 36.0933C89.9301 35.8011 90.0344 35.4295 89.9901 35.0602Z" fill="#6DBBFA"/>
<path d="M52.4769 61.3544H37.5248V88.2683H52.4769V61.3544Z" fill="#0175D8"/>
<path d="M42.0104 61.3544H37.5248V88.2683H42.0104V61.3544Z" fill="#0265CD"/>
<path d="M53.8782 61.356C53.8782 60.5819 53.2508 59.9542 52.4765 59.9542H37.5242C36.7501 59.9542 36.1226 60.5817 36.1226 61.356V87.8961H53.8782V61.356ZM51.0747 86.8681H38.9261V62.7577H51.0747V86.8681Z" fill="#FFEAC9"/>
<path d="M9.11492 73.5034C5.04419 73.5034 1.7323 76.8153 1.7323 80.886C1.7323 84.9568 5.04419 88.2687 9.11492 88.2687C13.1857 88.2687 16.4975 84.9568 16.4975 80.886C16.4975 76.8153 13.1857 73.5034 9.11492 73.5034Z" fill="#CBE9FF"/>
<path d="M11.4512 85.9323C7.38049 85.9323 4.0686 82.6204 4.0686 78.5497C4.0686 77.1113 4.48345 75.7688 5.19782 74.6326C3.11833 75.9401 1.7323 78.2535 1.7323 80.886C1.7323 84.9567 5.04419 88.2686 9.11492 88.2686C11.7474 88.2686 14.0609 86.8826 15.3683 84.8031C14.2319 85.5175 12.8895 85.9323 11.4512 85.9323Z" fill="#9BCEFD"/>
<path d="M25.5628 73.5034C21.4921 73.5034 18.1802 76.8153 18.1802 80.886C18.1802 84.9568 21.4921 88.2687 25.5628 88.2687C29.6335 88.2687 32.9454 84.9568 32.9454 80.886C32.9454 76.8153 29.6335 73.5034 25.5628 73.5034Z" fill="#CBE9FF"/>
<path d="M27.7122 86.1202C23.6415 86.1202 20.3296 82.8083 20.3296 78.7376C20.3296 77.251 20.7728 75.8665 21.532 74.7067C19.5159 76.0263 18.1802 78.3029 18.1802 80.887C18.1802 84.9577 21.4921 88.2696 25.5628 88.2696C28.147 88.2696 30.4237 86.934 31.7431 84.9178C30.5833 85.6769 29.1988 86.1202 27.7122 86.1202Z" fill="#9BCEFD"/>
<path d="M64.4377 73.5034C60.3669 73.5034 57.0551 76.8153 57.0551 80.886C57.0551 84.9568 60.3669 88.2687 64.4377 88.2687C68.5084 88.2687 71.8203 84.9568 71.8203 80.886C71.8203 76.8153 68.5084 73.5034 64.4377 73.5034Z" fill="#CBE9FF"/>
<path d="M66.008 85.9953C62.4826 85.6812 59.6435 82.8421 59.3291 79.3163C59.1761 77.6016 59.6145 75.9928 60.4618 74.6704C58.4157 75.9844 57.056 78.2783 57.056 80.8854C57.056 84.9561 60.3679 88.268 64.4387 88.268C67.0458 88.268 69.3396 86.9085 70.6536 84.8622C69.3315 85.7098 67.7229 86.1482 66.008 85.9953Z" fill="#9BCEFD"/>
<path d="M80.8856 73.5034C76.8148 73.5034 73.5029 76.8153 73.5029 80.886C73.5029 84.9568 76.8148 88.2687 80.8856 88.2687C84.9563 88.2687 88.2682 84.9568 88.2682 80.886C88.2682 76.8153 84.9563 73.5034 80.8856 73.5034Z" fill="#CBE9FF"/>
<path d="M83.1283 86.0265C79.0576 86.0265 75.7457 82.7146 75.7457 78.6439C75.7457 77.1814 76.175 75.8181 76.9115 74.6699C74.8638 75.9835 73.5029 78.2785 73.5029 80.8867C73.5029 84.9574 76.8148 88.2693 80.8855 88.2693C83.4938 88.2693 85.7888 86.9084 87.1024 84.8608C85.9542 85.5973 84.5908 86.0265 83.1283 86.0265Z" fill="#9BCEFD"/>
<path d="M70.4178 38.9281H52.4751V53.8802H70.4178V38.9281Z" fill="#0986E2"/>
<path d="M65.933 38.9272L52.4761 52.3841V53.8793H60.2013L70.4186 43.6621V38.9272H65.933Z" fill="#0175D8"/>
<path d="M52.4761 38.9272V47.4L60.9489 38.9272H52.4761Z" fill="#0175D8"/>
<path d="M63.5648 53.88H70.418V47.0269L63.5648 53.88Z" fill="#0175D8"/>
<path d="M70.4178 37.5254H52.4753C51.701 37.5254 51.0735 38.1529 51.0735 38.9272V53.8793C51.0735 54.6535 51.7008 55.281 52.4753 55.281H70.418C71.1923 55.281 71.8197 54.6535 71.8197 53.8793V38.9272C71.8197 38.1531 71.192 37.5254 70.4178 37.5254ZM53.877 40.3289H60.0448V52.4775H53.877V40.3289ZM69.0162 52.4776H62.8483V40.3291H69.0162V52.4776Z" fill="#FFEAC9"/>
<path d="M37.4311 38.9281H19.4884V53.8802H37.4311V38.9281Z" fill="#0986E2"/>
<path d="M33.0383 39.3755L19.5814 52.8324V54.3276H27.3066L37.5239 44.1103V39.3755H33.0383Z" fill="#0175D8"/>
<path d="M19.5814 39.3755V47.8483L28.0542 39.3755H19.5814Z" fill="#0175D8"/>
<path d="M30.6716 53.88H37.5246V47.0269L30.6716 53.88Z" fill="#0175D8"/>
<path d="M37.4305 37.5254H19.4879C18.7135 37.5254 18.0862 38.1529 18.0862 38.9272V53.8793C18.0862 54.6535 18.7135 55.281 19.4879 55.281H37.4305C38.2048 55.281 38.8324 54.6535 38.8324 53.8793V38.9272C38.8322 38.1531 38.2046 37.5254 37.4305 37.5254ZM20.8897 40.3289H27.0575V52.4775H20.8897C20.8897 52.4776 20.8897 40.3289 20.8897 40.3289ZM36.0287 52.4776H29.8609V40.3291H36.0287V52.4776Z" fill="#FFEAC9"/>
<path d="M50.9811 19.49H39.0194V31.4517H50.9811V19.49Z" fill="#0175D8"/>
<path d="M50.9806 18.0875H39.0189C38.2447 18.0875 37.6172 18.715 37.6172 19.4893V31.451C37.6172 32.2252 38.2447 32.8529 39.0189 32.8529H50.9806C51.7549 32.8529 52.3822 32.2254 52.3822 31.451V19.4893C52.3822 18.715 51.7547 18.0875 50.9806 18.0875ZM49.5787 24.0682H46.4013V20.8908H49.5787V24.0682ZM43.598 20.891V24.0684H40.4205V20.891H43.598ZM40.4205 26.8718H43.598V30.0492H40.4205V26.8718ZM46.4015 30.0492V26.8718H49.5789V30.0492H46.4015Z" fill="#FFEAC9"/>
<path d="M42.0099 76.2137C41.2357 76.2137 40.608 75.5862 40.608 74.812V73.3168C40.608 72.5427 41.2356 71.915 42.0099 71.915C42.7842 71.915 43.4117 72.5425 43.4117 73.3168V74.812C43.4116 75.586 42.784 76.2137 42.0099 76.2137Z" fill="#0E1343"/>
<path d="M88.3614 89.6705H1.63886C0.86472 89.6705 0.237183 89.0429 0.237183 88.2688C0.237183 87.4947 0.86472 86.8671 1.63886 86.8671H88.3614C89.1357 86.8671 89.7631 87.4947 89.7631 88.2688C89.7631 89.0429 89.1356 89.6705 88.3614 89.6705Z" fill="#0265CD"/>
</g>
<defs>
<clipPath id="clip0">
<rect width="90" height="90" fill="white"/>
</clipPath>
</defs>
</svg>
