<svg width="90" height="90" viewBox="0 0 90 90" fill="none" xmlns="http://www.w3.org/2000/svg">
<path d="M30.6257 40.491C30.6257 39.7128 29.995 39.0818 29.2165 39.0818H8.17267C7.39431 39.0818 6.76343 39.7126 6.76343 40.491V88.4033H30.6257V40.491Z" fill="#FFEAC9"/>
<path d="M30.6266 40.491C30.6266 39.7128 29.9959 39.0818 29.2174 39.0818H24.6455V88.3093H30.6266V40.491Z" fill="#FFB78F"/>
<path d="M12.6822 55.4283C11.9038 55.4283 11.2729 54.7974 11.2729 54.0191V45.0003C11.2729 44.2221 11.9037 43.591 12.6822 43.591C13.4607 43.591 14.0914 44.2219 14.0914 45.0003V54.0191C14.0914 54.7973 13.4607 55.4283 12.6822 55.4283Z" fill="#5DBFFB"/>
<path d="M18.6959 55.4283C17.9175 55.4283 17.2866 54.7974 17.2866 54.0191V45.0003C17.2866 44.2221 17.9173 43.591 18.6959 43.591C19.4742 43.591 20.1051 44.2219 20.1051 45.0003V54.0191C20.1051 54.7973 19.4742 55.4283 18.6959 55.4283Z" fill="#5DBFFB"/>
<path d="M24.7068 55.4283C23.9285 55.4283 23.2976 54.7974 23.2976 54.0191V45.0003C23.2976 44.2221 23.9283 43.591 24.7068 43.591C25.4852 43.591 26.1161 44.2219 26.1161 45.0003V54.0191C26.1159 54.7973 25.4852 55.4283 24.7068 55.4283Z" fill="#5DBFFB"/>
<path d="M12.6822 65.9505C11.9038 65.9505 11.2729 65.3197 11.2729 64.5413V60.032C11.2729 59.2538 11.9037 58.6227 12.6822 58.6227C13.4607 58.6227 14.0914 59.2536 14.0914 60.032V64.5413C14.0914 65.3195 13.4607 65.9505 12.6822 65.9505Z" fill="#5DBFFB"/>
<path d="M18.6959 65.9505C17.9175 65.9505 17.2866 65.3197 17.2866 64.5413V60.032C17.2866 59.2538 17.9173 58.6227 18.6959 58.6227C19.4742 58.6227 20.1051 59.2536 20.1051 60.032V64.5413C20.1051 65.3195 19.4742 65.9505 18.6959 65.9505Z" fill="#5DBFFB"/>
<path d="M24.7068 65.9505C23.9285 65.9505 23.2976 65.3197 23.2976 64.5413V60.032C23.2976 59.2538 23.9283 58.6227 24.7068 58.6227C25.4852 58.6227 26.1161 59.2536 26.1161 60.032V64.5413C26.1159 65.3195 25.4852 65.9505 24.7068 65.9505Z" fill="#5DBFFB"/>
<path d="M83.2361 32.9748C83.2361 32.1966 82.6054 31.5656 81.8268 31.5656H60.783C60.0047 31.5656 59.3738 32.1965 59.3738 32.9748V88.4029H83.2361V32.9748Z" fill="#FFEAC9"/>
<path d="M65.2307 31.5656H60.784C60.0056 31.5656 59.3748 32.1965 59.3748 32.9748V88.3088H65.2307V31.5656Z" fill="#FFB78F"/>
<path d="M65.2911 65.9497C64.5127 65.9497 63.8818 65.3188 63.8818 64.5405V60.0312C63.8818 59.253 64.5125 58.6219 65.2911 58.6219C66.0694 58.6219 66.7003 59.2528 66.7003 60.0312V64.5405C66.7001 65.3187 66.0694 65.9497 65.2911 65.9497Z" fill="#5DBFFB"/>
<path d="M71.3038 65.9497C70.5254 65.9497 69.8945 65.3188 69.8945 64.5405V60.0312C69.8945 59.253 70.5252 58.6219 71.3038 58.6219C72.0823 58.6219 72.713 59.2528 72.713 60.0312V64.5405C72.713 65.3187 72.0823 65.9497 71.3038 65.9497Z" fill="#5DBFFB"/>
<path d="M77.316 65.9497C76.5376 65.9497 75.9067 65.3188 75.9067 64.5405V60.0312C75.9067 59.253 76.5374 58.6219 77.316 58.6219C78.0945 58.6219 78.7252 59.2528 78.7252 60.0312V64.5405C78.725 65.3187 78.0943 65.9497 77.316 65.9497Z" fill="#5DBFFB"/>
<path d="M65.2911 40.3965C64.5127 40.3965 63.8818 39.7656 63.8818 38.9872V37.4841C63.8818 36.7059 64.5125 36.0749 65.2911 36.0749C66.0694 36.0749 66.7003 36.7058 66.7003 37.4841V38.9872C66.7001 39.7656 66.0694 40.3965 65.2911 40.3965Z" fill="#5DBFFB"/>
<path d="M71.3038 40.3965C70.5254 40.3965 69.8945 39.7656 69.8945 38.9872V37.4841C69.8945 36.7059 70.5252 36.0749 71.3038 36.0749C72.0823 36.0749 72.713 36.7058 72.713 37.4841V38.9872C72.713 39.7656 72.0823 40.3965 71.3038 40.3965Z" fill="#5DBFFB"/>
<path d="M77.316 40.3965C76.5376 40.3965 75.9067 39.7656 75.9067 38.9872V37.4841C75.9067 36.7059 76.5374 36.0749 77.316 36.0749C78.0945 36.0749 78.7252 36.7058 78.7252 37.4841V38.9872C78.725 39.7656 78.0943 40.3965 77.316 40.3965Z" fill="#5DBFFB"/>
<path d="M65.2911 47.912C64.5127 47.912 63.8818 47.2811 63.8818 46.5027V44.9996C63.8818 44.2214 64.5125 43.5904 65.2911 43.5904C66.0694 43.5904 66.7003 44.2213 66.7003 44.9996V46.5027C66.7001 47.2811 66.0694 47.912 65.2911 47.912Z" fill="#5DBFFB"/>
<path d="M71.3038 47.912C70.5254 47.912 69.8945 47.2811 69.8945 46.5027V44.9996C69.8945 44.2214 70.5252 43.5904 71.3038 43.5904C72.0823 43.5904 72.713 44.2213 72.713 44.9996V46.5027C72.713 47.2811 72.0823 47.912 71.3038 47.912Z" fill="#5DBFFB"/>
<path d="M77.316 47.912C76.5376 47.912 75.9067 47.2811 75.9067 46.5027V44.9996C75.9067 44.2214 76.5374 43.5904 77.316 43.5904C78.0945 43.5904 78.7252 44.2213 78.7252 44.9996V46.5027C78.725 47.2811 78.0943 47.912 77.316 47.912Z" fill="#5DBFFB"/>
<path d="M65.2911 55.4282C64.5127 55.4282 63.8818 54.7973 63.8818 54.0189V52.5158C63.8818 51.7376 64.5125 51.1066 65.2911 51.1066C66.0694 51.1066 66.7003 51.7374 66.7003 52.5158V54.0189C66.7001 54.7971 66.0694 55.4282 65.2911 55.4282Z" fill="#5DBFFB"/>
<path d="M71.3038 55.4282C70.5254 55.4282 69.8945 54.7973 69.8945 54.0189V52.5158C69.8945 51.7376 70.5252 51.1066 71.3038 51.1066C72.0823 51.1066 72.713 51.7374 72.713 52.5158V54.0189C72.713 54.7971 72.0823 55.4282 71.3038 55.4282Z" fill="#5DBFFB"/>
<path d="M77.316 55.4282C76.5376 55.4282 75.9067 54.7973 75.9067 54.0189V52.5158C75.9067 51.7376 76.5374 51.1066 77.316 51.1066C78.0945 51.1066 78.7252 51.7374 78.7252 52.5158V54.0189C78.725 54.7971 78.0943 55.4282 77.316 55.4282Z" fill="#5DBFFB"/>
<path d="M45.0001 11.8371C44.2217 11.8371 43.5908 11.2062 43.5908 10.4279V1.40924C43.5908 0.630879 44.2217 0 45.0001 0C45.7784 0 46.4093 0.630879 46.4093 1.40924V10.428C46.4093 11.2062 45.7784 11.8371 45.0001 11.8371Z" fill="#0E1343"/>
<path d="M48.757 9.01851H41.2413C40.4629 9.01851 39.832 9.64939 39.832 10.4277V17.9435C39.832 18.7216 40.4627 19.3527 41.2413 19.3527H48.757C49.5353 19.3527 50.1662 18.7218 50.1662 17.9435V10.4277C50.1662 9.64939 49.5353 9.01851 48.757 9.01851Z" fill="#FC8946"/>
<path d="M39.832 13.3716V17.9435C39.832 18.7217 40.4627 19.3528 41.2413 19.3528H48.757C49.5353 19.3528 50.1662 18.7219 50.1662 17.9435V13.3716H39.832Z" fill="#F87728"/>
<path d="M56.274 15.0307H33.7269C32.9485 15.0307 32.3176 15.6616 32.3176 16.4399V25.4587C32.3176 26.2369 32.9483 26.868 33.7269 26.868H56.2738C57.0522 26.868 57.683 26.2371 57.683 25.4587V16.4399C57.683 15.6618 57.0523 15.0307 56.274 15.0307Z" fill="#0175D8"/>
<path d="M32.3164 19.5094V25.4595C32.3164 26.2376 32.9471 26.8687 33.7256 26.8687H56.2726C57.0509 26.8687 57.6818 26.2378 57.6818 25.4595V19.5094H32.3164Z" fill="#0265CD"/>
<path d="M62.1926 22.453C62.1926 21.6748 61.5619 21.0437 60.7833 21.0437H29.2176C28.4392 21.0437 27.8083 21.6746 27.8083 22.453V88.4029H62.1926V22.453Z" fill="#0986E2"/>
<path d="M62.1926 78.1307H27.8083V88.4021H62.1926V78.1307Z" fill="#5DBFFB"/>
<path d="M45.0005 65.9506C44.2222 65.9506 43.5913 65.3198 43.5913 64.5414V63.0383C43.5913 62.2601 44.222 61.6291 45.0005 61.6291C45.7789 61.6291 46.4098 62.2599 46.4098 63.0383V64.5414C46.4098 65.3196 45.7789 65.9506 45.0005 65.9506Z" fill="#FFEAC9"/>
<path d="M39.7405 65.9506C38.9622 65.9506 38.3313 65.3198 38.3313 64.5414V63.0383C38.3313 62.2601 38.962 61.6291 39.7405 61.6291C40.5191 61.6291 41.1498 62.2599 41.1498 63.0383V64.5414C41.1498 65.3196 40.5189 65.9506 39.7405 65.9506Z" fill="#FFEAC9"/>
<path d="M50.2608 65.9506C49.4824 65.9506 48.8516 65.3198 48.8516 64.5414V63.0383C48.8516 62.2601 49.4823 61.6291 50.2608 61.6291C51.0393 61.6291 51.67 62.2599 51.67 63.0383V64.5414C51.67 65.3196 51.0392 65.9506 50.2608 65.9506Z" fill="#FFEAC9"/>
<path d="M33.7269 65.9506C32.9485 65.9506 32.3176 65.3198 32.3176 64.5414V63.0383C32.3176 62.2601 32.9483 61.6291 33.7269 61.6291C34.5054 61.6291 35.1361 62.2599 35.1361 63.0383V64.5414C35.1361 65.3196 34.5054 65.9506 33.7269 65.9506Z" fill="#FFEAC9"/>
<path d="M56.2737 65.9506C55.4954 65.9506 54.8645 65.3198 54.8645 64.5414V63.0383C54.8645 62.2601 55.4952 61.6291 56.2737 61.6291C57.0521 61.6291 57.683 62.2599 57.683 63.0383V64.5414C57.6828 65.3196 57.0521 65.9506 56.2737 65.9506Z" fill="#FFEAC9"/>
<path d="M45.0006 33.6015C44.2222 33.6015 43.5913 32.9706 43.5913 32.1922V27.495C43.5913 26.7168 44.222 26.0858 45.0006 26.0858C45.7789 26.0858 46.4098 26.7166 46.4098 27.495V32.1922C46.4098 32.9706 45.7791 33.6015 45.0006 33.6015Z" fill="#FFEAC9"/>
<path d="M39.7388 33.6015C38.9605 33.6015 38.3296 32.9706 38.3296 32.1922V27.495C38.3296 26.7168 38.9603 26.0858 39.7388 26.0858C40.5172 26.0858 41.1481 26.7166 41.1481 27.495V32.1922C41.1481 32.9706 40.5172 33.6015 39.7388 33.6015Z" fill="#FFEAC9"/>
<path d="M50.262 33.6015C49.4837 33.6015 48.8528 32.9706 48.8528 32.1922V27.495C48.8528 26.7168 49.4835 26.0858 50.262 26.0858C51.0404 26.0858 51.6713 26.7166 51.6713 27.495V32.1922C51.6713 32.9706 51.0406 33.6015 50.262 33.6015Z" fill="#FFEAC9"/>
<path d="M33.7278 33.6015C32.9495 33.6015 32.3186 32.9706 32.3186 32.1922V27.495C32.3186 26.7168 32.9493 26.0858 33.7278 26.0858C34.5062 26.0858 35.1371 26.7166 35.1371 27.495V32.1922C35.1371 32.9706 34.5064 33.6015 33.7278 33.6015Z" fill="#FFEAC9"/>
<path d="M56.2742 33.6015C55.4959 33.6015 54.865 32.9706 54.865 32.1922V27.495C54.865 26.7168 55.4957 26.0858 56.2742 26.0858C57.0528 26.0858 57.6835 26.7166 57.6835 27.495V32.1922C57.6833 32.9706 57.0526 33.6015 56.2742 33.6015Z" fill="#FFEAC9"/>
<path d="M45.0005 40.3973C44.2222 40.3973 43.5913 39.7664 43.5913 38.988V37.4849C43.5913 36.7068 44.222 36.0757 45.0005 36.0757C45.7789 36.0757 46.4098 36.7066 46.4098 37.4849V38.988C46.4098 39.7664 45.7789 40.3973 45.0005 40.3973Z" fill="#FFEAC9"/>
<path d="M39.7405 40.3973C38.9622 40.3973 38.3313 39.7664 38.3313 38.988V37.4849C38.3313 36.7068 38.962 36.0757 39.7405 36.0757C40.5191 36.0757 41.1498 36.7066 41.1498 37.4849V38.988C41.1498 39.7664 40.5189 40.3973 39.7405 40.3973Z" fill="#FFEAC9"/>
<path d="M50.2608 40.3973C49.4824 40.3973 48.8516 39.7664 48.8516 38.988V37.4849C48.8516 36.7068 49.4823 36.0757 50.2608 36.0757C51.0393 36.0757 51.67 36.7066 51.67 37.4849V38.988C51.67 39.7664 51.0392 40.3973 50.2608 40.3973Z" fill="#FFEAC9"/>
<path d="M33.7269 40.3973C32.9485 40.3973 32.3176 39.7664 32.3176 38.988V37.4849C32.3176 36.7068 32.9483 36.0757 33.7269 36.0757C34.5054 36.0757 35.1361 36.7066 35.1361 37.4849V38.988C35.1361 39.7664 34.5054 40.3973 33.7269 40.3973Z" fill="#FFEAC9"/>
<path d="M56.2737 40.3973C55.4954 40.3973 54.8645 39.7664 54.8645 38.988V37.4849C54.8645 36.7068 55.4952 36.0757 56.2737 36.0757C57.0521 36.0757 57.683 36.7066 57.683 37.4849V38.988C57.6828 39.7664 57.0521 40.3973 56.2737 40.3973Z" fill="#FFEAC9"/>
<path d="M45.0001 58.4338C44.2217 58.4338 43.5908 57.8029 43.5908 57.0246V45.0003C43.5908 44.2221 44.2215 43.591 45.0001 43.591C45.7784 43.591 46.4093 44.2219 46.4093 45.0003V57.0246C46.4093 57.8028 45.7786 58.4338 45.0001 58.4338Z" fill="#FFEAC9"/>
<path d="M39.74 58.4338C38.9617 58.4338 38.3308 57.8029 38.3308 57.0246V45.0003C38.3308 44.2221 38.9615 43.591 39.74 43.591C40.5186 43.591 41.1493 44.2219 41.1493 45.0003V57.0246C41.1493 57.8028 40.5186 58.4338 39.74 58.4338Z" fill="#FFEAC9"/>
<path d="M50.262 58.4338C49.4837 58.4338 48.8528 57.8029 48.8528 57.0246V45.0003C48.8528 44.2221 49.4835 43.591 50.262 43.591C51.0406 43.591 51.6713 44.2219 51.6713 45.0003V57.0246C51.6713 57.8028 51.0406 58.4338 50.262 58.4338Z" fill="#FFEAC9"/>
<path d="M33.7274 58.4338C32.949 58.4338 32.3181 57.8029 32.3181 57.0246V45.0003C32.3181 44.2221 32.9488 43.591 33.7274 43.591C34.5059 43.591 35.1366 44.2219 35.1366 45.0003V57.0246C35.1364 57.8028 34.5057 58.4338 33.7274 58.4338Z" fill="#FFEAC9"/>
<path d="M56.274 58.4338C55.4956 58.4338 54.8647 57.8029 54.8647 57.0246V45.0003C54.8647 44.2221 55.4954 43.591 56.274 43.591C57.0525 43.591 57.6832 44.2219 57.6832 45.0003V57.0246C57.6831 57.8028 57.0523 58.4338 56.274 58.4338Z" fill="#FFEAC9"/>
<path d="M46.4093 70.5536C46.4093 69.7755 45.7786 69.1444 45.0001 69.1444C44.2217 69.1444 43.5908 69.7753 43.5908 70.5536V88.4034H46.4091V70.5536H46.4093Z" fill="#FFEAC9"/>
<path d="M41.1493 70.5536C41.1493 69.7755 40.5186 69.1444 39.74 69.1444C38.9615 69.1444 38.3308 69.7753 38.3308 70.5536V88.4034H41.1491V70.5536H41.1493Z" fill="#FFEAC9"/>
<path d="M51.6713 70.5536C51.6713 69.7755 51.0406 69.1444 50.262 69.1444C49.4835 69.1444 48.8528 69.7753 48.8528 70.5536V88.4034H51.6711V70.5536H51.6713Z" fill="#FFEAC9"/>
<path d="M17.1927 88.5909C16.4143 88.5909 15.7834 87.96 15.7834 87.1817V81.1691C15.7834 80.3909 16.4142 79.7599 17.1927 79.7599C17.971 79.7599 18.6019 80.3907 18.6019 81.1691V87.1817C18.6017 87.96 17.971 88.5909 17.1927 88.5909Z" fill="#0E1343"/>
<path d="M21.7101 72.9098C20.4628 69.3646 18.985 67.6413 17.1922 67.6413C15.3994 67.6413 13.9218 69.3646 12.6742 72.9098C11.8625 75.2164 11.2734 78.0183 11.2734 79.5724C11.2734 82.836 13.9286 85.491 17.192 85.491C20.4554 85.491 23.1105 82.8358 23.1105 79.5724C23.1109 78.0185 22.5219 75.2164 21.7101 72.9098Z" fill="#FC8946"/>
<path d="M19.3529 83.3299C16.0894 83.3299 13.4344 80.6747 13.4344 77.4114C13.4344 75.8573 14.0234 73.0553 14.8352 70.7487C15.2421 69.5923 15.6737 68.6309 16.1326 67.8589C14.8057 68.4224 13.6671 70.0887 12.6745 72.9094C11.8627 75.216 11.2737 78.018 11.2737 79.5721C11.2737 82.8356 13.9289 85.4906 17.1922 85.4906C19.3774 85.4906 21.2886 84.2992 22.3138 82.5328C21.4421 83.0388 20.4312 83.3299 19.3529 83.3299Z" fill="#F87728"/>
<path d="M29.2176 88.5909C28.4392 88.5909 27.8083 87.96 27.8083 87.1817V81.1691C27.8083 80.3909 28.4391 79.7599 29.2176 79.7599C29.9959 79.7599 30.6268 80.3907 30.6268 81.1691V87.1817C30.6268 87.96 29.9959 88.5909 29.2176 88.5909Z" fill="#0E1343"/>
<path d="M33.7362 72.9098C32.4889 69.3646 31.0111 67.6413 29.2183 67.6413C27.4257 67.6413 25.9479 69.3646 24.7004 72.9098C23.8886 75.2164 23.2996 78.0183 23.2996 79.5724C23.2996 82.836 25.9547 85.491 29.2181 85.491C32.4815 85.491 35.1367 82.8358 35.1367 79.5724C35.137 78.0185 34.548 75.2164 33.7362 72.9098Z" fill="#FC8946"/>
<path d="M30.8148 83.8933C27.5512 83.8933 24.8962 81.2382 24.8962 77.9748C24.8962 76.4207 25.4853 73.6188 26.297 71.3122C26.7801 69.9391 27.2981 68.8405 27.8551 68.0084C26.6568 68.6855 25.616 70.3053 24.6999 72.9093C23.8881 75.2159 23.2991 78.0179 23.2991 79.5719C23.2991 82.8355 25.9542 85.4905 29.2176 85.4905C31.2567 85.4905 33.0581 84.4539 34.123 82.8801C33.178 83.5196 32.0393 83.8933 30.8148 83.8933Z" fill="#F87728"/>
<path d="M60.783 88.5909C60.0047 88.5909 59.3738 87.96 59.3738 87.1817V81.1691C59.3738 80.3909 60.0045 79.7599 60.783 79.7599C61.5614 79.7599 62.1923 80.3907 62.1923 81.1691V87.1817C62.1923 87.96 61.5614 88.5909 60.783 88.5909Z" fill="#0E1343"/>
<path d="M65.3002 72.9098C64.0528 69.3646 62.575 67.6413 60.7823 67.6413C58.9896 67.6413 57.5118 69.3646 56.2643 72.9098C55.4526 75.2164 54.8635 78.0183 54.8635 79.5724C54.8635 82.836 57.5187 85.491 60.7821 85.491C64.0456 85.491 66.7006 82.8358 66.7006 79.5724C66.7008 78.0185 66.1118 75.2164 65.3002 72.9098Z" fill="#FC8946"/>
<path d="M62.3802 83.8933C59.1166 83.8933 56.4616 81.2382 56.4616 77.9748C56.4616 76.4207 57.0507 73.6188 57.8624 71.3122C58.3455 69.9391 58.8635 68.8405 59.4206 68.0084C58.2223 68.6855 57.1815 70.3053 56.2653 72.9093C55.4535 75.2159 54.8645 78.0179 54.8645 79.5719C54.8645 82.8355 57.5197 85.4905 60.783 85.4905C62.8221 85.4905 64.6235 84.4539 65.6884 82.8801C64.7434 83.5196 63.6047 83.8933 62.3802 83.8933Z" fill="#F87728"/>
<path d="M72.8084 88.5909C72.0301 88.5909 71.3992 87.96 71.3992 87.1817V81.1691C71.3992 80.3909 72.0299 79.7599 72.8084 79.7599C73.5869 79.7599 74.2177 80.3907 74.2177 81.1691V87.1817C74.2177 87.96 73.5869 88.5909 72.8084 88.5909Z" fill="#0E1343"/>
<path d="M77.3263 72.9098C76.079 69.3646 74.6012 67.6413 72.8084 67.6413C71.0156 67.6413 69.538 69.3646 68.2904 72.9098C67.4787 75.2164 66.8896 78.0183 66.8896 79.5724C66.8896 82.836 69.5448 85.491 72.8082 85.491C76.0718 85.491 78.7267 82.8358 78.7267 79.5724C78.7269 78.0185 78.1379 75.2164 77.3263 72.9098Z" fill="#FC8946"/>
<path d="M74.4039 83.8933C71.1403 83.8933 68.4853 81.2382 68.4853 77.9748C68.4853 76.4207 69.0744 73.6188 69.8861 71.3122C70.3692 69.9391 70.8872 68.8405 71.4443 68.0084C70.246 68.6855 69.2052 70.3053 68.289 72.9093C67.4772 75.2159 66.8882 78.0179 66.8882 79.5719C66.8882 82.8355 69.5434 85.4905 72.8067 85.4905C74.8458 85.4905 76.6472 84.4539 77.7121 82.8801C76.7671 83.5196 75.6284 83.8933 74.4039 83.8933Z" fill="#F87728"/>
<path d="M87.84 89.9997H2.16144C1.38308 89.9997 0.752197 89.3688 0.752197 88.5904C0.752197 87.8122 1.3829 87.1812 2.16144 87.1812H87.8399C88.6182 87.1812 89.2491 87.8121 89.2491 88.5904C89.2491 89.3688 88.6184 89.9997 87.84 89.9997Z" fill="#0175D8"/>
</svg>
