<svg width="90" height="90" viewBox="0 0 90 90" fill="none" xmlns="http://www.w3.org/2000/svg">
<g clip-path="url(#clip0)">
<path d="M65.2456 17.9442H24.9429V90.0007H65.2456V17.9442Z" fill="#FFEAC9"/>
<path d="M38.1892 17.9442H24.9429V90.0007H38.1892V17.9442Z" fill="#FFB78F"/>
<path d="M65.246 17.9442H51.8118V90.0007H65.246V17.9442Z" fill="#FFB78F"/>
<path d="M48.7095 25.4586H41.1938V31.4712H48.7095V25.4586Z" fill="#5DBFFB"/>
<path d="M48.7116 32.8814H41.1959C40.4175 32.8814 39.7866 32.2505 39.7866 31.4722V25.4596C39.7866 24.6814 40.4173 24.0504 41.1959 24.0504H48.7116C49.4899 24.0504 50.1208 24.6812 50.1208 25.4596V31.4722C50.1208 32.2505 49.4897 32.8814 48.7116 32.8814ZM42.6051 30.0631H47.3023V26.869H42.6051V30.0631Z" fill="#FFB78F"/>
<path d="M48.7095 41.994H41.1938V48.0066H48.7095V41.994Z" fill="#5DBFFB"/>
<path d="M48.7116 49.4148H41.1959C40.4175 49.4148 39.7866 48.7839 39.7866 48.0055V41.9929C39.7866 41.2148 40.4173 40.5837 41.1959 40.5837H48.7116C49.4899 40.5837 50.1208 41.2146 50.1208 41.9929V48.0055C50.1208 48.7837 49.4897 49.4148 48.7116 49.4148ZM42.6051 46.5963H47.3023V43.4022H42.6051V46.5963Z" fill="#FFB78F"/>
<path d="M48.7095 58.5274H41.1938V64.54H48.7095V58.5274Z" fill="#5DBFFB"/>
<path d="M48.7116 65.9495H41.1959C40.4175 65.9495 39.7866 65.3186 39.7866 64.5403V58.5278C39.7866 57.7496 40.4173 57.1186 41.1959 57.1186H48.7116C49.4899 57.1186 50.1208 57.7495 50.1208 58.5278V64.5404C50.1208 65.3186 49.4897 65.9495 48.7116 65.9495ZM42.6051 63.1312H47.3023V59.9371H42.6051V63.1312Z" fill="#FFB78F"/>
<path d="M48.7095 75.0623H41.1938V81.0749H48.7095V75.0623Z" fill="#5DBFFB"/>
<path d="M48.7116 82.4836H41.1959C40.4175 82.4836 39.7866 81.8528 39.7866 81.0744V75.0618C39.7866 74.2836 40.4173 73.6526 41.1959 73.6526H48.7116C49.4899 73.6526 50.1208 74.2834 50.1208 75.0618V81.0744C50.1208 81.8528 49.4897 82.4836 48.7116 82.4836ZM42.6051 79.6653H47.3023V76.4712H42.6051V79.6653Z" fill="#FFB78F"/>
<path d="M88.7874 16.947L72.2531 0.412534C71.7025 -0.137837 70.8104 -0.137837 70.2601 0.412534L53.7257 16.9469C53.4613 17.2112 53.313 17.5697 53.313 17.9434V89.9998H87.7911C88.5693 89.9998 89.2003 89.3689 89.2003 88.5906V17.9432C89.2001 17.5695 89.0516 17.2112 88.7874 16.947Z" fill="#5DBFFB"/>
<path d="M71.2577 11.9317C67.937 11.9317 65.2451 14.6236 65.2451 17.9443V31.4724H77.2701V17.9443C77.2703 14.6238 74.5784 11.9317 71.2577 11.9317Z" fill="#0986E2"/>
<path d="M68.2511 41.994H60.7354V48.0066H68.2511V41.994Z" fill="#0986E2"/>
<path d="M68.2499 49.4148H60.7342C59.9558 49.4148 59.325 48.7839 59.325 48.0055V41.9929C59.325 41.2148 59.9557 40.5837 60.7342 40.5837H68.2499C69.0282 40.5837 69.6591 41.2146 69.6591 41.9929V48.0055C69.6591 48.7837 69.0281 49.4148 68.2499 49.4148ZM62.1434 46.5963H66.8406V43.4022H62.1434V46.5963Z" fill="#FFEAC9"/>
<path d="M81.7784 41.994H74.2627V48.0066H81.7784V41.994Z" fill="#0986E2"/>
<path d="M81.7804 49.4148H74.2647C73.4863 49.4148 72.8555 48.7839 72.8555 48.0055V41.9929C72.8555 41.2148 73.4862 40.5837 74.2647 40.5837H81.7804C82.5588 40.5837 83.1897 41.2146 83.1897 41.9929V48.0055C83.1897 48.7837 82.5588 49.4148 81.7804 49.4148ZM75.6739 46.5963H80.3712V43.4022H75.6739V46.5963Z" fill="#FFEAC9"/>
<path d="M68.2511 58.5274H60.7354V64.54H68.2511V58.5274Z" fill="#0986E2"/>
<path d="M68.2499 65.9495H60.7342C59.9558 65.9495 59.325 65.3186 59.325 64.5403V58.5278C59.325 57.7496 59.9557 57.1186 60.7342 57.1186H68.2499C69.0282 57.1186 69.6591 57.7495 69.6591 58.5278V64.5404C69.6591 65.3186 69.0281 65.9495 68.2499 65.9495ZM62.1434 63.1312H66.8406V59.9371H62.1434V63.1312Z" fill="#FFEAC9"/>
<path d="M81.7784 58.5274H74.2627V64.54H81.7784V58.5274Z" fill="#0986E2"/>
<path d="M81.7804 65.9495H74.2647C73.4863 65.9495 72.8555 65.3186 72.8555 64.5402V58.5278C72.8555 57.7496 73.4862 57.1186 74.2647 57.1186H81.7804C82.5588 57.1186 83.1897 57.7495 83.1897 58.5278V64.5404C83.1897 65.3186 82.5588 65.9495 81.7804 65.9495ZM75.6739 63.1312H80.3712V59.9371H75.6739V63.1312Z" fill="#FFEAC9"/>
<path d="M71.2576 10.5224C67.1654 10.5224 63.8359 13.8518 63.8359 17.944V31.4722C63.8359 32.2503 64.4666 32.8814 65.2452 32.8814H77.2702C78.0486 32.8814 78.6794 32.2505 78.6794 31.4722V17.944C78.6794 13.8517 75.35 10.5224 71.2576 10.5224ZM71.2576 13.3407C73.3046 13.3407 75.0429 14.684 75.6395 16.5348H66.8757C67.4723 14.684 69.2108 13.3407 71.2576 13.3407ZM66.6542 19.3533H69.8484V30.0631H66.6542V19.3533ZM72.6668 30.0631V19.3533H75.861V30.0631H72.6668Z" fill="#FFEAC9"/>
<path d="M36.2724 16.947L19.7379 0.412534C19.1873 -0.137837 18.2952 -0.137837 17.7449 0.412534L1.21034 16.947C0.945967 17.2112 0.797607 17.5695 0.797607 17.9432V88.5906C0.797607 89.3687 1.42849 89.9998 2.20685 89.9998H36.6849V17.9432C36.6849 17.5695 36.5364 17.2112 36.2724 16.947Z" fill="#5DBFFB"/>
<path d="M18.7436 11.9317C15.4229 11.9317 12.731 14.6236 12.731 17.9443V31.4724H24.756V17.9443C24.7562 14.6238 22.0642 11.9317 18.7436 11.9317Z" fill="#0986E2"/>
<path d="M15.7368 41.994H8.22107V48.0066H15.7368V41.994Z" fill="#0986E2"/>
<path d="M15.7357 49.4148H8.22003C7.44167 49.4148 6.81079 48.7839 6.81079 48.0055V41.9929C6.81079 41.2148 7.44149 40.5837 8.22003 40.5837H15.7357C16.5141 40.5837 17.145 41.2146 17.145 41.9929V48.0055C17.145 48.7837 16.5141 49.4148 15.7357 49.4148ZM9.62927 46.5963H14.3265V43.4022H9.62927V46.5963Z" fill="#FFEAC9"/>
<path d="M29.2651 41.994H21.7494V48.0066H29.2651V41.994Z" fill="#0986E2"/>
<path d="M29.2631 49.4148H21.7474C20.969 49.4148 20.3381 48.7839 20.3381 48.0055V41.9929C20.3381 41.2148 20.9688 40.5837 21.7474 40.5837H29.2631C30.0414 40.5837 30.6723 41.2146 30.6723 41.9929V48.0055C30.6723 48.7837 30.0414 49.4148 29.2631 49.4148ZM23.1566 46.5963H27.8538V43.4022H23.1566V46.5963Z" fill="#FFEAC9"/>
<path d="M15.7368 58.5274H8.22107V64.54H15.7368V58.5274Z" fill="#0986E2"/>
<path d="M15.7357 65.9495H8.22003C7.44167 65.9495 6.81079 65.3186 6.81079 64.5403V58.5278C6.81079 57.7496 7.44149 57.1186 8.22003 57.1186H15.7357C16.5141 57.1186 17.145 57.7495 17.145 58.5278V64.5404C17.145 65.3186 16.5141 65.9495 15.7357 65.9495ZM9.62927 63.1312H14.3265V59.9371H9.62927V63.1312Z" fill="#FFEAC9"/>
<path d="M29.2651 58.5274H21.7494V64.54H29.2651V58.5274Z" fill="#0986E2"/>
<path d="M29.2661 65.9495H21.7504C20.9721 65.9495 20.3412 65.3186 20.3412 64.5402V58.5278C20.3412 57.7496 20.9719 57.1186 21.7504 57.1186H29.2661C30.0445 57.1186 30.6754 57.7495 30.6754 58.5278V64.5404C30.6754 65.3186 30.0445 65.9495 29.2661 65.9495ZM23.1597 63.1312H27.8569V59.9371H23.1597V63.1312Z" fill="#FFEAC9"/>
<path d="M18.7432 10.5224C14.6508 10.5224 11.3215 13.8518 11.3215 17.944V31.4722C11.3215 32.2503 11.9522 32.8814 12.7308 32.8814H24.7558C25.5342 32.8814 26.165 32.2505 26.165 31.4722V17.944C26.165 13.8517 22.8356 10.5224 18.7432 10.5224ZM18.7432 13.3407C20.7902 13.3407 22.5285 14.684 23.1251 16.5348H14.3615C14.9581 14.684 16.6964 13.3407 18.7432 13.3407ZM14.14 19.3533H17.3341V30.0631H14.14V19.3533ZM20.1524 30.0631V19.3533H23.3466V30.0631H20.1524Z" fill="#FFEAC9"/>
<path d="M0.797607 77.8804V88.5903C0.797607 89.3685 1.42849 89.9995 2.20685 89.9995H36.6849V77.8804H0.797607Z" fill="#0175D8"/>
<path d="M53.312 77.8804V89.9995H87.7901C88.5683 89.9995 89.1993 89.3686 89.1993 88.5903V77.8804H53.312Z" fill="#0175D8"/>
<path d="M78.7725 90.0006C77.9942 90.0006 77.3633 89.3697 77.3633 88.5914V79.5726C77.3633 78.7944 77.994 78.1633 78.7725 78.1633C79.5509 78.1633 80.1817 78.7942 80.1817 79.5726V88.5914C80.1817 89.3696 79.5507 90.0006 78.7725 90.0006Z" fill="#0E1343"/>
<path d="M78.7749 69.1437C74.6826 69.1437 71.3533 72.4732 71.3533 76.5653C71.3533 80.6577 74.6827 83.987 78.7749 83.987C82.8671 83.987 86.1966 80.6575 86.1966 76.5653C86.1966 72.473 82.8671 69.1437 78.7749 69.1437Z" fill="#FC8946"/>
<path d="M81.8752 80.887C77.783 80.887 74.4535 77.5576 74.4535 73.4654C74.4535 72.2158 74.7654 71.0378 75.3131 70.0037C72.9604 71.25 71.3533 73.7231 71.3533 76.5656C71.3533 80.658 74.6827 83.9873 78.7749 83.9873C81.6175 83.9873 84.0907 82.3801 85.337 80.0273C84.3027 80.5752 83.1248 80.887 81.8752 80.887Z" fill="#F87728"/>
<path d="M63.8348 90.0006C63.0564 90.0006 62.4255 89.3697 62.4255 88.5914V79.5726C62.4255 78.7944 63.0562 78.1633 63.8348 78.1633C64.6133 78.1633 65.244 78.7942 65.244 79.5726V88.5914C65.244 89.3696 64.613 90.0006 63.8348 90.0006Z" fill="#0E1343"/>
<path d="M63.8372 69.1437C59.745 69.1437 56.4155 72.4732 56.4155 76.5653C56.4155 80.6577 59.745 83.987 63.8372 83.987C67.9294 83.987 71.2588 80.6575 71.2588 76.5653C71.2588 72.473 67.9294 69.1437 63.8372 69.1437Z" fill="#FC8946"/>
<path d="M66.9374 80.887C62.8451 80.887 59.5158 77.5576 59.5158 73.4654C59.5158 72.2158 59.8276 71.0378 60.3754 70.0037C58.0227 71.25 56.4155 73.7231 56.4155 76.5656C56.4155 80.658 59.745 83.9873 63.8372 83.9873C66.6797 83.9873 69.153 82.3801 70.3993 80.0273C69.365 80.5752 68.1871 80.887 66.9374 80.887Z" fill="#F87728"/>
<path d="M26.2581 90.0006C25.4798 90.0006 24.8489 89.3697 24.8489 88.5914V79.5726C24.8489 78.7944 25.4796 78.1633 26.2581 78.1633C27.0365 78.1633 27.6674 78.7942 27.6674 79.5726V88.5914C27.6674 89.3696 27.0365 90.0006 26.2581 90.0006Z" fill="#0E1343"/>
<path d="M26.2575 69.1437C22.1653 69.1437 18.8358 72.4732 18.8358 76.5653C18.8358 80.6577 22.1653 83.987 26.2575 83.987C30.3497 83.987 33.6791 80.6575 33.6791 76.5653C33.6791 72.473 30.3498 69.1437 26.2575 69.1437Z" fill="#FC8946"/>
<path d="M29.3577 80.887C25.2654 80.887 21.9361 77.5576 21.9361 73.4654C21.9361 72.2158 22.2479 71.0378 22.7956 70.0037C20.443 71.25 18.8358 73.7231 18.8358 76.5656C18.8358 80.658 22.1653 83.9873 26.2575 83.9873C29.1 83.9873 31.5733 82.3801 32.8196 80.0273C31.7853 80.5752 30.6074 80.887 29.3577 80.887Z" fill="#F87728"/>
<path d="M11.3205 90.0006C10.5421 90.0006 9.91125 89.3697 9.91125 88.5914V79.5726C9.91125 78.7944 10.542 78.1633 11.3205 78.1633C12.0989 78.1633 12.7297 78.7942 12.7297 79.5726V88.5914C12.7297 89.3696 12.0989 90.0006 11.3205 90.0006Z" fill="#0E1343"/>
<path d="M11.3199 69.1437C7.22767 69.1437 3.89819 72.4732 3.89819 76.5653C3.89819 80.6577 7.22767 83.987 11.3199 83.987C15.412 83.987 18.7415 80.6575 18.7415 76.5653C18.7415 72.473 15.4122 69.1437 11.3199 69.1437Z" fill="#FC8946"/>
<path d="M14.4201 80.887C10.3277 80.887 6.99845 77.5576 6.99845 73.4654C6.99845 72.2158 7.31028 71.0378 7.85802 70.0037C5.50536 71.2498 3.89819 73.7231 3.89819 76.5656C3.89819 80.658 7.22767 83.9873 11.3199 83.9873C14.1624 83.9873 16.6357 82.3801 17.8819 80.0273C16.8476 80.5752 15.6697 80.887 14.4201 80.887Z" fill="#F87728"/>
</g>
<defs>
<clipPath id="clip0">
<rect width="90" height="90" fill="white"/>
</clipPath>
</defs>
</svg>
