<svg width="766" height="465" viewBox="0 0 766 465" fill="none" xmlns="http://www.w3.org/2000/svg">
<g clip-path="url(#clip0)">
<path d="M437.485 222.879L350.148 196.422L431.876 90.5947L437.485 222.879Z" fill="#FFB78F"/>
<path d="M433.479 88.9914L250.793 329.509L166.002 465.5L9.61511 465L266.017 30.4656L433.479 88.9914Z" fill="#F87728"/>
<path d="M427.55 112.722L421.14 111.119V112.722L427.55 114.326V112.722Z" fill="#5DBFFB"/>
<path d="M428.031 146.395L421.621 144.791L375.789 207.967L380.596 209.41L428.031 146.395Z" fill="#0265CD"/>
<path d="M427.87 138.378L421.46 136.774L375.789 199.95L380.596 201.393L427.87 138.378Z" fill="#0265CD"/>
<path d="M427.872 130.36L421.302 128.757L375.63 191.933L380.438 193.376L427.872 130.36Z" fill="#0265CD"/>
<path d="M427.712 122.343L421.302 120.74L375.63 183.915L380.438 185.358L427.712 122.343Z" fill="#0265CD"/>
<path d="M427.551 114.326L421.141 112.722L375.469 175.898L380.277 177.341L427.551 114.326Z" fill="#0265CD"/>
<path d="M421.621 143.188L374.187 207.967H375.789L421.621 144.791V143.188Z" fill="#CBE9FF"/>
<path d="M427.711 120.74L421.301 119.136V120.74L427.711 122.343V120.74Z" fill="#5DBFFB"/>
<path d="M427.711 128.757L421.301 127.153V128.757L427.871 130.36L427.711 128.757Z" fill="#5DBFFB"/>
<path d="M427.87 136.774L421.46 135.171V136.774L427.87 138.378V136.774Z" fill="#5DBFFB"/>
<path d="M428.031 144.791L421.621 143.188V144.791L428.031 146.395V144.791Z" fill="#5DBFFB"/>
<path d="M421.461 135.171L374.187 199.95H375.789L421.461 136.774V135.171Z" fill="#CBE9FF"/>
<path d="M421.301 127.153L374.027 191.933H375.63L421.301 128.757V127.153Z" fill="#CBE9FF"/>
<path d="M421.301 119.136L374.027 183.916H375.63L421.301 120.74V119.136Z" fill="#CBE9FF"/>
<path d="M421.14 111.119L373.866 175.898H375.469L421.14 112.722V111.119Z" fill="#CBE9FF"/>
<path d="M429.152 152.809L422.582 151.205L422.742 152.809L429.152 154.412V152.809Z" fill="#5DBFFB"/>
<path d="M429.472 186.481L423.062 184.877L377.39 248.053L382.198 249.496L429.472 186.481Z" fill="#0265CD"/>
<path d="M429.311 178.464L422.901 176.86L377.23 240.036L382.037 241.479L429.311 178.464Z" fill="#0265CD"/>
<path d="M429.313 170.446L422.903 168.843L377.071 232.019L382.039 233.462L429.313 170.446Z" fill="#0265CD"/>
<path d="M429.152 162.429L422.742 160.826L377.071 224.002L381.878 225.445L429.152 162.429Z" fill="#0265CD"/>
<path d="M429.152 154.412L422.742 152.809L376.91 215.984L381.718 217.428L429.152 154.412Z" fill="#0265CD"/>
<path d="M423.063 183.274L375.789 248.053H377.391L423.063 184.877V183.274Z" fill="#CBE9FF"/>
<path d="M429.152 160.826L422.741 159.222V160.826L429.152 162.429V160.826Z" fill="#5DBFFB"/>
<path d="M429.311 168.843L422.901 167.24V168.843L429.311 170.446V168.843Z" fill="#5DBFFB"/>
<path d="M429.311 176.86L422.901 175.257V176.86L429.311 178.464V176.86Z" fill="#5DBFFB"/>
<path d="M429.472 184.877L423.062 183.274V184.877L429.472 186.481V184.877Z" fill="#5DBFFB"/>
<path d="M422.902 175.257L375.628 240.036H377.23L422.902 176.86V175.257Z" fill="#CBE9FF"/>
<path d="M422.902 167.24L375.468 232.019H377.071L422.902 168.843V167.24Z" fill="#CBE9FF"/>
<path d="M422.742 159.222L375.468 224.002H377.071L422.742 160.826V159.222Z" fill="#CBE9FF"/>
<path d="M422.581 151.205L375.307 215.984H376.91L422.742 152.809L422.581 151.205Z" fill="#CBE9FF"/>
<path d="M430.595 192.895L424.185 191.291V192.895L430.595 194.498V192.895Z" fill="#5DBFFB"/>
<path d="M430.914 226.407L424.504 224.964L378.833 287.979L383.64 289.583L430.914 226.407Z" fill="#0265CD"/>
<path d="M430.916 218.39L424.506 216.947L378.674 279.962L383.642 281.565L430.916 218.39Z" fill="#0265CD"/>
<path d="M430.755 210.533L424.345 208.929L378.674 271.945L383.481 273.548L430.755 210.533Z" fill="#0265CD"/>
<path d="M430.755 202.515L424.345 200.912L378.513 263.927L383.321 265.531L430.755 202.515Z" fill="#0265CD"/>
<path d="M430.595 194.498L424.185 192.895L378.513 255.91L383.321 257.514L430.595 194.498Z" fill="#0265CD"/>
<path d="M424.505 223.36L377.231 288.139L378.833 287.979L424.505 224.964V223.36Z" fill="#CBE9FF"/>
<path d="M430.755 200.912L424.185 199.309L424.345 200.912L430.755 202.515V200.912Z" fill="#5DBFFB"/>
<path d="M430.754 208.929L424.344 207.326V208.929L430.754 210.533V208.929Z" fill="#5DBFFB"/>
<path d="M430.914 216.786L424.504 215.343V216.946L430.914 218.39V216.786Z" fill="#5DBFFB"/>
<path d="M430.914 224.803L424.504 223.36V224.964L430.914 226.407V224.803Z" fill="#5DBFFB"/>
<path d="M424.505 215.343L377.071 280.122L378.673 279.962L424.505 216.946V215.343Z" fill="#CBE9FF"/>
<path d="M424.345 207.326L377.071 272.105L378.673 271.945L424.345 208.929V207.326Z" fill="#CBE9FF"/>
<path d="M424.184 199.309L376.91 264.088L378.513 263.928L424.344 200.912L424.184 199.309Z" fill="#CBE9FF"/>
<path d="M424.184 191.291L376.91 256.071L378.513 255.91L424.184 192.895V191.291Z" fill="#CBE9FF"/>
<path d="M425.466 208.929V210.693L349.667 181.991L348.065 181.35L275.952 154.091L274.349 153.45L273.228 152.969C271.785 152.488 270.183 152.809 269.382 154.091L266.657 157.459L265.055 159.543L264.093 160.665L262.811 159.703L264.093 158.1L268.1 153.129C269.542 151.365 271.785 150.724 273.869 151.526L425.466 208.929Z" fill="#0E1343"/>
<path d="M349.667 180.708H348.065V194.017H349.667V180.708Z" fill="#0E1343"/>
<path d="M276.112 152.809H274.51V164.514H276.112V152.809Z" fill="#0E1343"/>
<path d="M425.466 213.74V215.503L349.667 187.283L348.064 186.641L340.693 183.915L339.09 183.274L335.244 181.831L333.642 181.19L329.796 179.746L328.193 179.105L324.347 177.662L322.745 177.021L318.899 175.577L317.296 174.936L313.45 173.493L311.848 172.852L308.002 171.408L306.399 170.767L302.553 169.324L300.951 168.683L297.105 167.24L295.502 166.598L291.656 165.155L290.054 164.514L286.208 163.071L284.605 162.429L280.759 160.986L279.156 160.345L275.31 158.902L273.708 158.26L271.464 157.458C270.503 157.138 269.381 156.977 268.42 157.298L264.413 158.26L263.933 158.421L266.176 156.176L268.259 155.695C269.541 155.374 270.984 155.374 272.266 155.855L273.868 156.496L275.471 157.138L334.443 178.945L334.764 179.105L339.731 181.029L340.052 181.19L347.423 183.915L349.026 184.557L425.466 213.74Z" fill="#0E1343"/>
<path d="M281.401 160.666H279.798V166.278H281.401V160.666Z" fill="#0E1343"/>
<path d="M286.849 162.75H285.246V168.202H286.849V162.75Z" fill="#0E1343"/>
<path d="M292.297 164.674H290.695V169.965H292.297V164.674Z" fill="#0E1343"/>
<path d="M297.585 166.759H295.983V171.729H297.585V166.759Z" fill="#0E1343"/>
<path d="M303.035 168.683H301.432V173.493H303.035V168.683Z" fill="#0E1343"/>
<path d="M308.483 171.088H306.88V177.181H308.483V171.088Z" fill="#0E1343"/>
<path d="M313.772 173.172H312.169V179.586H313.772V173.172Z" fill="#0E1343"/>
<path d="M319.219 174.776H317.617V181.19H319.219V174.776Z" fill="#0E1343"/>
<path d="M324.508 176.7H322.906V183.595H324.508V176.7Z" fill="#0E1343"/>
<path d="M329.956 178.624H328.353V186H329.956V178.624Z" fill="#0E1343"/>
<path d="M335.405 180.227V187.603H333.803V180.067H334.925L335.405 180.227Z" fill="#0E1343"/>
<path d="M340.693 182.312V189.207H339.091V182.152H340.373L340.693 182.312Z" fill="#0E1343"/>
<path d="M257.203 157.94L235.569 465H766V339L257.203 157.94Z" fill="#9BCEFD"/>
<path d="M256.402 157.138L245.184 323.416L235.569 465H57.6906L256.402 157.138Z" fill="#CBE9FF"/>
<path d="M766 339.5L726.258 325.66H726.097L716.963 322.454L713.277 321.171L710.393 320.048L671.612 306.259L641.485 295.516L589.724 277.076L580.75 273.869L576.423 272.426L575.141 271.945L541.007 259.759L522.899 253.345L501.746 245.809L500.143 245.167L437.485 222.879L429.473 60.9312L766 193.5V339.5Z" fill="#0986E2"/>
<path d="M431.076 93L266.017 30.4655L267.62 0L429.473 60.931L431.076 93Z" fill="#0986E2"/>
<path d="M9.61506 465L266.017 30.4655L267.619 0L0 465H9.61506Z" fill="#5DBFFB"/>
<path d="M589.724 277.076L580.75 273.869L579.789 273.709L576.423 272.426L575.141 271.945L501.586 244.366L499.984 243.724L499.182 234.264L492.131 152.488L491.17 140.302L572.898 173.974L589.724 277.076Z" fill="#0265CD"/>
<path d="M451.907 405.672L445.017 403.588L439.889 402.145L342.937 373.603L344.379 257.193V252.383L344.539 242.121L445.497 277.396L451.907 405.672Z" fill="#55B7F3"/>
<path d="M213.133 272.586L211.21 294.233L210.569 301.448L201.916 399.259L174.353 436.138L170.346 441.269L158.648 456.983L171.468 333.517L213.133 272.586Z" fill="#0986E2"/>
<path d="M147.431 372L145.188 392.043L144.226 399.74L137.656 457.143L136.695 465H108.17L113.779 421.707L147.431 372Z" fill="#0986E2"/>
<path d="M145.188 392.043L144.227 399.74L137.656 457.143L136.695 465H116.663L121.791 426.517L145.188 392.043Z" fill="#F6F7F9"/>
<path d="M144.226 399.74L137.656 457.143L136.695 465H120.189L124.996 428.121L144.226 399.74Z" fill="#FFEAC9"/>
<path d="M211.211 294.233L210.57 301.448L201.917 399.259L174.354 436.138L170.347 441.269L181.084 338.327L211.211 294.233Z" fill="#F6F7F9"/>
<path d="M201.916 399.259L174.353 436.138L184.289 339.931L210.57 301.448L201.916 399.259Z" fill="#FFEAC9"/>
<path d="M616.967 455.379L608.954 452.974L603.506 451.371L519.214 426.517L507.996 313.795L507.515 308.664L506.393 298.241L597.737 328.707L616.967 455.379Z" fill="#55B7F3"/>
<path d="M759.59 465H675.138L656.709 363.822L655.748 358.691L653.825 347.948L737.155 375.207L759.59 465Z" fill="#55B7F3"/>
<path d="M751.257 465H675.137L656.709 363.822L655.747 358.691L730.744 383.224L751.257 465Z" fill="#CBE9FF"/>
<path d="M745.648 465H675.137L656.709 363.822L692.284 375.367L725.937 386.431L745.648 465Z" fill="#0E1343"/>
<path d="M608.954 452.974L603.505 451.371L519.213 426.517L507.996 313.795L507.515 308.664L591.326 336.724L608.954 452.974Z" fill="#CBE9FF"/>
<path d="M603.506 451.371L593.891 448.645L548.38 435.176L547.098 434.695L544.213 433.893L542.931 433.572L539.566 432.45L539.085 432.29L533.476 430.686H533.156L526.746 428.762L526.425 428.602L519.855 426.678L519.214 426.517L518.573 419.783L517.131 405.993L508.477 319.567L507.996 313.795L586.519 339.931L603.506 451.371Z" fill="#0E1343"/>
<path d="M445.017 403.588L439.889 402.145L342.937 373.604L344.379 257.193V252.383L439.087 285.414L445.017 403.588Z" fill="#CBE9FF"/>
<path d="M439.889 402.145L342.937 373.603L344.379 257.193L348.706 258.797L398.704 276.114L399.025 276.274L400.627 276.916L434.28 288.621L438.927 382.102L439.889 400.862V402.145Z" fill="#0E1343"/>
<path d="M716.963 322.454L726.097 325.66H726.258L701.098 220.474L623.376 189.207L625.299 199.79L625.78 202.836L642.606 295.035L710.393 319.728L711.354 320.209L713.277 321.171L716.963 322.454Z" fill="#0265CD"/>
<path d="M716.963 322.453L713.278 321.171L712.156 320.69L710.393 320.048L671.612 306.259L642.607 295.034L625.781 202.836L625.3 199.79L694.689 226.888L716.963 322.453Z" fill="#CBE9FF"/>
<path d="M581.711 274.19L580.75 273.869L579.788 273.709L576.423 272.426L575.141 271.945L501.746 245.809L501.586 244.365L492.291 152.488L491.971 149.121L566.487 178.784L581.711 274.19Z" fill="#CBE9FF"/>
<path d="M712.155 320.69L710.393 320.048L671.612 306.259L641.485 295.516L625.78 202.836L675.778 222.398L691.483 228.491L703.822 283.81L712.155 320.69Z" fill="#0E1343"/>
<path d="M576.424 272.426L575.142 271.945L549.181 262.645L542.771 260.4L541.008 259.759L522.9 253.345L501.747 245.809L500.144 245.167L499.984 243.724L499.183 234.264L496.138 198.828V198.667V198.507L495.978 196.262L492.292 152.969L492.132 152.488H492.292L563.283 180.388L576.424 272.426Z" fill="#0E1343"/>
<path d="M302.874 465H235.569L256.401 157.138L310.887 176.379L302.874 465Z" fill="#0986E2"/>
<path d="M235.569 465H208.326L230.762 195.621L256.402 157.138L235.569 465Z" fill="#6DBBFA"/>
<path d="M497.099 197.705C497.099 197.705 498.06 195.941 498.06 194.178C498.06 192.414 508.477 191.131 508.477 191.131C508.477 191.131 508.316 193.696 508.316 195.3C508.316 196.903 508.957 192.253 509.598 191.131C509.598 191.131 513.284 190.169 516.169 191.772C516.169 191.772 515.528 195.941 514.566 196.903C514.566 196.903 516.329 195.14 517.611 193.215C518.893 191.291 519.534 192.253 519.534 192.253C519.534 192.253 526.264 196.422 527.226 198.346C527.226 198.346 524.662 201.072 525.143 202.836C525.143 202.836 525.944 200.271 528.027 199.309L528.668 201.393C528.668 201.393 526.585 202.195 526.585 203.638C526.585 203.638 527.707 201.874 528.668 202.034C529.63 202.195 532.034 211.174 530.271 214.381L519.374 201.233L509.278 197.545H505.432L497.099 197.705Z" fill="#0986E2"/>
<path d="M530.271 214.701C530.271 214.701 530.271 214.862 530.271 214.701C530.271 214.701 530.111 214.701 530.111 214.541C529.31 213.419 526.265 209.41 523.38 206.363L523.22 206.203C521.457 204.279 519.695 202.676 518.733 202.515C516.65 202.034 516.65 200.912 514.246 199.95C513.926 199.789 513.765 199.789 513.445 199.629C513.285 199.629 513.285 199.629 513.124 199.469C512.323 199.308 511.361 198.988 510.079 198.827C506.714 198.186 502.708 198.026 499.182 198.346C498.061 198.507 497.099 198.507 496.138 198.667V198.507L495.977 196.101C496.298 195.941 496.779 195.781 497.099 195.62L497.9 195.3L500.464 194.498C500.464 194.498 501.105 196.743 501.746 197.384C501.746 197.384 501.105 194.819 502.067 193.857L503.189 193.536C503.189 193.536 502.387 196.422 503.99 197.384C503.99 197.384 503.189 195.46 503.99 193.215H505.753C505.753 193.215 506.394 197.063 507.836 197.705C507.836 197.705 506.073 194.177 506.714 192.895C506.714 192.895 507.355 192.895 508.156 192.895C508.317 192.895 508.637 192.895 508.797 192.895C510.079 193.055 511.682 193.055 512.003 193.215C512.003 193.215 511.682 197.224 512.964 199.148C512.964 199.148 512.323 193.696 513.765 193.536C514.246 193.536 514.887 193.857 515.368 194.338C515.688 194.498 515.849 194.819 516.169 194.979C517.131 195.781 517.932 196.743 518.573 197.063C519.695 197.705 522.098 197.705 522.419 198.346C522.739 199.148 521.137 199.95 522.739 204.92C522.739 204.92 522.579 199.308 523.701 198.827C523.701 198.827 524.502 199.469 525.464 200.591C525.624 200.751 525.784 200.912 525.944 201.072C526.265 201.553 526.746 201.874 527.066 202.355C527.226 202.515 527.226 202.515 527.387 202.676C528.188 203.638 528.829 204.76 529.31 205.882C530.752 208.929 530.271 214.06 530.271 214.701Z" fill="#5DBFFB"/>
<path d="M523.381 172.852C523.381 172.852 523.06 173.974 523.381 175.417C523.701 176.7 524.502 179.265 525.945 180.548C527.227 181.831 528.509 189.207 528.829 189.207C529.15 189.207 532.355 189.367 532.675 189.848C532.675 189.848 529.791 189.848 529.631 190.65C529.47 191.452 532.675 198.026 533.797 198.827C533.797 198.827 535.72 198.026 536.361 198.827C536.361 198.827 535.4 198.667 535.079 199.789C535.079 199.789 539.246 202.836 540.047 203.958C540.848 205.081 540.047 208.769 540.047 208.769L538.765 214.541L537.002 221.115L540.528 219.352C540.528 219.352 542.29 218.069 542.451 215.664C542.611 213.419 542.29 212.777 543.412 211.655C544.534 210.533 546.457 205.722 545.656 202.996C544.854 200.271 544.534 198.026 541.81 194.338C541.81 194.338 538.925 195.941 537.323 195.941C537.323 195.941 540.367 194.819 541.008 193.857C541.008 193.857 539.406 191.291 539.246 190.971C539.085 190.65 538.124 193.055 535.56 193.536C535.56 193.536 538.124 191.612 538.605 189.527L537.323 184.717C537.323 184.717 536.041 180.708 533.316 180.067C533.316 180.067 532.195 181.029 531.233 183.274C531.233 183.274 531.874 180.227 532.034 179.105L527.387 175.096C527.227 174.936 524.182 172.852 523.381 172.852Z" fill="#5DBFFB"/>
<path d="M535.559 200.11C535.559 200.11 536.361 207.486 536.521 209.731C536.681 211.976 536.681 220.955 536.681 220.955C536.681 220.955 538.925 219.672 539.245 218.389C539.405 217.267 539.405 214.381 539.245 213.579C539.085 212.777 539.886 209.089 540.527 208.448C541.328 207.646 540.848 204.76 539.566 203.477C538.444 202.355 535.559 200.11 535.559 200.11Z" fill="#0986E2"/>
<path d="M496.138 198.667C496.298 198.667 496.459 198.667 496.619 198.507C498.702 198.186 500.946 198.186 501.907 198.186C503.83 198.186 508.638 198.186 512.484 199.629C516.33 200.912 519.535 203.317 522.259 205.722C524.983 208.288 528.349 212.777 529.631 215.824C530.752 218.87 532.515 223.2 532.675 226.407C532.836 229.614 532.836 234.424 532.355 236.669H534.278C534.278 236.669 534.278 236.669 534.278 236.508C534.278 236.027 534.278 234.424 534.278 232.5C534.278 230.896 534.278 229.293 534.118 228.331C533.957 226.246 532.836 220.634 532.195 219.512C531.714 218.55 530.752 215.824 530.272 214.541C530.111 214.22 530.111 214.06 529.951 214.06C529.47 213.419 525.464 207.646 523.381 205.562C522.74 204.92 521.939 204.279 521.137 203.798C519.054 202.355 516.811 201.072 516.811 201.072C516.811 201.072 515.689 200.431 514.086 199.95C513.766 199.789 513.606 199.789 513.285 199.629C513.125 199.629 513.125 199.629 512.965 199.469C511.683 198.988 510.24 198.507 508.958 198.346C505.753 198.026 500.946 197.865 497.26 198.346C496.779 198.346 496.459 198.507 496.138 198.507V198.667Z" fill="#0175D8"/>
<path d="M534.598 236.829H533.637C533.637 236.829 534.438 231.217 534.919 229.293C535.239 227.369 536.361 216.305 536.361 215.022C536.361 213.739 535.72 202.676 535.56 202.034C535.4 201.393 535.239 200.11 535.239 200.11L535.72 200.431C535.72 200.431 536.521 208.127 536.682 209.41C536.682 210.693 537.162 219.993 536.842 221.115C536.682 222.238 536.361 225.765 536.361 225.765C536.361 225.765 534.919 233.783 534.759 235.065C534.598 236.348 534.598 236.829 534.598 236.829Z" fill="#0175D8"/>
<path d="M534.598 196.903L535.559 198.026C535.559 198.026 534.758 196.262 534.598 194.177C534.438 192.574 532.515 187.764 531.713 185.84C531.553 185.358 531.233 184.717 530.912 184.236C529.31 181.831 524.182 173.974 523.861 173.333C523.541 172.531 532.034 185.84 532.354 188.084C532.194 187.924 534.758 195.46 534.598 196.903Z" fill="#0175D8"/>
<path d="M545.335 248.695L542.931 260.4L541.168 259.759L528.509 255.269L523.06 253.345L522.259 248.534C521.458 244.365 522.259 240.036 524.342 236.509L525.945 233.783C526.906 232.019 527.066 229.774 526.105 228.01L525.143 225.926C524.823 225.284 525.304 224.483 526.105 224.483H542.29C542.45 224.483 542.611 224.483 542.771 224.643C543.252 224.803 543.412 225.284 543.091 225.765L542.13 227.85C541.168 229.774 541.168 232.019 542.29 233.943L543.572 236.348C545.335 240.036 545.976 244.526 545.335 248.695Z" fill="#FC8946"/>
<path d="M545.334 248.695L542.93 260.4L541.167 259.759L528.508 255.269C531.713 253.505 534.918 250.94 536.2 247.733C539.405 239.715 536.2 236.509 537.802 231.698C538.443 229.774 540.366 227.048 542.449 224.643C542.93 224.803 543.09 225.284 542.77 225.765L541.808 227.85C540.847 229.774 540.847 232.019 541.969 233.943L543.251 236.348C545.334 240.036 545.975 244.526 545.334 248.695Z" fill="#F87728"/>
<path opacity="0.27" d="M439.889 402.145L342.937 373.603L344.379 257.193L348.706 258.797C350.949 278.519 356.238 302.731 367.776 318.285C383.801 339.931 419.216 356.767 438.927 382.102L439.889 400.862V402.145Z" fill="#FFEAC9"/>
<path opacity="0.27" d="M544.213 253.345C544.693 256.712 546.456 259.759 549.02 262.645L542.77 260.4L541.008 259.759L522.899 253.345L501.746 245.809L500.144 245.167L499.983 243.724L499.182 234.264L496.137 198.667V198.507V198.347L495.977 195.941L492.291 152.809C499.983 165.797 511.682 184.717 516.81 189.848C524.822 198.026 541.328 231.698 544.213 253.345Z" fill="#FFEAC9"/>
<path opacity="0.27" d="M703.822 283.811C693.566 270.983 683.31 255.109 681.868 241.319C681.066 234.905 678.823 228.492 675.778 222.398L691.483 228.492L703.822 283.811Z" fill="#FFEAC9"/>
<path opacity="0.27" d="M745.649 465H738.117C734.432 453.936 727.541 434.214 715.682 406.474C710.394 394.128 702.061 383.865 692.446 375.367L726.098 386.431L745.649 465Z" fill="#FFEAC9"/>
<path d="M355.117 441.75L327.233 433.572V423.15L355.117 431.327V441.75Z" fill="#55B7F3"/>
<path d="M384.281 434.695L356.398 426.517V416.095L384.281 424.272V434.695Z" fill="#55B7F3"/>
<path d="M451.106 449.126L430.273 442.552V432.129L451.106 438.704V449.126Z" fill="#55B7F3"/>
<path d="M494.374 280.764L471.779 272.586V262.164L494.374 270.341V280.764Z" fill="#55B7F3"/>
<path d="M164.258 332.074L154.642 349.552V339.129L164.258 321.652V332.074Z" fill="#55B7F3"/>
<path d="M100.157 444.315L90.5414 461.793L92.144 449.767L101.759 432.29L100.157 444.315Z" fill="#55B7F3"/>
<path d="M646.612 401.022L625.619 392.845L624.177 382.422L645.01 390.44L646.612 401.022Z" fill="#55B7F3"/>
<path d="M526.745 428.762L522.739 407.276L522.258 405.031L517.13 405.993L518.572 419.783L519.854 426.678L526.425 428.602L526.745 428.762Z" fill="#FFB78F"/>
<path d="M533.155 430.686L526.745 428.762L526.425 428.602L522.579 407.276H522.739L528.828 406.153L529.309 408.398L533.476 430.686H533.155Z" fill="#FFEAC9"/>
<path d="M539.001 432.4L533.156 430.686L528.989 408.398H529.309L534.438 407.436L539.001 432.4Z" fill="#5DBFFB"/>
<path d="M542.93 433.572L544.212 433.893L540.046 411.445L538.123 401.022L533.315 401.824L534.437 407.436L538.999 432.4L542.93 433.572Z" fill="#0986E2"/>
<path d="M548.378 435.176L547.096 434.695L544.212 433.893L540.366 413.209L541.648 413.048L544.212 412.567L548.378 435.176Z" fill="#F87728"/>
<path d="M526.425 412.888C527.31 412.888 528.028 412.17 528.028 411.285C528.028 410.399 527.31 409.681 526.425 409.681C525.54 409.681 524.823 410.399 524.823 411.285C524.823 412.17 525.54 412.888 526.425 412.888Z" fill="#9BCEFD"/>
<path d="M536.52 406.474C536.963 406.474 537.321 406.115 537.321 405.672C537.321 405.23 536.963 404.871 536.52 404.871C536.078 404.871 535.719 405.23 535.719 405.672C535.719 406.115 536.078 406.474 536.52 406.474Z" fill="#0265CD"/>
<path d="M400.628 276.916V295.836H399.026V276.274L400.628 276.916Z" fill="#0265CD"/>
<path d="M541.328 432.129C541.77 432.129 542.129 431.77 542.129 431.328C542.129 430.885 541.77 430.526 541.328 430.526C540.885 430.526 540.526 430.885 540.526 431.328C540.526 431.77 540.885 432.129 541.328 432.129Z" fill="#0265CD"/>
<path opacity="0.27" d="M593.89 448.645L519.213 426.517L508.477 319.567L523.22 356.767C523.22 356.767 548.86 392.043 561.68 417.698C568.731 431.969 582.833 442.231 593.89 448.645Z" fill="#FFEAC9"/>
<path d="M402.23 303.853H397.423V296.638C397.423 295.355 398.544 294.233 399.826 294.233C401.108 294.233 402.23 295.355 402.23 296.638V303.853Z" fill="#0986E2"/>
<path d="M412.647 313.474C407.839 313.474 406.878 313.474 399.827 313.474C392.776 313.474 393.417 313.474 387.007 313.474C387.007 306.419 392.776 300.646 399.827 300.646C406.878 300.646 412.647 306.419 412.647 313.474Z" fill="#FFB78F"/>
</g>
<defs>
<clipPath id="clip0">
<rect width="766" height="465" fill="white"/>
</clipPath>
</defs>
</svg>
