<svg width="165" height="165" viewBox="0 0 165 165" fill="none" xmlns="http://www.w3.org/2000/svg">
<path d="M142.757 108.932V14.2666L119.785 1L96.8125 14.2481V108.932L119.781 122.197L142.757 108.932Z" fill="#0986E2"/>
<path d="M96.8125 14.2481L119.818 27.5141L142.757 14.2666L119.785 1L96.8125 14.2481Z" fill="#6DBBFA"/>
<path d="M119.818 27.5142L119.781 122.197L96.8125 108.932V14.2482L119.818 27.5142Z" fill="#0265CD"/>
<path d="M105.85 130.252V84.2873L82.8783 71.0206L59.9062 84.2687V130.252L82.8745 143.517L105.85 130.252Z" fill="#FFB78F"/>
<path d="M59.9062 84.2687L82.9116 97.5347L105.85 84.2873L82.8783 71.0206L59.9062 84.2687Z" fill="#FFEAC9"/>
<path d="M82.9116 97.5346L82.8745 143.517L59.9062 130.252V84.2686L82.9116 97.5346Z" fill="#F87728"/>
<path d="M68.9442 151.572V72.6203L45.9721 59.3536L23 72.6017V151.572L45.9686 164.837L68.9442 151.572Z" fill="#9BCEFD"/>
<path d="M23 72.6017L46.0054 85.8677L68.9442 72.6203L45.9721 59.3536L23 72.6017Z" fill="#CBE9FF"/>
<path d="M46.0054 85.8676L45.9686 164.837L23 151.572V72.6016L46.0054 85.8676Z" fill="#6DBBFA"/>
</svg>
