<svg width="403" height="331" viewBox="0 0 403 331" fill="none" xmlns="http://www.w3.org/2000/svg">
<path d="M402.9 313.7C401.9 320.8 394 328.8 385.8 330.3C384.3 330.6 382.8 330.7 381.3 330.5C374 329.6 310.2 330 279.1 330.3C278.2 330.3 277.3 330.3 276.5 330.3C275.6 330.3 274.8 330.3 274 330.3C273.1 330.3 272.3 330.3 271.4 330.3C265.6 330.3 262.2 330.4 262.2 330.4L261 329.2C261 329.2 277.8 329.2 287.4 323.2C287.4 323.2 285 326.8 287.4 326.8C289.8 326.8 301.8 320.8 305.4 322C305.4 322 294.6 325.6 294.6 328C295.8 328 303 328 309 324.4C309 324.4 315 323.2 312.6 326.8C312.6 326.8 328.2 325.6 335.4 322C342.6 318.4 342.6 320.8 345 319.6C347.4 318.4 360.6 306.4 372.7 304C384.8 301.6 390.7 306.4 389.5 311.2C389.5 311.2 397.8 307.8 401.3 309.8C401.6 310 401.9 310.2 402.1 310.5C402.9 311.2 403.1 312.2 402.9 313.7Z" fill="#CBE9FF"/>
<path fill-rule="evenodd" clip-rule="evenodd" d="M254.67 248.43C254.764 248.689 254.63 248.976 254.37 249.07C245.162 252.401 238.5 261.317 238.5 271.7C238.5 271.976 238.276 272.2 238 272.2C237.724 272.2 237.5 271.976 237.5 271.7C237.5 260.882 244.438 251.599 254.03 248.13C254.29 248.036 254.576 248.17 254.67 248.43Z" fill="#CBE9FF"/>
<path fill-rule="evenodd" clip-rule="evenodd" d="M283.686 260.048C283.936 259.93 284.234 260.036 284.353 260.286C287.21 266.307 287.618 273.449 285.067 280.08L285.066 280.084L285.066 280.084C283.536 283.96 281.088 287.327 278.127 289.879C277.918 290.059 277.602 290.036 277.422 289.827C277.242 289.617 277.265 289.302 277.474 289.121C280.313 286.674 282.665 283.441 284.135 279.719C286.584 273.349 286.191 266.493 283.449 260.714C283.331 260.465 283.437 260.167 283.686 260.048Z" fill="#CBE9FF"/>
<path d="M191.999 137.2C191.999 137.2 131.999 170.2 127.999 176.2C123.999 182.2 127.999 190.2 130.999 192.2C133.999 194.2 172.999 240.2 172.999 240.2L160.999 194.2L151.999 186.2L203.999 169.2L191.999 137.2Z" fill="#F87728"/>
<path fill-rule="evenodd" clip-rule="evenodd" d="M58 221.2C29.8335 221.2 7 244.034 7 272.2C7 300.367 29.8335 323.2 58 323.2C86.1665 323.2 109 300.367 109 272.2C109 244.034 86.1665 221.2 58 221.2ZM0 272.2C0 240.168 25.9675 214.2 58 214.2C90.0325 214.2 116 240.168 116 272.2C116 304.233 90.0325 330.2 58 330.2C25.9675 330.2 0 304.233 0 272.2Z" fill="#0E1343"/>
<path fill-rule="evenodd" clip-rule="evenodd" d="M262 221.2C233.833 221.2 211 244.034 211 272.2C211 300.367 233.833 323.2 262 323.2C290.167 323.2 313 300.367 313 272.2C313 244.034 290.167 221.2 262 221.2ZM204 272.2C204 240.168 229.967 214.2 262 214.2C294.033 214.2 320 240.168 320 272.2C320 304.233 294.033 330.2 262 330.2C229.967 330.2 204 304.233 204 272.2Z" fill="#0E1343"/>
<path fill-rule="evenodd" clip-rule="evenodd" d="M58 267.2C55.2386 267.2 53 269.439 53 272.2C53 274.962 55.2386 277.2 58 277.2C60.7614 277.2 63 274.962 63 272.2C63 269.439 60.7614 267.2 58 267.2ZM50 272.2C50 267.782 53.5817 264.2 58 264.2C62.4183 264.2 66 267.782 66 272.2C66 276.618 62.4183 280.2 58 280.2C53.5817 280.2 50 276.618 50 272.2Z" fill="#0E1343"/>
<path fill-rule="evenodd" clip-rule="evenodd" d="M262 267.2C259.239 267.2 257 269.439 257 272.2C257 274.962 259.239 277.2 262 277.2C264.761 277.2 267 274.962 267 272.2C267 269.439 264.761 267.2 262 267.2ZM254 272.2C254 267.782 257.582 264.2 262 264.2C266.418 264.2 270 267.782 270 272.2C270 276.618 266.418 280.2 262 280.2C257.582 280.2 254 276.618 254 272.2Z" fill="#0E1343"/>
<path d="M260.098 269.6L259.898 273.6L259.798 275.8L196.398 273L196.498 270.8L196.698 266.8L260.098 269.6Z" fill="#0265CD"/>
<path d="M58 277.7C61.0376 277.7 63.5 275.238 63.5 272.2C63.5 269.163 61.0376 266.7 58 266.7C54.9624 266.7 52.5 269.163 52.5 272.2C52.5 275.238 54.9624 277.7 58 277.7Z" fill="#0265CD"/>
<path d="M176.799 263L173.399 267.9L87.2992 209.5L82.6992 206.4L84.4992 202.1L84.9992 200.8L86.8992 202.1L89.5992 203.9L176.799 263Z" fill="#0265CD"/>
<path d="M259.898 273.6L259.798 275.8L196.398 273L196.498 270.8L259.898 273.6Z" fill="#005CAF"/>
<path d="M258.782 270.871L263.395 267.521L212.332 197.202L207.72 200.551L258.782 270.871Z" fill="#0265CD"/>
<path d="M209.9 197.4L209.8 200.7V201.7L209.7 204.2L90.3 202.2L86.9 202.1H84.9H84.5L85 200.8L85.8 198.8L87.3 195.3L93.1 195.4L209.9 197.4Z" fill="#0265CD"/>
<path d="M262 277.7C265.038 277.7 267.5 275.238 267.5 272.2C267.5 269.163 265.038 266.7 262 266.7C258.962 266.7 256.5 269.163 256.5 272.2C256.5 275.238 258.962 277.7 262 277.7Z" fill="#0265CD"/>
<path d="M185.5 282.2C192.404 282.2 198 276.604 198 269.7C198 262.797 192.404 257.2 185.5 257.2C178.596 257.2 173 262.797 173 269.7C173 276.604 178.596 282.2 185.5 282.2Z" fill="#0265CD"/>
<path fill-rule="evenodd" clip-rule="evenodd" d="M186 266.2C183.791 266.2 182 267.991 182 270.2C182 272.409 183.791 274.2 186 274.2C188.209 274.2 190 272.409 190 270.2C190 267.991 188.209 266.2 186 266.2ZM179 270.2C179 266.334 182.134 263.2 186 263.2C189.866 263.2 193 266.334 193 270.2C193 274.066 189.866 277.2 186 277.2C182.134 277.2 179 274.066 179 270.2Z" fill="#0E1343"/>
<path d="M139.301 92.5996C139.301 92.5996 144.701 94.7996 149.501 101.2L155.101 91.9996L146.301 83.5996L139.301 92.5996Z" fill="#FFEAC9"/>
<path d="M187.5 271.7H185.5V290.7H187.5V271.7Z" fill="#0E1343"/>
<path d="M194.5 290.7H179.5V293.7H194.5V290.7Z" fill="#0E1343"/>
<path fill-rule="evenodd" clip-rule="evenodd" d="M114.402 83.21C114.673 83.1558 114.936 83.3315 114.99 83.6022L114.5 83.7003L114.01 83.7983C113.956 83.5276 114.131 83.2642 114.402 83.21ZM114.99 83.6022L114.991 83.607L114.994 83.6224L115.007 83.6843C115.018 83.739 115.035 83.8199 115.057 83.9243C115.102 84.133 115.168 84.4351 115.253 84.8074C115.424 85.5521 115.672 86.5757 115.982 87.6915C116.608 89.9466 117.466 92.4979 118.416 93.9229C118.569 94.1527 118.507 94.4631 118.277 94.6163C118.048 94.7695 117.737 94.7074 117.584 94.4776C116.534 92.9027 115.642 90.204 115.018 87.9591C114.703 86.8249 114.451 85.786 114.278 85.0307C114.192 84.6529 114.125 84.3457 114.079 84.1326C114.057 84.026 114.039 83.9429 114.028 83.8862L114.014 83.8214L114.011 83.8045L114.01 83.7983C114.01 83.7982 114.01 83.7983 114.5 83.7003" fill="#0E1343"/>
<path d="M135.999 85.2C135.999 85.2 139.899 84.8 142.999 86.2C148.899 88.8 156.599 93.9 162.999 91.8C171.699 88.9 216.799 73.7 236.499 72.9C237.099 72.9 237.199 72 236.599 71.9L227.099 69.6C226.099 68.9 226.399 67.3 227.699 67.1C232.899 66.5 242.899 68.8 244.899 66.2L244.999 57.3C244.999 55.9 244.999 54.5 244.899 53.1L242.799 19.5C242.799 19.5 214.199 28.4 201.099 33.8C200.799 33.9 200.499 33.5 200.799 33.3C208.699 28.4 228.899 16.4 242.099 15V8.5C242.099 8.5 211.999 11.4 183.799 37.6C163.999 56.2 151.499 72.9 138.599 63C131.299 57.3 112.099 64.8 111.399 79.7C111.399 79.7 110.599 83.6 118.199 91.6C120.199 93.7 123.399 93.9 125.699 92.3L133.999 86.3L135.999 85.2Z" fill="#0E1343"/>
<path d="M119.5 86.1002C119.5 86.1002 128.3 106.3 135.7 102.1C146.6 95.9002 143.7 86.8002 143.7 86.8002L141.7 85.8002C141.7 85.8002 143.9 80.4002 140.9 76.4002C137.9 72.4002 133.7 76.8002 135.1 82.0002C136.5 87.2002 120.4 89.8002 119.5 86.1002Z" fill="#FFEAC9"/>
<path fill-rule="evenodd" clip-rule="evenodd" d="M240.472 0.0550994C240.718 -0.0708039 241.019 0.0263674 241.145 0.272138C241.271 0.517908 241.174 0.819209 240.928 0.945112L240.7 0.500106L240.472 0.0550994ZM146.5 69.7001C146.276 69.2529 146.277 69.2529 146.277 69.2528L146.281 69.2507L146.294 69.2439L146.348 69.2168C146.396 69.1928 146.467 69.157 146.56 69.11C146.746 69.0159 147.019 68.8771 147.367 68.6983C148.064 68.3406 149.062 67.8229 150.266 67.1835C152.674 65.9045 155.904 64.1395 159.196 62.1946C162.489 60.2484 165.833 58.1281 168.474 56.1383C169.795 55.1431 170.93 54.1879 171.792 53.31C172.664 52.4218 173.215 51.654 173.427 51.0371C173.957 49.5009 175.468 47.1555 177.578 44.4256C179.702 41.6775 182.473 38.489 185.577 35.254C191.776 28.7919 199.337 22.1041 205.746 18.3694C208.864 16.5092 217.553 11.9272 225.444 7.8191C229.395 5.76243 233.152 3.82146 235.921 2.3947C237.306 1.6813 238.443 1.09643 239.235 0.689903C239.631 0.486637 239.94 0.327953 240.15 0.220077L240.471 0.0557728L240.472 0.0550994C240.472 0.0549866 240.472 0.0550994 240.7 0.500106C240.928 0.945112 240.928 0.945002 240.928 0.945112L240.607 1.10987C240.396 1.21767 240.087 1.37627 239.692 1.57945C238.901 1.98581 237.763 2.57047 236.379 3.28364C233.611 4.71 229.855 6.65028 225.906 8.70611C217.999 12.822 209.341 17.3888 206.256 19.2295L206.252 19.2321C199.961 22.8977 192.474 29.5091 186.298 35.9462C183.214 39.1612 180.467 42.3227 178.369 45.0371C176.257 47.7697 174.843 49.9993 174.373 51.3631C174.085 52.1962 173.405 53.094 172.505 54.0106C171.595 54.9373 170.418 55.9259 169.076 56.9369C166.392 58.9596 163.011 61.1018 159.704 63.0556C156.396 65.0107 153.151 66.7832 150.735 68.0667C149.526 68.7085 148.524 69.2284 147.824 69.5879C147.474 69.7676 147.199 69.9073 147.012 70.0022C146.918 70.0496 146.846 70.0858 146.798 70.1102L146.743 70.1378L146.725 70.1467L146.724 70.1471C146.724 70.1473 146.724 70.1473 146.5 69.7001ZM146.5 69.7001L146.277 69.2528C146.03 69.3763 145.929 69.6767 146.053 69.9237C146.176 70.1707 146.477 70.2706 146.724 70.1471L146.5 69.7001Z" fill="#0E1343"/>
<path fill-rule="evenodd" clip-rule="evenodd" d="M157.372 84.8947C157.372 84.8948 157.372 84.8948 157.301 84.3999C157.23 83.9049 157.23 83.9049 157.231 83.9048L157.422 83.8777C157.549 83.8599 157.737 83.8337 157.983 83.7998C158.474 83.732 159.196 83.6336 160.119 83.5112C161.965 83.2665 164.618 82.9256 167.843 82.5409C174.293 81.7716 183.035 80.827 192.2 80.1263C201.364 79.4258 210.961 78.9682 219.118 79.175C223.197 79.2785 226.925 79.5482 230.065 80.0395C233.193 80.529 235.782 81.2451 237.551 82.2669C237.79 82.4051 237.872 82.7109 237.734 82.95C237.596 83.1891 237.29 83.2709 237.051 83.1328C235.444 82.2046 233.002 81.5113 229.91 81.0274C226.829 80.5453 223.147 80.2775 219.093 80.1747C210.985 79.9691 201.426 80.4239 192.276 81.1234C183.129 81.8227 174.403 82.7656 167.962 83.5338C164.741 83.9179 162.093 84.2583 160.25 84.5026C159.329 84.6247 158.609 84.7228 158.119 84.7904C157.875 84.8242 157.687 84.8503 157.562 84.868L157.372 84.8947ZM156.806 84.4706C156.767 84.1972 156.958 83.9438 157.231 83.9048L157.301 84.3999L157.372 84.8947C157.099 84.9338 156.845 84.7439 156.806 84.4706Z" fill="#0E1343"/>
<path d="M151.399 70.3003C151.799 70.8003 151.399 71.6003 150.699 71.5003C148.299 71.4003 144.099 71.1003 143.099 71.0003C141.699 70.8003 137.699 73.8003 126.499 82.1003C121.299 85.9003 117.499 87.2003 114.799 87.5003C114.699 87.5003 114.599 87.5003 114.499 87.5003C111.999 87.7003 109.799 85.9003 109.399 83.4003C109.099 81.6003 108.899 79.3003 108.999 76.7003C109.199 73.0003 110.199 68.8003 112.899 65.2003C113.299 64.7003 113.699 64.2003 114.199 63.7003C120.799 56.8003 126.299 54.6003 128.399 54.0003C128.899 53.8003 129.499 54.1003 129.799 54.6003C130.599 56.1003 130.599 57.5003 130.399 58.6003C130.299 59.1003 130.899 59.4003 131.199 59.1003C133.199 57.1003 134.899 54.4003 135.599 53.3003C135.799 52.9003 136.199 52.7003 136.599 52.7003C137.899 52.5003 140.799 52.3003 142.299 53.0003C143.299 53.5003 143.999 54.4003 144.499 55.3003C144.999 56.2003 145.299 57.0003 145.299 57.0003C145.299 57.0003 146.499 57.2003 147.799 58.0003C148.499 58.4003 149.299 59.0003 149.899 59.8003C150.699 60.8003 150.699 62.4003 150.499 63.8003C150.399 64.4003 150.299 64.9003 150.199 65.4003C149.899 66.6003 149.499 67.6003 149.499 67.6003L151.399 70.3003Z" fill="#0986E2"/>
<path fill-rule="evenodd" clip-rule="evenodd" d="M57 232.2C57 231.924 57.2239 231.7 57.5 231.7C69.1456 231.7 79.5769 236.663 86.8674 244.561C87.0547 244.764 87.0421 245.08 86.8391 245.268C86.6362 245.455 86.3199 245.442 86.1326 245.239C79.0231 237.537 68.8544 232.7 57.5 232.7C57.2239 232.7 57 232.476 57 232.2Z" fill="#CBE9FF"/>
<path d="M118.4 79.5002C118.4 79.5002 114.5 67.5002 124.9 59.7002L118.4 79.5002Z" fill="#0E1343"/>
<path d="M192.695 275.578L187.98 277.244L190.313 283.844L195.027 282.178L192.695 275.578Z" fill="#FFEAC9"/>
<path d="M176 290.5C178.5 289.6 189.6 285.5 190.5 283.7L195.5 281.7C195.5 281.7 198.5 285.7 198.5 288.7C198.5 291.7 193.5 291.7 193.5 291.7L176.2 292.6C175.5 292.6 174.9 291.9 175.3 291.2C175.4 290.9 175.7 290.7 176 290.5Z" fill="#0E1343"/>
<path d="M209.798 201.7L209.698 204.2L90.2984 202.2L86.8984 202.1H84.8984L84.9984 201.8L85.7984 199.8L209.798 201.7Z" fill="#005CAF"/>
<path d="M125.301 76.2002C125.301 76.2002 126.701 66.4002 135.401 61.2002C135.301 61.3002 133.101 71.7002 125.301 76.2002Z" fill="#0E1343"/>
<path d="M127.898 78.0002C127.898 78.0002 139.898 69.1002 141.198 65.7002C141.098 65.7002 141.298 74.3002 127.898 78.0002Z" fill="#0E1343"/>
<path d="M115.5 64.7999C111.1 70.5999 111 79.1999 111 79.1999C111 79.1999 109.8 77.7999 109 76.7999C109.2 73.0999 110.2 68.8999 112.9 65.2999C114.4 64.7999 116 64.1999 115.5 64.7999Z" fill="#0E1343"/>
<path d="M224.398 169.5L220.998 179.5L193.598 261.1L187.898 259.2L214.798 178.7L218.598 167.5L224.398 169.5Z" fill="#0265CD"/>
<path d="M107.901 159.4L104.001 168.7L93.1008 195.4L90.3008 202.2L89.6008 203.9L87.3008 209.5L62.3008 270.6L57.3008 268.5L82.7008 206.4L84.5008 202.1L85.0008 200.8L87.3008 195.3L99.0008 166.6L102.801 157.3L107.901 159.4Z" fill="#0265CD"/>
<path d="M107.902 159.4L104.102 168.8C102.902 167.2 101.002 166.7 99.1016 166.7L102.902 157.4L107.902 159.4Z" fill="#005CAF"/>
<path d="M224.401 169.5L221.001 179.5C218.701 178.8 216.601 178.6 214.801 178.7L218.601 167.5L224.401 169.5Z" fill="#005CAF"/>
<path d="M97.0015 178.2C97.0015 178.2 95.0015 187.2 107.002 184.2C119.002 181.2 115.502 160.7 114.502 158.7C113.502 156.7 111.502 151.7 90.5015 152.7H80.3015C78.7015 152.7 77.4015 154.1 77.5015 155.7C77.6015 158 78.2015 160.7 80.6015 160.7C84.6015 160.7 105.602 160.7 105.602 160.7C105.602 160.7 109.602 172.7 105.602 174.7C101.602 176.7 97.5015 174.7 97.0015 178.2Z" fill="#0E1343"/>
<path d="M147.799 57.9998C146.699 58.9998 144.799 60.5998 141.699 62.1998C141.799 61.8998 143.899 58.2998 144.499 55.2998C144.999 56.1998 145.299 56.9998 145.299 56.9998C145.299 56.9998 146.499 57.1998 147.799 57.9998Z" fill="#0265CD"/>
<path d="M105 164.2C101.9 163.4 101.2 156.3 103 153.2C104.8 150.1 110.6 154 114.6 153.7C118.6 153.4 127.5 151.8 132.4 149.5C137.3 147.2 147.6 137.5 147.6 137.5L147.9 96.4004L160.5 105.6C160.5 105.6 161.8 140.6 159 143.8C156.2 147 124.9 159.1 122 160.3C120.1 161.1 117.6 163.9 115.7 165.7C115 164.3 114.8 162.9 115 162.3C115 160.3 114.3 157.5 111 156.3C106.9 155.6 105.9 158.3 106 160.3C106.1 162.3 107 165.2 105 164.2Z" fill="#FFEAC9"/>
<path d="M146.798 117.3L161.198 120.8C162.098 121 162.898 120.4 162.998 119.5L164.898 103.4L151.098 94.5996C151.098 94.5996 146.198 96.0996 145.398 115.4C145.398 116.3 145.998 117.1 146.798 117.3Z" fill="#F87728"/>
<path d="M225.8 121.8C220.2 131 193.5 148.7 193.5 148.7C193.5 148.7 182.5 129 181.9 128.2C181.3 127.4 175.3 124.4 170.1 120.8C167.3 118.8 162.7 116 158.4 112.8C154.7 110.1 151.2 107.1 149 104.1C146.6 100.9 146.4 98.5998 147.2 96.6998C147.5 95.8998 148.1 95.1998 148.7 94.5998C149.5 93.6998 150.5 92.9998 151.5 92.2998C154.7 89.8998 180 89.2998 180 89.2998C180 89.3998 190.3 90.8998 190.3 90.8998L204.1 99.0998C204.1 98.9998 231.4 112.6 225.8 121.8Z" fill="#FFB78F"/>
<path d="M214.5 151.6C214.5 151.6 244.5 148.4 247.5 149.5C250.5 150.6 248.5 167.6 231.5 169.8C214.5 171.9 206.5 164.5 206.5 164.5L214.5 151.6Z" fill="#0E1343"/>
<path d="M201 184.2L173 204.2C173 204.2 178.1 216.6 183.3 231.8C188.6 247.4 194 266.1 194 277.2L188 280.2L149 203.2C149 203.2 169 162.2 189 148.2C209 134.2 231 126.2 231 126.2C231 126.2 233 128.3 234.5 132.2C238 141.3 238.3 160.3 201 184.2Z" fill="#FC8946"/>
<path d="M201 184.2L173 204.2C173 204.2 178.1 216.6 183.3 231.8C178.8 225.3 171.7 214.6 169 209.2C165 201.2 172 195.2 182 188.2C190.8 182 224.7 159.4 234.5 132.2C238 141.3 238.3 160.3 201 184.2Z" fill="#F87728"/>
<path d="M284.999 134.9C281.499 142.4 276.399 149.6 269.199 155C263.799 159 256.599 159.8 250.299 157.2C239.899 152.9 222.199 143.7 205.699 126.8L223.699 77.2998C223.699 77.2998 240.599 79.0998 254.099 81.5998C260.099 82.6998 265.399 83.9998 268.199 85.2998C277.599 89.5998 291.199 94.3998 291.899 103.8C292.499 108.9 290.999 122.1 284.999 134.9Z" fill="#0265CD"/>
<path d="M285.002 134.9C277.902 138 264.602 140.5 247.602 128.6C230.602 116.7 243.402 95 254.202 81.5C260.202 82.6 265.502 83.9 268.302 85.2C277.702 89.5 291.302 94.3 292.002 103.7C292.502 108.9 291.002 122.1 285.002 134.9Z" fill="#0986E2"/>
<path d="M205.102 121.6C205.102 121.6 218.402 109.3 240.702 127.6L248.702 136.6C248.702 136.6 276.802 105.7 273.902 86.6996C271.002 67.6996 223.102 77.0996 223.102 77.0996L205.102 121.6Z" fill="#55B7F3"/>
<path d="M263 102.2C264.105 102.2 265 101.305 265 100.2C265 99.0956 264.105 98.2002 263 98.2002C261.895 98.2002 261 99.0956 261 100.2C261 101.305 261.895 102.2 263 102.2Z" fill="white"/>
<path fill-rule="evenodd" clip-rule="evenodd" d="M263 98.7002C262.172 98.7002 261.5 99.3718 261.5 100.2C261.5 101.029 262.172 101.7 263 101.7C263.828 101.7 264.5 101.029 264.5 100.2C264.5 99.3718 263.828 98.7002 263 98.7002ZM260.5 100.2C260.5 98.8195 261.619 97.7002 263 97.7002C264.381 97.7002 265.5 98.8195 265.5 100.2C265.5 101.581 264.381 102.7 263 102.7C261.619 102.7 260.5 101.581 260.5 100.2Z" fill="#F2F2F2"/>
<path d="M263 102.2C264.105 102.2 265 101.305 265 100.2C265 99.0956 264.105 98.2002 263 98.2002C261.895 98.2002 261 99.0956 261 100.2C261 101.305 261.895 102.2 263 102.2Z" fill="#0E1343"/>
<path d="M151.501 97.2002C151.501 97.2002 146.401 110.2 175.001 105.2C203.601 100.1 206.101 94.6002 214.601 95.8002C224.401 97.2002 245.301 106 248.201 110.1C251.201 114.1 256.501 131.3 255.701 131.9C254.901 132.5 261.901 133.5 258.901 124.5C258.901 124.5 261.901 128.5 264.501 125.3C267.101 122.1 263.701 120.9 265.501 118.3C267.301 115.7 267.701 112.9 263.701 110.9C259.701 108.9 254.501 105.3 251.901 103.4C249.901 102 228.801 89.4002 221.201 84.5002C218.601 82.8002 215.501 82.0002 212.401 82.3002L185.001 87.2002L151.501 97.2002Z" fill="#FFEAC9"/>
<path d="M231.899 152.7C231.899 152.7 231.399 136.9 214.599 129.4C197.799 121.9 168.099 115.4 168.099 115.4C168.099 115.4 151.599 110.2 151.799 102C151.799 102 164.299 112 169.899 112.9C175.499 113.7 202.699 118.5 202.699 118.5C202.699 118.5 223.699 121.6 230.999 129.8C238.299 138 239.299 151 231.899 152.7Z" fill="#55B7F3"/>
<path d="M178.2 109.6L167.1 110C162.1 110.2 157.2 109.2 152.8 106.9C151.3 106.2 150 105.3 149 104C146.6 100.8 146.4 98.4996 147.2 96.5996L148.7 94.4996C149.5 93.5996 150.5 92.8996 151.5 92.1996C154.2 90.1996 172.7 87.9996 178.4 87.2996C179.3 87.1996 180.2 87.8996 180.2 88.7996C180.4 93.5996 181 106.5 181 106.5C181.1 108.2 179.8 109.5 178.2 109.6Z" fill="#FC8946"/>
<path d="M213.301 129.7L216.401 120.2C216.601 119.6 217.301 119.3 217.901 119.6C218.401 119.8 218.601 120.4 218.501 120.9L215.401 130.4C215.201 131 214.501 131.3 213.901 131C213.401 130.8 213.101 130.3 213.301 129.7Z" fill="#0E1343"/>
<path d="M310.301 318.1C310.301 318.1 313.201 313.6 314.601 314.4C316.001 315.2 314.601 316 314.701 316.9C313.101 319.7 310.301 318.1 310.301 318.1Z" fill="#CBE9FF"/>
<path d="M318 315.2C318 315.2 319.3 313.9 319.3 312.7C319.3 312.7 319.3 311.4 320.6 311.4C321.8 311.5 320.5 315.2 318 315.2Z" fill="#CBE9FF"/>
<path fill-rule="evenodd" clip-rule="evenodd" d="M261 232.2C261 231.924 261.224 231.7 261.5 231.7C272.233 231.7 281.856 235.853 289.046 242.739C289.245 242.93 289.252 243.247 289.061 243.446C288.87 243.645 288.554 243.652 288.354 243.461C281.344 236.747 271.967 232.7 261.5 232.7C261.224 232.7 261 232.476 261 232.2Z" fill="#CBE9FF"/>
<path fill-rule="evenodd" clip-rule="evenodd" d="M292.318 296.413C292.532 296.588 292.563 296.903 292.389 297.116C285.097 306.029 273.956 311.7 261.502 311.7C250.261 311.7 240.033 307.041 232.743 299.549C232.551 299.351 232.555 299.034 232.753 298.841C232.951 298.649 233.267 298.653 233.46 298.851C240.57 306.158 250.542 310.7 261.502 310.7C273.647 310.7 284.506 305.171 291.615 296.483C291.789 296.269 292.104 296.238 292.318 296.413Z" fill="#CBE9FF"/>
<path fill-rule="evenodd" clip-rule="evenodd" d="M29.5498 243.843C29.7471 244.036 29.7505 244.353 29.5573 244.55C24.9158 249.29 21.4618 255.213 19.7846 261.823L19.7815 261.836L19.7813 261.836C18.8955 264.985 18.5 268.239 18.5 271.7C18.5 271.976 18.2761 272.2 18 272.2C17.7239 272.2 17.5 271.976 17.5 271.7C17.5 268.164 17.904 264.819 18.8169 261.571C20.5403 254.784 24.0857 248.709 28.8427 243.85C29.0359 243.653 29.3525 243.65 29.5498 243.843Z" fill="#CBE9FF"/>
<path fill-rule="evenodd" clip-rule="evenodd" d="M78.3287 305.243C78.4708 305.48 78.394 305.787 78.1572 305.929C72.0844 309.573 65.0961 311.7 57.5 311.7C57.2239 311.7 57 311.476 57 311.2C57 310.924 57.2239 310.7 57.5 310.7C64.9039 310.7 71.7156 308.628 77.6428 305.071C77.8795 304.929 78.1867 305.006 78.3287 305.243Z" fill="#CBE9FF"/>
<path fill-rule="evenodd" clip-rule="evenodd" d="M31.1444 279.825C31.4066 279.739 31.6893 279.881 31.7758 280.143C34.7214 289.078 42.2838 296.05 51.6088 298.112C51.8785 298.171 52.0487 298.438 51.9891 298.708C51.9295 298.978 51.6626 299.148 51.393 299.088C41.7181 296.95 33.8804 289.721 30.8261 280.456C30.7396 280.194 30.8821 279.912 31.1444 279.825Z" fill="#CBE9FF"/>
<path fill-rule="evenodd" clip-rule="evenodd" d="M84.9993 271.2C85.2755 271.2 85.4993 271.424 85.4993 271.7C85.4993 282.494 79.3891 291.861 70.4309 296.543C70.1862 296.671 69.8841 296.577 69.7562 296.332C69.6283 296.087 69.723 295.785 69.9677 295.657C78.6095 291.14 84.4993 282.107 84.4993 271.7C84.4993 271.424 84.7232 271.2 84.9993 271.2Z" fill="#CBE9FF"/>
<path fill-rule="evenodd" clip-rule="evenodd" d="M57.5 244.7C51.4098 244.7 45.8161 246.664 41.3028 250.098C41.083 250.265 40.7693 250.223 40.6021 250.003C40.4349 249.783 40.4775 249.469 40.6973 249.302C45.384 245.736 51.1902 243.7 57.5 243.7C57.7762 243.7 58 243.924 58 244.2C58 244.476 57.7762 244.7 57.5 244.7Z" fill="#CBE9FF"/>
<path d="M402.898 313.7C401.898 320.8 393.998 328.8 385.798 330.3C384.398 330.5 382.898 330.6 381.298 330.5C373.998 330.1 310.198 330.1 279.098 330.3C278.198 330.3 277.298 330.3 276.498 330.3C275.598 330.3 274.798 330.3 273.998 330.3C273.098 330.3 272.298 330.3 271.398 330.3C274.498 329.8 278.098 329.4 281.898 329.1C292.898 328.3 342.798 328.1 367.598 326.6C369.398 326.5 370.698 324.1 372.898 324.1C373.898 324.1 374.998 326.1 376.098 326C378.398 325.7 379.998 325.4 380.898 325.1C387.198 322.8 402.298 319.2 401.398 309.7C401.698 309.9 401.998 310.1 402.198 310.4C402.898 311.2 403.098 312.2 402.898 313.7Z" fill="#C3E2F4"/>
<path d="M362.888 57.9865C361.274 57.3917 357.79 55.6924 355.411 51.784C353.457 48.5553 352.268 43.8822 353.542 37L334 43.7972C334 43.7972 334 66.9078 347.085 65.1236C347.255 65.1236 347.425 65.0386 347.594 65.0386L362.803 58.6662L362.888 57.9865Z" fill="#FC8946"/>
<path d="M362.887 57.9864C362.887 58.2413 362.802 58.4113 362.802 58.6661L347.593 65.0386C347.423 65.0386 347.253 65.1235 347.083 65.1235C348.867 61.0452 344.619 56.1172 344.619 56.1172L355.41 51.7839L361.612 49.3199C363.057 52.8035 363.142 55.9473 362.887 57.9864Z" fill="#FFB78F"/>
<path d="M338 199.647C338 199.647 349.211 193.107 352.014 180.962C354.816 168.817 358.553 193.107 358.553 193.107L355.19 199.647C355.19 199.647 349.211 204.318 338 199.647Z" fill="#FC8946"/>
<path d="M342.672 179.093C342.672 179.093 363.225 189.37 353.883 200.581C353.883 200.581 368.831 191.238 366.962 171.619C366.962 171.619 365.094 161.342 350.146 152C350.146 152 352.949 165.079 342.672 179.093Z" fill="#FFB78F"/>
</svg>
