<svg width="54" height="54" viewBox="0 0 54 54" fill="none" xmlns="http://www.w3.org/2000/svg">
<path d="M6.75 13.23C6.75 10.9618 6.75 9.82768 7.19142 8.96134C7.57971 8.19928 8.19928 7.57971 8.96134 7.19142C9.82768 6.75 10.9618 6.75 13.23 6.75H18.495C20.7632 6.75 21.8973 6.75 22.7637 7.19142C23.5257 7.57971 24.1453 8.19928 24.5336 8.96134C24.975 9.82768 24.975 10.9618 24.975 13.23V14.445C24.975 16.7132 24.975 17.8473 24.5336 18.7137C24.1453 19.4757 23.5257 20.0953 22.7637 20.4836C21.8973 20.925 20.7632 20.925 18.495 20.925H13.23C10.9618 20.925 9.82768 20.925 8.96134 20.4836C8.19928 20.0953 7.57971 19.4757 7.19142 18.7137C6.75 17.8473 6.75 16.7132 6.75 14.445V13.23Z" fill="#FFB78F"/>
<path d="M29.025 13.23C29.025 10.9618 29.025 9.82768 29.4664 8.96134C29.8547 8.19928 30.4743 7.57971 31.2363 7.19142C32.1027 6.75 33.2368 6.75 35.505 6.75H40.77C43.0382 6.75 44.1723 6.75 45.0387 7.19142C45.8007 7.57971 46.4203 8.19928 46.8086 8.96134C47.25 9.82768 47.25 10.9618 47.25 13.23V22.545C47.25 24.8132 47.25 25.9473 46.8086 26.8137C46.4203 27.5757 45.8007 28.1953 45.0387 28.5836C44.1723 29.025 43.0382 29.025 40.77 29.025H35.505C33.2368 29.025 32.1027 29.025 31.2363 28.5836C30.4743 28.1953 29.8547 27.5757 29.4664 26.8137C29.025 25.9473 29.025 24.8132 29.025 22.545V13.23Z" fill="#FFB78F"/>
<path d="M6.75 31.455C6.75 29.1868 6.75 28.0527 7.19142 27.1863C7.57971 26.4243 8.19928 25.8047 8.96134 25.4164C9.82768 24.975 10.9618 24.975 13.23 24.975H18.495C20.7632 24.975 21.8973 24.975 22.7637 25.4164C23.5257 25.8047 24.1453 26.4243 24.5336 27.1863C24.975 28.0527 24.975 29.1868 24.975 31.455V40.77C24.975 43.0382 24.975 44.1723 24.5336 45.0387C24.1453 45.8007 23.5257 46.4203 22.7637 46.8086C21.8973 47.25 20.7632 47.25 18.495 47.25H13.23C10.9618 47.25 9.82768 47.25 8.96134 46.8086C8.19928 46.4203 7.57971 45.8007 7.19142 45.0387C6.75 44.1723 6.75 43.0382 6.75 40.77V31.455Z" fill="#FFB78F"/>
<path d="M29.025 39.555C29.025 37.2868 29.025 36.1527 29.4664 35.2863C29.8547 34.5243 30.4743 33.9047 31.2363 33.5164C32.1027 33.075 33.2368 33.075 35.505 33.075H40.77C43.0382 33.075 44.1723 33.075 45.0387 33.5164C45.8007 33.9047 46.4203 34.5243 46.8086 35.2863C47.25 36.1527 47.25 37.2868 47.25 39.555V40.77C47.25 43.0382 47.25 44.1723 46.8086 45.0387C46.4203 45.8007 45.8007 46.4203 45.0387 46.8086C44.1723 47.25 43.0382 47.25 40.77 47.25H35.505C33.2368 47.25 32.1027 47.25 31.2363 46.8086C30.4743 46.4203 29.8547 45.8007 29.4664 45.0387C29.025 44.1723 29.025 43.0382 29.025 40.77V39.555Z" fill="#FFB78F"/>
</svg>
