<svg width="54" height="54" viewBox="0 0 54 54" fill="none" xmlns="http://www.w3.org/2000/svg">
<g clip-path="url(#clip0)">
<path d="M37.3149 31.4196C36.4123 31.4196 35.4281 30.9173 34.4718 29.9531C33.3456 28.8176 32.3556 27.1432 31.684 25.2382C31.0124 23.3332 30.7334 21.4082 30.8984 19.8175C31.0796 18.0706 31.7815 16.8962 32.8749 16.5107C33.9681 16.1252 35.2516 16.5996 36.4883 17.8467C37.6145 18.9821 38.6045 20.6566 39.2761 22.5615C39.9477 24.4664 40.2267 26.3915 40.0617 27.9822C39.8806 29.7291 39.1786 30.9035 38.0852 31.289C37.8373 31.3764 37.5797 31.4196 37.3149 31.4196ZM33.6424 17.5762C33.5117 17.5762 33.3878 17.5963 33.272 17.6371C32.0093 18.0823 31.5091 21.1503 32.8103 24.8411C33.4243 26.5827 34.3156 28.0995 35.3198 29.112C36.2003 29.9998 37.0632 30.3829 37.6881 30.1626C38.9508 29.7174 39.4508 26.6494 38.1496 22.9586C37.5356 21.217 36.6444 19.7002 35.6402 18.6877C34.923 17.9644 34.2171 17.5762 33.6424 17.5762Z" fill="#5DBFFB"/>
<path d="M10.7489 40.606L11.3155 40.0394C11.3902 39.9647 11.44 39.8687 11.4578 39.7647L11.8337 37.5823C11.8704 37.369 12.0375 37.2019 12.2508 37.1652L14.2375 36.823C14.4507 36.7863 14.6178 36.6192 14.6546 36.4059L14.9968 34.4192C15.0335 34.206 15.2005 34.0389 15.4139 34.0021L17.5964 33.6262C17.7005 33.6083 17.7964 33.5586 17.8711 33.4839L26.7817 24.5733C26.9814 24.3737 26.9814 24.0499 26.7817 23.8502L23.718 20.7865C23.5183 20.5868 23.1945 20.5868 22.9949 20.7865L6.96211 36.8192C6.86869 36.9126 6.81506 37.0385 6.81245 37.1706L6.75059 40.2963C6.74482 40.5865 6.98165 40.8234 7.27187 40.8176L10.3976 40.7557C10.5296 40.753 10.6555 40.6994 10.7489 40.606Z" fill="#5DBFFB"/>
<path d="M35.5006 12.0666C32.0043 8.57029 26.3357 8.57029 22.8395 12.0666C19.3432 15.5629 19.3432 21.2314 22.8395 24.7277C26.3358 28.2239 32.0044 28.2239 35.5006 24.7277C38.9969 21.2314 38.9969 15.5628 35.5006 12.0666ZM30.0745 17.4926C28.9843 16.4025 28.9843 14.635 30.0745 13.5448C31.1647 12.4547 32.9321 12.4547 34.0223 13.5448C35.1125 14.635 35.1125 16.4025 34.0223 17.4926C32.9321 18.5828 31.1647 18.5828 30.0745 17.4926Z" fill="#5DBFFB"/>
<path d="M47.1279 35.9676C47.3351 35.6231 47.2738 35.1807 46.9807 34.9056L38.8803 27.3017C38.5439 26.986 38.02 26.9862 37.6839 27.3022L34.3554 30.4314L34.355 29.2268C34.3548 28.8215 34.0262 28.4932 33.6209 28.4933L32.6555 28.4936C32.2502 28.4938 31.9219 28.8224 31.922 29.2276L31.9234 32.7178L29.5892 34.9123C29.2963 35.1876 29.2353 35.6299 29.4427 35.9743L29.7387 36.4654C30.0192 36.9311 30.6579 37.0191 31.054 36.6468L31.9238 35.829L31.9272 44.1206C31.9273 44.3606 32.122 44.5551 32.362 44.555L44.2153 44.5506C44.4553 44.5505 44.6499 44.3559 44.6498 44.1159L44.6464 35.8243L45.517 36.6415C45.9133 37.0135 46.5518 36.9251 46.8321 36.4593L47.1279 35.9676ZM38.2853 32.0931C37.5699 32.0931 36.9899 31.5131 36.9899 30.7976C36.9899 30.0822 37.5699 29.5022 38.2853 29.5022C39.0008 29.5022 39.5808 30.0822 39.5808 30.7976C39.5808 31.5131 39.0008 32.0931 38.2853 32.0931Z" fill="#5DBFFB"/>
<path d="M39.8768 37.4136H37.1376C36.7491 37.4136 36.4341 37.7286 36.4341 38.1172V44.5538H40.5804V38.1172C40.5803 37.7286 40.2654 37.4136 39.8768 37.4136Z" fill="white"/>
<path d="M38.3997 29.5084C38.2067 29.8392 37.9659 30.0645 37.688 30.1625C37.0632 30.3827 36.2002 29.9997 35.3197 29.1118C34.3155 28.0993 33.4242 26.5826 32.8103 24.841C31.509 21.1503 32.0092 18.0822 33.2719 17.637C33.3877 17.5961 33.5116 17.5761 33.6423 17.5761C33.727 17.5761 33.815 17.5855 33.9051 17.6022C33.9449 17.5668 33.9844 17.531 34.0226 17.4929C34.2952 17.2203 34.4988 16.9053 34.635 16.5692C34.0204 16.3404 33.4236 16.3171 32.8749 16.5106C31.7815 16.896 31.0795 18.0704 30.8984 19.8174C30.7334 21.4081 31.0124 23.3331 31.684 25.2381C32.3556 27.143 33.3457 28.8174 34.4718 29.9529C35.4281 30.9172 36.4123 31.4195 37.3149 31.4195C37.5796 31.4195 37.8373 31.3763 38.0852 31.2889C38.6283 31.0974 39.0747 30.7111 39.4088 30.1568C39.2037 29.7979 38.8329 29.5464 38.3997 29.5084Z" fill="#5DBFFB"/>
</g>
<defs>
<clipPath id="clip0">
<rect width="40.5" height="40.5" fill="white" transform="translate(6.75 6.75)"/>
</clipPath>
</defs>
</svg>
