<svg width="150" height="150" viewBox="0 0 150 150" fill="none" xmlns="http://www.w3.org/2000/svg">
<g clip-path="url(#clip0)">
<path d="M108.662 2.92747L108.66 2.9263C108.659 2.92542 108.658 2.92483 108.656 2.92396L104.354 0.44251L104.353 0.443682C103.44 -0.0994817 102.256 -0.1862 101.204 0.421124L43.2055 33.9069C41.0867 35.13 39.7812 37.3909 39.7812 39.8377V144.377C39.7812 145.635 40.4978 146.64 41.4767 147.143L41.4758 147.146L45.6093 149.533C45.6561 149.562 45.7036 149.589 45.7522 149.615L45.8258 149.658L45.8278 149.653C46.7129 150.104 47.8095 150.146 48.7924 149.579L106.791 116.092C108.91 114.869 110.216 112.609 110.216 110.162V5.6219C110.216 4.42483 109.568 3.45218 108.662 2.92747Z" fill="#F87728"/>
<path d="M48.7941 149.578L106.793 116.092C108.912 114.869 110.217 112.608 110.217 110.161V5.62168C110.217 3.22432 107.622 1.72608 105.546 2.92491L47.5473 36.4107C45.4285 37.6341 44.123 39.8949 44.123 42.3415V146.881C44.123 149.278 46.7182 150.777 48.7941 149.578Z" fill="#FFB78F"/>
<path d="M86.4587 5.29932L54.5488 23.7235V27.359L56.1227 26.4566L60.4501 28.9431V40.9703L62.0321 41.8835L93.8907 23.4845V9.62236L86.4587 5.29932Z" fill="#8392A5"/>
<path d="M62.0312 28.0477V41.8838L93.8896 23.4844V9.62231L62.0312 28.0477Z" fill="#C8CED6"/>
<path d="M93.8907 9.62236L86.4587 5.29932L54.5488 23.7232L62.0324 28.0478L93.8907 9.62236Z" fill="#A7AEB8"/>
<path d="M50.2773 52.2067L104.185 21.1731V105.287L50.2773 136.411V52.2067Z" fill="white"/>
<path d="M66.513 31.4807C66.9659 31.2197 67.5313 31.5467 67.5313 32.0693V45.9077C67.5313 46.8349 68.5339 47.415 69.3378 46.9533L86.9552 36.8327C87.8684 36.308 88.4315 35.3353 88.4315 34.2821V19.7681C88.4315 19.1848 88.7426 18.6455 89.248 18.354L89.2486 18.3537C89.7015 18.0924 90.2675 18.419 90.2675 18.942V34.6961C90.2675 36.1477 89.4932 37.4889 88.2361 38.2149L70.0119 48.7366C68.0936 49.8443 65.6953 48.4597 65.6953 46.2446V32.8961C65.6956 32.3119 66.0073 31.7722 66.513 31.4807Z" fill="#C8CED6"/>
<path d="M55.0352 63.1937L99.4258 37.3591V45.1714L55.0352 71.006V63.1937Z" fill="#A7AEB8"/>
<path d="M55.0352 81.1246L99.4258 55.2903V63.1026L55.0352 88.9372V81.1246Z" fill="#A7AEB8"/>
<path d="M55.0352 99.0557L99.4258 73.2212V81.0338L55.0352 106.868V99.0557Z" fill="#A7AEB8"/>
<path d="M55.0352 116.987L99.4258 91.1523V98.9649L55.0352 124.799V116.987Z" fill="#A7AEB8"/>
</g>
<defs>
<clipPath id="clip0">
<rect width="150" height="150" fill="white"/>
</clipPath>
</defs>
</svg>
