<svg width="124" height="124" viewBox="0 0 124 124" fill="none" xmlns="http://www.w3.org/2000/svg">
<path d="M108.752 5.55327L108.748 5.55138C108.707 5.52773 108.667 5.50218 108.625 5.48042L100.269 0.676398C98.8609 -0.271541 96.9688 -0.259243 94.8866 0.943183L33.9668 36.1144C29.6197 38.6242 26.0957 45.3573 26.0957 51.1537V112.072C26.0957 115.178 27.1089 117.384 28.7181 118.377L37.1115 123.174C37.4019 123.398 37.716 123.576 38.049 123.711L38.0509 123.712H38.0518C39.3546 124.234 40.9619 124.061 42.7026 123.056L103.621 87.884C107.968 85.3741 111.493 78.6411 111.493 72.8447V11.9268C111.493 8.74523 110.429 6.50972 108.752 5.55327Z" fill="#0986E2"/>
<path d="M103.621 5.97621L42.7027 41.1474C38.3556 43.6573 34.8315 50.3912 34.8315 56.1867V117.106C34.8315 122.901 38.3556 125.565 42.7027 123.055L103.621 87.884C107.969 85.3741 111.493 78.6411 111.493 72.8447V11.9268C111.493 6.13042 107.969 3.46635 103.621 5.97621Z" fill="#6DBBFA"/>
<path d="M103.621 5.97617L42.7025 41.1474C41.0431 42.1057 39.5039 43.6809 38.2343 45.5824C38.0829 45.8256 37.9354 46.0744 37.7935 46.327L63.8798 66.3075C69.3999 70.5344 78.3921 65.3425 83.9114 54.7421L109.319 5.94496C107.885 4.76713 105.863 4.68198 103.621 5.97617Z" fill="#CBE9FF"/>
<path d="M50.2356 76.0659C50.0852 75.9562 42.4847 71.5457 42.4506 71.5258H42.4497C41.4847 70.9762 40.2302 71.0301 38.8585 71.8219L25.6318 79.4622C22.5874 81.22 20.1201 85.9341 20.1201 89.9927C20.1201 92.2443 20.8798 93.8185 22.0756 94.4769C22.0756 94.4769 29.5721 98.8354 29.6373 98.8704L29.6411 98.8723C30.5957 99.3775 31.8208 99.3046 33.1585 98.5327L46.3852 90.8933C49.4286 89.1356 51.8969 84.4205 51.8969 80.3619C51.8969 78.3024 51.2602 76.8095 50.2356 76.0659Z" fill="#F87728"/>
<path d="M46.3853 90.8934L33.1586 98.5336C30.1143 100.29 27.647 98.4248 27.647 94.3663C27.647 90.3078 30.1143 85.5936 33.1586 83.8358L46.3853 76.1956C49.4288 74.4388 51.897 76.3044 51.897 80.3629C51.897 84.4214 49.4288 89.1356 46.3853 90.8934Z" fill="#FFB78F"/>
<path d="M52.3476 52.5907C52.1962 52.481 44.5966 48.0705 44.5626 48.0506H44.5616C43.5967 47.501 42.3422 47.5549 40.9704 48.3467L18.1054 61.5479C15.061 63.3056 12.5938 68.0198 12.5938 72.0783C12.5938 74.3299 13.3534 75.9051 14.5492 76.5626C14.5492 76.5626 22.0457 80.921 22.111 80.956L22.1148 80.9579C23.0693 81.4631 24.2954 81.3912 25.6322 80.6183L48.4972 67.4171C51.5406 65.6603 54.0088 60.9452 54.0088 56.8867C54.0079 54.8272 53.3722 53.3343 52.3476 52.5907Z" fill="#F87728"/>
<path d="M48.4968 67.4181L25.6318 80.6193C22.5874 82.377 20.1201 80.5114 20.1201 76.4529C20.1201 72.3944 22.5874 67.6793 25.6318 65.9215L48.4968 52.7204C51.5402 50.9636 54.0075 52.8282 54.0075 56.8877C54.0075 60.9462 51.5402 65.6604 48.4968 67.4181Z" fill="#FFB78F"/>
</svg>
