<svg width="108" height="108" viewBox="0 0 108 108" fill="none" xmlns="http://www.w3.org/2000/svg">
<g opacity="0.2">
<path d="M78.177 22.5H29.8501C25.8045 22.5 22.5 25.7774 22.5 29.823V78.1481C22.5 82.1991 25.8063 85.5 29.8501 85.5H78.177C82.2208 85.5 85.5 82.1991 85.5 78.1481V29.8248C85.5 25.7755 82.2208 22.5 78.177 22.5ZM77.1828 74.0898C76.7797 74.8346 76.0042 75.2757 75.1582 75.2757H33.7493C33.0208 75.2757 32.3357 74.9503 31.9018 74.3682C31.468 73.7825 31.336 73.0377 31.5457 72.3382L37.4695 52.7446C37.86 51.4557 38.9482 50.503 40.2787 50.2843C41.6091 50.0674 42.9468 50.6277 43.7278 51.725L52.0106 63.3611C53.126 64.9284 55.2862 65.3171 56.8715 64.2361L64.4982 59.057C65.2827 58.5238 66.2462 58.3303 67.1736 58.5165C68.1045 58.7009 68.9198 59.2541 69.4386 60.0495L77.0834 71.7489C77.5461 72.4593 77.5841 73.3487 77.1828 74.0898Z" fill="#0175D8"/>
</g>
</svg>
