<svg width="173" height="173" viewBox="0 0 173 173" fill="none" xmlns="http://www.w3.org/2000/svg">
<g clip-path="url(#clip0)">
<path d="M166.899 65.8344C167.204 58.386 162.441 50.873 152.595 45.188C141.627 38.8559 126.758 36.1819 112.514 37.1543L112.524 33.8025C112.524 33.8407 112.521 33.8785 112.521 33.9163C112.592 26.6369 107.817 19.3354 98.1982 13.7819C79.1774 2.8008 48.4406 2.80113 29.5472 13.7805C10.5047 24.8467 5.29314 42.1429 5.34991 57.9018C5.34923 57.7511 5.34518 57.6017 5.34552 57.451L5.13602 131.335C5.08264 150.125 12.6142 166.841 13.3099 168.385C18.1985 169.114 111.088 182.968 152.612 158.837C161.998 153.383 166.696 146.245 166.716 139.095L166.926 65.2113C166.926 65.4191 166.907 65.6266 166.899 65.8344Z" fill="#C60024"/>
<path d="M112.524 33.8027L112.314 107.687C112.311 108.813 112.191 109.939 111.957 111.058L112.166 37.1742C112.401 36.0548 112.52 34.9289 112.524 33.8027Z" fill="#FF3E61"/>
<path d="M5.13602 131.334L5.34552 57.4504C5.29213 76.2405 12.8237 92.9562 13.5194 94.5007L13.3099 168.385C12.6142 166.84 5.08264 150.124 5.13602 131.334Z" fill="#0265CD"/>
<path d="M166.926 65.2112L166.717 139.095C166.696 146.244 161.998 153.383 152.612 158.837C111.088 182.968 18.199 169.114 13.3101 168.385L13.5196 94.5011C18.4081 95.2303 111.298 109.084 152.822 84.9534C162.207 79.4988 166.906 72.3606 166.926 65.2112Z" fill="#0175D8"/>
<path d="M152.594 45.1878C171.615 56.1692 171.715 73.9729 152.822 84.9526C111.298 109.084 18.4081 95.2295 13.5192 94.5004C12.2444 91.6709 -11.9766 37.9114 29.5473 13.78C48.4407 2.80027 79.1772 2.80027 98.1976 13.7817C109.254 20.1654 113.914 28.8583 112.166 37.1734C126.515 36.1337 141.537 38.8047 152.594 45.1878Z" fill="#FF3E61"/>
<path d="M169.571 61.9854C169.884 54.3274 164.987 46.604 154.864 40.7595C143.585 34.2473 128.298 31.5003 113.653 32.4998L113.663 29.0523C113.663 29.0915 113.66 29.1304 113.66 29.1695C113.733 21.6856 108.826 14.1794 98.9345 8.46842C79.3785 -2.82249 47.777 -2.82215 28.3481 8.46842C8.7738 19.8435 3.41386 37.6218 3.47062 53.8219C3.46995 53.6696 3.46555 53.5178 3.46623 53.3651L3.40068 76.4538C3.34594 95.7733 11.0904 112.961 11.8057 114.549C16.8321 115.299 112.337 129.544 155.029 104.734C164.681 99.1248 169.512 91.7848 169.533 84.4334L169.599 61.3447C169.598 61.5583 169.579 61.7715 169.571 61.9854Z" fill="#FE0B37"/>
<path d="M113.664 29.0519L113.598 52.1405C113.595 53.2988 113.472 54.4574 113.23 55.6083L113.296 32.5196C113.538 31.3681 113.66 30.2102 113.664 29.0519Z" fill="#FF728C"/>
<path d="M3.40116 76.4539L3.46638 53.3652C3.41164 72.6847 11.1561 89.8725 11.871 91.4606L11.8055 114.549C11.0909 112.961 3.34676 95.7734 3.40116 76.4539Z" fill="#0986E2"/>
<path d="M169.599 61.3447L169.533 84.4334C169.512 91.7848 164.681 99.1248 155.029 104.734C112.337 129.544 16.8321 115.299 11.8057 114.549L11.8709 91.4604C16.8973 92.2102 112.402 106.455 155.094 81.6454C164.747 76.0365 169.578 68.6962 169.599 61.3447Z" fill="#55B7F3"/>
<path d="M154.865 40.7592C174.421 52.0497 174.524 70.3545 155.095 81.6455C112.403 106.455 16.8982 92.2102 11.8718 91.4605C10.5607 88.5512 -14.3437 33.278 28.3482 8.4681C47.7772 -2.82247 79.3787 -2.82281 98.9343 8.46776C110.306 15.0329 115.093 23.9705 113.295 32.5194C128.049 31.4503 143.493 34.194 154.865 40.7592Z" fill="#9BCEFD"/>
</g>
<defs>
<clipPath id="clip0">
<rect width="173" height="173" fill="white"/>
</clipPath>
</defs>
</svg>
