<svg width="54" height="54" viewBox="0 0 54 54" fill="none" xmlns="http://www.w3.org/2000/svg">
<g clip-path="url(#clip0)">
<path d="M27 6.75C15.8337 6.75 6.75 15.8337 6.75 27C6.75 38.1663 15.8337 47.25 27 47.25C38.1663 47.25 47.25 38.1663 47.25 27C47.25 15.8337 38.1663 6.75 27 6.75Z" fill="#9BCEFD"/>
<path d="M28.6873 37.1249C28.6873 38.0568 27.9318 38.8123 26.9999 38.8123C26.068 38.8123 25.3125 38.0568 25.3125 37.1249C25.3125 36.193 26.068 35.4375 26.9999 35.4375C27.9318 35.4375 28.6873 36.193 28.6873 37.1249Z" fill="#ECEFF1"/>
<path d="M29.6712 28.0834C29.0739 28.3584 28.6874 28.961 28.6874 29.6176V30.3752C28.6874 31.3065 27.9332 32.0626 27 32.0626C26.0668 32.0626 25.3126 31.3065 25.3126 30.3752V29.6176C25.3126 27.6481 26.4701 25.8426 28.2573 25.0173C29.9768 24.226 31.2186 22.1249 31.2186 21.0938C31.2186 18.7686 29.327 16.8751 27 16.8751C24.673 16.8751 22.7814 18.7686 22.7814 21.0938C22.7814 22.0254 22.0268 22.7815 21.0936 22.7815C20.1605 22.7815 19.4062 22.0254 19.4062 21.0938C19.4062 16.9073 22.8132 13.5 27 13.5C31.1868 13.5 34.5938 16.9073 34.5938 21.0938C34.5938 23.3738 32.6159 26.7251 29.6712 28.0834Z" fill="#FAFAFA"/>
</g>
<defs>
<clipPath id="clip0">
<rect width="40.5" height="40.5" fill="white" transform="translate(6.75 6.75)"/>
</clipPath>
</defs>
</svg>
