<svg width="173" height="173" viewBox="0 0 173 173" fill="none" xmlns="http://www.w3.org/2000/svg">
<path d="M133.757 47.1661L133.741 47.1688C133.88 45.0794 132.382 42.8712 129.475 41.1936L104.893 27.0009C100.751 24.6093 94.744 23.8609 90.1218 25.1623C56.2588 34.6906 29.4281 50.1821 12.9229 69.7335C12.2815 70.4925 11.937 71.3174 11.8551 72.1621L11.8459 72.1648V72.2466C11.8287 72.4683 11.8459 150.322 11.8459 150.322C11.8287 150.544 11.8261 150.765 11.8459 150.988V151.017H11.8472C12.0267 152.905 13.5037 154.833 16.1065 156.335L40.6894 170.528C44.8325 172.92 50.838 173.668 55.4602 172.367C89.3232 162.837 116.155 147.347 132.66 127.795C133.542 126.751 133.872 125.585 133.708 124.407L133.756 124.397V47.1661H133.757Z" fill="#FFEAC9"/>
<path d="M90.1216 25.1623C94.7439 23.8609 100.751 24.6093 104.892 27.0009L129.475 41.1936C133.617 43.5853 134.912 47.0526 132.66 49.7214C116.155 69.2716 89.3231 84.7631 55.4601 94.2927C50.8379 95.5928 44.8324 94.8457 40.6893 92.4541L16.1064 78.2613C11.9646 75.8697 10.6698 72.401 12.9228 69.7335C29.428 50.1821 56.2586 34.6919 90.1216 25.1623Z" fill="#FC8946"/>
<path d="M11.8433 72.8485C11.8301 80.0709 11.8459 150.323 11.8459 150.323C11.8287 150.544 11.8261 150.765 11.8459 150.988V151.019L11.8472 151.017C12.0267 152.905 13.5037 154.833 16.1065 156.335L40.6894 170.529V92.4541L16.1065 78.2613C13.4601 76.7329 11.9819 74.765 11.8433 72.8485Z" fill="#FFB78F"/>
<path d="M43.894 83.9593C38.7491 83.9593 34.5796 79.7884 34.5796 74.6448V62.7474C34.5796 38.6832 47.525 16.2623 68.3634 4.23023C78.1345 -1.40964 89.801 -1.40964 99.5721 4.23023C109.342 9.87142 115.176 19.9752 115.176 31.2575V38.8667C115.176 44.0116 111.005 48.1811 105.861 48.1811C100.718 48.1811 96.5469 44.0116 96.5469 38.8667V31.2575C96.5469 26.7105 94.1962 22.6374 90.2577 20.3632C86.3191 18.089 81.6164 18.0904 77.6778 20.3632C62.5836 29.0771 53.2071 45.3183 53.2071 62.7474V74.6448C53.2071 79.7884 49.0376 83.9593 43.894 83.9593Z" fill="#ECECEC"/>
<path d="M153.906 79.2658L153.86 79.2407C153.587 79.0678 153.309 78.9068 153.023 78.7576L145.744 74.563L145.742 74.5709C141.493 72.0262 135.918 72.207 129.808 75.7351C116.498 83.4195 105.709 104.033 105.709 121.779C105.709 131.565 108.993 138.426 114.169 141.331L114.165 141.339L121.926 145.803L121.93 145.793C126.157 148.24 131.67 148.023 137.705 144.538C151.015 136.854 161.803 116.24 161.803 98.4939C161.803 89.0646 158.757 82.3424 153.906 79.2658Z" fill="#0175D8"/>
<path d="M161.803 98.4939C161.803 116.24 151.015 136.854 137.705 144.538C124.397 152.222 113.606 144.066 113.606 126.32C113.606 108.574 124.397 87.9599 137.705 80.2755C151.015 72.5911 161.803 80.748 161.803 98.4939Z" fill="#0986E2"/>
<path d="M133.724 135.313C132.3 136.134 130.877 136.232 129.791 135.411L119.781 127.844C117.61 126.202 117.61 121.507 119.781 117.358C121.953 113.208 125.473 111.175 127.646 112.817L133.724 117.412L146.568 92.8712C148.739 88.7214 152.261 86.6888 154.432 88.3307C156.604 89.9727 156.604 94.6675 154.432 98.8172L137.656 130.871C136.57 132.946 135.147 134.491 133.724 135.313Z" fill="white"/>
</svg>
