<svg width="116" height="25" viewBox="0 0 116 25" fill="none" xmlns="http://www.w3.org/2000/svg">
<path d="M1.38797 24.6764C1.15033 24.6764 0.945087 24.601 0.772254 24.45C0.621025 24.299 0.54541 24.1049 0.54541 23.8676V2.51554C0.54541 2.27829 0.621025 2.08418 0.772254 1.93321C0.945087 1.78223 1.15033 1.70675 1.38797 1.70675H5.76281C6.00046 1.70675 6.1949 1.78223 6.34613 1.93321C6.51896 2.08418 6.60538 2.27829 6.60538 2.51554V9.72996C7.85842 8.26335 9.55435 7.53005 11.6932 7.53005C12.9246 7.53005 14.0372 7.81043 15.031 8.37119C16.0248 8.93196 16.8025 9.76232 17.3643 10.8623C17.926 11.9622 18.2068 13.2886 18.2068 14.8415V23.8676C18.2068 24.1049 18.1204 24.299 17.9476 24.45C17.7963 24.601 17.6019 24.6764 17.3643 24.6764H12.957C12.741 24.6764 12.5465 24.601 12.3737 24.45C12.2225 24.2774 12.1468 24.0833 12.1468 23.8676V15.0356C12.1468 14.0867 11.9092 13.3534 11.4339 12.8357C10.9586 12.2965 10.2781 12.0269 9.39231 12.0269C8.52815 12.0269 7.84762 12.2965 7.35072 12.8357C6.85383 13.3534 6.60538 14.0867 6.60538 15.0356V23.8676C6.60538 24.1049 6.51896 24.299 6.34613 24.45C6.1949 24.601 6.00046 24.6764 5.76281 24.6764H1.38797Z" fill="#0175D8"/>
<path d="M29.8503 25C27.1281 25 25.0325 24.3745 23.5635 23.1236C22.116 21.8511 21.3274 20.0501 21.1978 17.7208C21.1762 17.4404 21.1654 16.9552 21.1654 16.265C21.1654 15.5748 21.1762 15.0896 21.1978 14.8092C21.3274 12.523 22.1376 10.7436 23.6283 9.47115C25.1406 8.17708 27.2146 7.53005 29.8503 7.53005C32.486 7.53005 34.5492 8.17708 36.0399 9.47115C37.5522 10.7436 38.3731 12.523 38.5027 14.8092C38.5459 15.3699 38.5676 15.8552 38.5676 16.265C38.5676 16.6748 38.5459 17.1601 38.5027 17.7208C38.3731 20.0501 37.5738 21.8511 36.1047 23.1236C34.6572 24.3745 32.5724 25 29.8503 25ZM29.8503 20.9236C30.736 20.9236 31.395 20.654 31.8271 20.1149C32.2591 19.5541 32.5076 18.7022 32.5724 17.5591C32.594 17.3434 32.6048 16.912 32.6048 16.265C32.6048 15.618 32.594 15.1866 32.5724 14.9709C32.5076 13.8494 32.2591 13.0083 31.8271 12.4475C31.395 11.8867 30.736 11.6064 29.8503 11.6064C28.9645 11.6064 28.3056 11.8867 27.8735 12.4475C27.4414 13.0083 27.193 13.8494 27.1281 14.9709L27.0957 16.265L27.1281 17.5591C27.193 18.7022 27.4414 19.5541 27.8735 20.1149C28.3056 20.654 28.9645 20.9236 29.8503 20.9236Z" fill="#0175D8"/>
<path d="M47.8441 25C45.9429 25 44.409 24.3637 43.2424 23.0912C42.0758 21.8187 41.4925 20.0178 41.4925 17.6885V8.66236C41.4925 8.42511 41.5681 8.231 41.7193 8.08003C41.8921 7.92905 42.0866 7.85357 42.3026 7.85357H46.6127C46.8503 7.85357 47.0447 7.92905 47.196 8.08003C47.3688 8.231 47.4552 8.42511 47.4552 8.66236V17.4944C47.4552 19.5002 48.3518 20.5031 50.1449 20.5031C51.0091 20.5031 51.6788 20.2443 52.1541 19.7266C52.651 19.1874 52.8995 18.4433 52.8995 17.4944V8.66236C52.8995 8.42511 52.9751 8.231 53.1263 8.08003C53.2991 7.92905 53.5044 7.85357 53.742 7.85357H58.0197C58.2573 7.85357 58.4517 7.92905 58.603 8.08003C58.7542 8.231 58.8298 8.42511 58.8298 8.66236V23.8676C58.8298 24.0833 58.7542 24.2774 58.603 24.45C58.4517 24.601 58.2573 24.6764 58.0197 24.6764H54.0661C53.8284 24.6764 53.6232 24.601 53.4504 24.45C53.2991 24.299 53.2235 24.1049 53.2235 23.8676V22.6383C52.1001 24.2127 50.307 25 47.8441 25Z" fill="#0175D8"/>
<path d="M63.3198 24.6764C63.1038 24.6764 62.9094 24.601 62.7365 24.45C62.5853 24.2774 62.5097 24.0833 62.5097 23.8676V8.66236C62.5097 8.42511 62.5853 8.231 62.7365 8.08003C62.9094 7.92905 63.1038 7.85357 63.3198 7.85357H67.079C67.3166 7.85357 67.511 7.92905 67.6623 8.08003C67.8135 8.231 67.8891 8.42511 67.8891 8.66236V9.76231C68.4076 9.13685 69.0774 8.60844 69.8983 8.17708C70.7193 7.74573 71.6482 7.53005 72.6852 7.53005C75.0617 7.53005 76.6928 8.45746 77.5786 10.3123C78.0971 9.49272 78.8208 8.82412 79.7498 8.30649C80.6788 7.78886 81.6726 7.53005 82.7312 7.53005C84.5027 7.53005 85.9394 8.13395 87.0412 9.34174C88.1646 10.528 88.7263 12.3073 88.7263 14.6798V23.8676C88.7263 24.0833 88.6507 24.2774 88.4995 24.45C88.3483 24.601 88.1538 24.6764 87.9162 24.6764H83.9302C83.6926 24.6764 83.4873 24.601 83.3145 24.45C83.1633 24.299 83.0876 24.1049 83.0876 23.8676V14.9062C83.0876 13.9141 82.8716 13.1916 82.4395 12.7387C82.029 12.2642 81.4673 12.0269 80.7544 12.0269C80.0847 12.0269 79.5338 12.2642 79.1017 12.7387C78.6912 13.1916 78.486 13.9141 78.486 14.9062V23.8676C78.486 24.0833 78.4103 24.2774 78.2591 24.45C78.1079 24.601 77.9135 24.6764 77.6758 24.6764H73.6898C73.4522 24.6764 73.2469 24.601 73.0741 24.45C72.9229 24.299 72.8473 24.1049 72.8473 23.8676V14.9062C72.8473 13.9141 72.6312 13.1916 72.1992 12.7387C71.7671 12.2642 71.2054 12.0269 70.514 12.0269C69.8443 12.0269 69.2934 12.2642 68.8613 12.7387C68.4292 13.1916 68.2132 13.9033 68.2132 14.8739V23.8676C68.2132 24.0833 68.1376 24.2774 67.9863 24.45C67.8351 24.601 67.6407 24.6764 67.403 24.6764H63.3198Z" fill="#0175D8"/>
<path d="M92.452 24.6764C92.236 24.6764 92.0416 24.601 91.8687 24.45C91.7175 24.2774 91.6419 24.0833 91.6419 23.8676V21.1825C91.6419 20.7942 91.8039 20.4384 92.128 20.1149L99.6138 12.1887H92.7113C92.4952 12.1887 92.3008 12.1132 92.128 11.9622C91.9767 11.7897 91.9011 11.5956 91.9011 11.3799V8.66236C91.9011 8.42511 91.9767 8.231 92.128 8.08003C92.3008 7.92905 92.4952 7.85357 92.7113 7.85357H105.901C106.138 7.85357 106.333 7.92905 106.484 8.08003C106.635 8.231 106.711 8.42511 106.711 8.66236V11.574C106.711 11.9191 106.56 12.2426 106.257 12.5446L98.9981 20.3413H106.581C106.819 20.3413 107.013 20.4168 107.164 20.5678C107.316 20.7187 107.391 20.9129 107.391 21.1501V23.8676C107.391 24.0833 107.316 24.2774 107.164 24.45C107.013 24.601 106.819 24.6764 106.581 24.6764H92.452Z" fill="#0175D8"/>
<path d="M111.106 5.52425C110.869 5.52425 110.674 5.44876 110.523 5.29778C110.372 5.12524 110.296 4.92035 110.296 4.6831V1.6744C110.296 1.43715 110.372 1.24304 110.523 1.09207C110.696 0.919523 110.89 0.833252 111.106 0.833252H115.157C115.395 0.833252 115.589 0.919523 115.74 1.09207C115.913 1.24304 116 1.43715 116 1.6744V4.6831C116 4.92035 115.913 5.12524 115.74 5.29778C115.589 5.44876 115.395 5.52425 115.157 5.52425H111.106ZM111.106 24.6764C110.89 24.6764 110.696 24.601 110.523 24.45C110.372 24.2774 110.296 24.0833 110.296 23.8676V8.66236C110.296 8.42511 110.372 8.231 110.523 8.08003C110.696 7.92905 110.89 7.85357 111.106 7.85357H115.157C115.395 7.85357 115.589 7.92905 115.74 8.08003C115.913 8.231 116 8.42511 116 8.66236V23.8676C116 24.1049 115.913 24.299 115.74 24.45C115.589 24.601 115.395 24.6764 115.157 24.6764H111.106Z" fill="#0175D8"/>
</svg>
