<svg width="32" height="36" viewBox="0 0 32 36" fill="none" xmlns="http://www.w3.org/2000/svg">
<path fill-rule="evenodd" clip-rule="evenodd" d="M31.6999 16.0084V31.9917C31.6999 34.2001 29.9063 35.9917 27.6957 35.9917H4.0042C1.79355 35.9917 0 34.2001 0 31.9917V16.0334C0.00834208 15.9667 0.0166882 15.9 0.0250303 15.8334C0.283635 13.95 1.56831 12.7584 2.48594 11.95L9.84365 4.71667L14.5152 0.375001C15.0157 -0.125 16.3505 -0.125 16.851 0.375001L21.2723 4.29167L23.5747 6.33334L28.6133 10.8L29.8396 11.8917C30.9741 12.8917 31.6415 14.3167 31.6915 15.825C31.6999 15.8917 31.6999 15.95 31.6999 16.0084Z" fill="#0175D8"/>
<path fill-rule="evenodd" clip-rule="evenodd" d="M11.7904 15.4591H11.7871V15.6252V28.9592H20.0291V15.6252V15.4591H20.0258C19.9385 13.2626 18.1284 11.5085 15.9081 11.5085C13.6878 11.5085 11.8776 13.2626 11.7904 15.4591Z" fill="white"/>
<path d="M15.908 32.8416C18.1748 32.8416 20.0123 31.006 20.0123 28.7416C20.0123 26.4772 18.1748 24.6416 15.908 24.6416C13.6413 24.6416 11.8037 26.4772 11.8037 28.7416C11.8037 31.006 13.6413 32.8416 15.908 32.8416Z" fill="#0175D8"/>
<path fill-rule="evenodd" clip-rule="evenodd" d="M28.3382 28.7416C28.3382 31.006 26.5006 32.8416 24.2339 32.8416C22.099 32.8416 20.3448 31.2133 20.148 29.132L20.1465 29.1335C20.1465 29.1335 19.8462 24.8168 15.9004 24.6418L23.7988 24.6644C23.9418 24.6493 24.0869 24.6416 24.2339 24.6416C26.5006 24.6416 28.3382 26.4772 28.3382 28.7416Z" fill="#FC8946"/>
</svg>
