<svg width="732" height="493" viewBox="0 0 732 493" fill="none" xmlns="http://www.w3.org/2000/svg">
<g clip-path="url(#clip0)">
<path d="M83.744 255.13L3.5559 207.597C2.13869 206.774 1.2626 205.282 1.1853 203.636L0 176.68L48.958 179.252L113.377 233.267L83.744 255.13Z" fill="#FC8946"/>
<path d="M99.6171 320.745L54.5499 294.689C53.4677 294.072 52.7978 292.94 52.7462 291.705L51.5352 266.704L154.605 261.56L260.251 264.132V288.31C260.251 289.262 259.787 290.162 258.988 290.702L211.886 323.24C210.726 324.037 209.206 324.114 207.969 323.445L154.914 294.56C153.909 294.02 152.698 294.02 151.667 294.56L103.946 320.77C102.606 321.542 100.957 321.542 99.6171 320.745Z" fill="#FC8946"/>
<path d="M346.469 153.505L346.366 154.405L345.928 159.781L344.511 176.834L343.996 183.11L234.381 250.603L229.331 253.843L190.68 243.555L193.256 222.978L281.948 170.764H281.974L293.749 163.819L304.159 161.53H304.211L341.213 153.427L346.469 153.505Z" fill="#FC8946"/>
<path d="M346.468 153.505L346.365 154.405L336.419 160.167L312.739 173.927L206.139 235.839L234.38 250.603L260.251 264.132L211.164 295.975C209.669 296.952 207.737 297.004 206.165 296.129L156.511 267.784C155.326 267.116 153.883 267.141 152.723 267.836L105.311 296.232C103.92 297.055 102.219 297.055 100.828 296.232L51.5348 266.704L76.6065 250.911L97.9418 237.459C99.1014 236.713 99.0756 235.016 97.8903 234.295L0 176.68L46.3813 148.386L195.343 150.933L296.377 152.656L341.212 153.428L346.468 153.505Z" fill="#FFEAC9"/>
<path d="M107.22 180.229L150.097 206.388C151.283 207.108 152.751 207.134 153.988 206.465L202.611 179.792C202.869 179.663 202.766 179.252 202.482 179.252H107.504C106.963 179.252 106.782 179.946 107.22 180.229Z" fill="#FC8946"/>
<path d="M459.664 234.99L458.685 233.215L458.144 234.321L451.057 248.854C448.713 241.189 445.183 233.292 440.957 225.524C440.957 225.524 440.957 225.499 440.931 225.499C437.169 218.451 432.814 211.532 428.253 204.922C419.364 191.958 409.727 180.229 402.022 171.458C396.663 165.362 392.282 160.681 389.68 158.006C380.609 148.541 363.062 137.378 339.562 132.336C321.628 128.504 300.241 128.221 276.509 135.011C276.02 135.14 275.556 135.268 275.066 135.423C267.851 137.583 261.822 140.155 256.771 143.01L260.327 135.68L260.456 135.423L248.887 134.368L248.088 136.194L247.444 137.66L243.424 146.74L236.57 162.276C229.355 175.214 230.386 191.238 238.58 203.687C251.18 222.927 280.684 265.727 304.828 284.323C336.496 308.733 387.567 311.845 414.287 304.386C427.996 300.553 437.993 291.911 444.461 284.375C446.754 281.725 448.61 278.767 450.027 275.629H450.053L462.112 248.365C462.086 248.339 462.086 248.339 462.112 248.339L464.225 243.581C464.25 243.504 464.276 243.426 464.302 243.349L459.664 234.99ZM338.222 223.955C324.772 212.947 307.714 188.486 300.344 177.477C299.648 176.448 299.056 175.394 298.54 174.313C301.478 172.384 305.266 170.764 310.033 169.581C338.969 162.353 360.511 177.528 369.633 187.303C375.173 193.244 395.709 215.802 404.032 236.07C401.507 237.845 398.518 239.311 394.988 240.134C381.022 243.349 355.847 238.385 338.222 223.955Z" fill="#FC8946"/>
<path d="M465.23 223.158C463.787 217.551 461.674 211.841 459.071 206.079C458.711 205.256 458.324 204.433 457.912 203.584C456.727 201.038 455.413 198.517 454.047 195.971C452.939 193.913 451.754 191.83 450.542 189.798C438.921 170.044 423.667 151.576 413.051 139.641C408.825 134.908 405.321 131.179 403.053 128.838C402.976 128.735 402.873 128.658 402.796 128.555C398.286 123.848 391.664 118.704 383.238 114.126C377.337 110.885 370.56 107.952 362.985 105.586C343.479 99.5415 318.845 97.4839 290.914 105.2C290.012 105.432 289.084 105.689 288.182 105.972C286.765 106.409 285.374 106.846 284.034 107.309C269.707 112.196 260.405 118.884 254.453 125.932C252.829 127.861 251.438 129.79 250.278 131.745C249.402 133.185 248.655 134.677 248.011 136.194C247.779 136.683 247.599 137.172 247.444 137.661C246.233 140.67 245.486 143.756 245.151 146.92C244.944 148.489 244.867 150.058 244.867 151.653C244.867 159.524 247.212 167.42 251.696 174.236C264.296 193.476 293.799 236.276 317.943 254.898C349.612 279.282 400.683 282.394 427.403 274.935C438.303 271.874 446.858 265.804 453.145 259.657C454.768 258.088 456.237 256.467 457.577 254.924C459.329 252.892 460.849 250.68 462.112 248.365C462.086 248.339 462.086 248.339 462.112 248.339C462.911 246.796 463.632 245.227 464.225 243.581C464.251 243.504 464.276 243.426 464.302 243.349C464.972 241.42 465.488 239.44 465.823 237.433C466.621 232.752 466.441 227.891 465.23 223.158ZM394.988 240.134C381.022 243.349 355.847 238.385 338.222 223.955C324.772 212.947 307.714 188.486 300.344 177.477C299.649 176.448 299.056 175.394 298.541 174.313C301.478 172.384 305.266 170.764 310.033 169.581C338.97 162.353 360.511 177.528 369.633 187.303C375.173 193.244 395.709 215.802 404.032 236.07C401.507 237.845 398.518 239.311 394.988 240.134Z" fill="#FFEAC9"/>
<path d="M380.018 130.639L339.563 132.336L276.51 135.011L260.329 135.68L248.089 136.194H248.012C248.656 134.677 249.403 133.185 250.279 131.745C251.439 129.79 252.83 127.861 254.454 125.932C260.406 118.884 269.708 112.196 284.035 107.309C288.26 112.505 291.61 116.003 292.409 115.206C293.156 114.46 292.383 110.473 290.914 105.2C318.846 97.4839 343.48 99.5415 362.986 105.586C365.279 108.801 367.418 111.862 369.35 114.666C375.818 124.028 380.018 130.639 380.018 130.639Z" fill="#FFB78F"/>
<path d="M450.544 189.798C450.286 190.749 449.951 191.727 449.616 192.704C449.23 193.862 448.766 195.045 448.302 196.228C448.302 196.228 447.787 195.894 446.808 195.302C441.474 192.01 422.355 180.538 402.024 171.458C395.041 168.346 387.955 165.517 381.204 163.408H381.178C376.72 161.967 372.417 160.887 368.423 160.218C337.503 155.074 342.656 155.074 306.582 152.502C304.52 152.348 302.175 152.167 299.547 151.962C286.071 150.907 265.74 149.029 245.152 146.92C244.585 146.869 244.018 146.792 243.426 146.74L247.445 137.661C247.6 137.172 247.78 136.683 248.012 136.195C248.657 134.677 249.404 133.185 250.28 131.745C251.439 129.79 252.831 127.861 254.454 125.932C293.286 121.328 337.657 116.312 369.351 114.666C374.324 114.383 378.988 114.203 383.24 114.126C396.252 113.868 405.709 114.537 409.651 116.492C409.651 116.492 406.559 121.919 403.055 128.838C397.541 139.796 391.047 154.508 394.191 157.646C397.386 160.836 406.559 151.139 413.053 139.641C423.669 151.576 438.923 170.044 450.544 189.798Z" fill="#FFB78F"/>
<path d="M457.913 203.584C458.326 204.433 458.712 205.256 459.073 206.079C458.12 205.231 457.192 204.407 456.29 203.61C452.837 200.549 449.642 197.771 446.808 195.302C438.227 187.869 432.842 183.367 432.842 183.367C437.506 184.911 443.175 188.177 449.616 192.704C451.059 193.733 452.528 194.813 454.048 195.971" fill="#FFB78F"/>
<path d="M298.541 174.313C295.294 167.651 294.959 160.089 298.206 154.096C301.014 148.901 306.632 143.885 317.505 141.21C346.442 133.982 367.984 149.158 377.131 158.932C383.135 165.388 406.893 191.495 413.412 212.947C415.318 219.171 414.107 225.602 410.397 230.154C408.774 232.135 406.686 234.295 404.084 236.096C395.761 215.827 375.224 193.27 369.684 187.328C360.537 177.554 338.995 162.379 310.059 169.606C305.266 170.764 301.478 172.384 298.541 174.313Z" fill="#FC8946"/>
<path d="M157.182 71.2221C157.182 71.2221 110.801 71.2221 103.07 58.3615C95.3402 45.5009 154.605 30.0681 154.605 30.0681L182.949 45.5009L170.066 24.9238L221.6 9.49103C221.6 9.49103 249.945 50.6451 252.521 48.073C255.098 45.5009 239.638 4.34677 239.638 4.34677C239.638 4.34677 284.859 -9.72277 303.489 12.7576C322.119 35.238 340.13 63.5058 340.13 63.5058L157.182 71.2221Z" fill="#0986E2"/>
<path d="M137.856 67.364C176.507 64.7919 349.148 39.0706 369.762 49.3591C369.762 49.3591 349.148 85.3689 354.302 90.5132C359.455 95.6575 380.069 67.364 380.069 51.9313C380.069 51.9313 429.027 77.6525 408.413 129.095C408.413 129.095 359.455 98.2296 328.534 93.0853C297.613 87.9411 302.767 87.9411 266.693 85.3689C230.618 82.7968 99.2045 69.9362 137.856 67.364Z" fill="#0265CD"/>
<path d="M392.953 116.235C392.953 116.235 503.753 208.831 519.213 247.413C534.674 285.995 548.846 294.998 584.92 325.863C620.995 356.729 609.399 316.861 609.399 316.861C609.399 316.861 595.227 282.137 579.767 279.565C564.306 276.993 561.73 279.565 551.423 269.276C541.116 258.988 431.604 129.095 392.953 116.235Z" fill="#0265CD"/>
<path d="M353.014 140.67C353.014 140.67 427.739 132.953 456.083 138.098C484.427 143.242 510.195 145.814 517.925 150.958C525.655 156.103 512.772 158.675 507.618 158.675C502.465 158.675 481.851 148.386 481.851 148.386C481.851 148.386 474.12 179.252 440.623 174.108C407.125 168.963 383.935 140.67 353.014 140.67Z" fill="#0265CD"/>
<path d="M582.342 300.142C565.593 237.125 564.305 243.555 542.403 206.259C520.836 169.529 477.984 144.528 477.984 144.528C477.984 144.528 501.175 162.533 511.482 172.822C521.789 183.11 561.728 235.839 582.342 300.142Z" fill="#0265CD"/>
<path d="M608.11 186.968C608.11 186.968 587.496 168.963 587.496 148.386C587.496 127.809 597.803 91.7989 597.803 91.7989C597.803 91.7989 605.533 114.948 610.687 114.948C615.84 114.948 605.533 86.6547 605.533 81.5104C605.533 76.3662 633.877 45.5006 633.877 45.5006C633.877 45.5006 636.454 76.3662 641.608 76.3662C646.761 76.3662 644.184 37.7842 644.184 37.7842C644.184 37.7842 690.566 6.91868 731.794 22.3514C731.794 22.3514 733.082 49.3588 709.505 73.0996C683.506 99.2838 608.11 186.968 608.11 186.968Z" fill="#0986E2"/>
<path d="M610.688 184.396L711.18 71.2224C711.18 71.2224 693.143 81.5109 672.529 86.6552C651.915 91.7994 620.994 138.098 610.688 184.396Z" fill="#0265CD"/>
<path d="M611.977 183.11L596.516 226.836L575.902 311.716C575.902 285.995 575.902 288.567 591.363 224.264C619.707 141.956 645.474 139.384 645.474 139.384L611.977 183.11Z" fill="#0265CD"/>
<path d="M644.186 37.7842C644.186 37.7842 690.567 6.91868 731.795 22.3514C731.795 22.3514 735.66 49.3588 709.506 73.0995" fill="#0986E2"/>
<path d="M503.751 368.303V347.726L413.566 337.438L390.375 345.154L462.524 391.452L503.751 368.303Z" fill="#FC8946"/>
<path d="M557.451 405.934L526.942 422.318L499.887 400.455L561.728 379.878L560.62 400.918C560.517 403.027 559.306 404.93 557.451 405.934Z" fill="#FC8946"/>
<path d="M589.533 358.606L561.729 323.291L468.967 305.286V336.152L585.384 392.378C587.394 393.356 589.816 392.867 591.285 391.17L637.589 337.824C638.516 336.743 639.032 335.38 639.032 333.94V313.003L589.533 358.606Z" fill="#FC8946"/>
<path d="M468.967 305.286L524.47 335.509C525.243 335.92 526.145 336.1 527.021 335.997L547.377 333.734C547.66 333.708 547.789 334.094 547.532 334.223L534.906 340.524C534.261 340.833 534.261 341.733 534.88 342.068L585.874 369.306C587.574 370.207 589.687 369.821 590.95 368.38L639.032 313.003L468.967 305.286Z" fill="#FFEAC9"/>
<path d="M309.362 381.395L394.06 428.645C394.189 428.722 394.317 428.722 394.446 428.645L429.825 411C430.083 410.872 430.134 410.537 429.928 410.357L399.471 379.955C399.419 379.903 399.368 379.878 399.316 379.852L306.76 347.392C306.502 347.289 306.219 347.495 306.219 347.777L306.786 377.125C306.811 378.9 307.791 380.521 309.362 381.395Z" fill="#FC8946"/>
<path d="M358.165 464.758L401.944 490.531C405.963 492.897 410.937 493.052 415.111 490.917L457.215 469.388C459.74 468.102 462.729 468.179 465.177 469.594L501.741 490.737C506.972 493.772 513.439 493.746 518.67 490.711L565.618 463.472L564.33 436.465L474.144 418.46L383.958 441.609L357.572 437.314L358.165 464.758Z" fill="#FC8946"/>
<path d="M401.842 462.443L356.878 437.75L405.243 406.37C406.686 405.444 406.609 403.335 405.089 402.512L306.709 348.497C306.09 348.163 306.065 347.289 306.657 346.903L352.601 317.941C353.709 317.246 354.971 316.886 356.285 316.886H440.313C441.344 316.886 442.374 317.143 443.276 317.606L501.15 347.752L409.16 346.491C408.619 346.491 408.413 347.211 408.902 347.469L464.07 378.591C465.488 379.389 467.214 379.389 468.631 378.566L513.183 352.819C514.497 352.047 516.146 352.073 517.435 352.87L561.703 379.877L517.563 404.364C516.559 404.93 516.507 406.345 517.486 406.962L564.305 436.464L516.069 463.986C512.462 466.044 507.978 465.941 504.448 463.729L464.998 438.856C462.679 437.39 459.741 437.313 457.319 438.651L414.932 462.391C410.886 464.655 405.939 464.681 401.842 462.443Z" fill="#FFEAC9"/>
<path d="M166.199 368.303V363.159L230.618 365.731V370.875L198.666 388.031C197.713 388.546 196.553 388.494 195.626 387.877L166.199 368.303Z" fill="#9BCEFD"/>
<path d="M166.199 363.159C168.776 363.159 199.697 345.154 199.697 345.154L230.618 365.731L198.46 383.016C197.635 383.453 196.656 383.402 195.883 382.887L166.199 363.159Z" fill="#0986E2"/>
<path d="M215.158 363.159C215.158 363.159 199.697 376.02 181.66 363.159L183.722 350.041L186.118 334.763L188.437 319.87L191.194 302.277L194.209 282.909C194.389 281.725 195.42 280.851 196.631 280.851H200.161C201.372 280.851 202.403 281.725 202.583 282.909L205.598 302.277L208.355 319.844L210.674 334.763L213.071 350.041L215.158 363.159Z" fill="#0986E2"/>
<path d="M210.701 334.762C207.48 335.637 203.177 336.151 198.41 336.151C193.643 336.151 189.34 335.637 186.119 334.762L183.723 350.041C187.459 350.993 192.664 351.584 198.41 351.584C204.156 351.584 209.361 350.993 213.097 350.041L210.701 334.762Z" fill="#9BCEFD"/>
<path d="M208.381 319.844C205.521 320.385 202.12 320.719 198.409 320.719C194.699 320.719 191.272 320.41 188.438 319.87L191.195 302.277C193.411 302.56 195.833 302.714 198.409 302.714C200.986 302.714 203.408 302.56 205.624 302.277L208.381 319.844Z" fill="#9BCEFD"/>
<path d="M596.516 417.174V412.029L660.934 414.601V419.746L628.983 436.927C628.029 437.442 626.87 437.39 625.968 436.773L596.516 417.174Z" fill="#9BCEFD"/>
<path d="M596.516 412.029C599.092 412.029 630.013 394.024 630.013 394.024L660.934 414.601L628.648 431.963C627.9 432.375 626.998 432.323 626.277 431.86L596.516 412.029Z" fill="#0986E2"/>
<path d="M645.474 412.029C645.474 412.029 630.014 424.89 611.977 412.029L614.038 398.911L616.434 383.633L618.753 368.74L621.51 351.147L624.474 332.242C624.706 330.801 625.942 329.721 627.411 329.721H630.039C631.508 329.721 632.771 330.801 632.977 332.242L635.94 351.147L638.697 368.715L641.016 383.633L643.413 398.911L645.474 412.029Z" fill="#0986E2"/>
<path d="M641.018 383.633C637.797 384.508 633.493 385.022 628.726 385.022C623.96 385.022 619.656 384.508 616.435 383.633L614.039 398.911C617.775 399.863 622.98 400.455 628.726 400.455C634.473 400.455 639.678 399.863 643.414 398.911L641.018 383.633Z" fill="#9BCEFD"/>
<path d="M638.698 368.715C635.838 369.255 632.436 369.589 628.726 369.589C625.015 369.589 621.588 369.281 618.754 368.741L621.511 351.147C623.727 351.43 626.149 351.584 628.726 351.584C631.303 351.584 633.725 351.43 635.941 351.147L638.698 368.715Z" fill="#9BCEFD"/>
</g>
<defs>
<clipPath id="clip0">
<rect width="732" height="493" fill="white"/>
</clipPath>
</defs>
</svg>
