<svg width="54" height="54" viewBox="0 0 54 54" fill="none" xmlns="http://www.w3.org/2000/svg">
<g clip-path="url(#clip0)">
<path d="M42.0606 13.6652C42.0606 12.715 41.6898 11.8206 41.0177 11.1485L37.6621 7.79288C36.9994 7.13008 36.0586 6.75 35.1224 6.75H34.9185V13.8691H42.0607L42.0606 13.6652Z" fill="#FC8946"/>
<path d="M32.9188 31.2349C33.1459 30.5454 33.5422 29.9035 34.059 29.3833L42.0927 21.3819V16.2422H33.7554C33.0996 16.2422 32.6074 15.7115 32.6074 15.0557V6.75H14.8096C12.8467 6.75 11.25 8.34674 11.25 10.3096V43.6904C11.25 45.6533 12.8467 47.25 14.8096 47.25H38.5015C40.4643 47.25 42.0927 45.6533 42.0927 43.6904V34.8349L40.7888 36.1072C40.2605 36.6309 39.6418 37.0121 38.9442 37.2451L35.1714 38.5046L34.5967 38.5359C33.6465 38.5359 32.7474 38.0736 32.1889 37.2996C31.635 36.529 31.4844 35.5302 31.7856 34.6276L32.9188 31.2349ZM17.1826 28.1074H29.0093C29.6652 28.1074 30.1959 28.6381 30.1959 29.2939C30.1959 29.9498 29.6652 30.4805 29.0093 30.4805H17.1826C16.5268 30.4805 15.9961 29.9498 15.9961 29.2939C15.9961 28.6381 16.5268 28.1074 17.1826 28.1074ZM15.9961 24.5479C15.9961 23.892 16.5268 23.3613 17.1826 23.3613H29.0093C29.6652 23.3613 30.1959 23.892 30.1959 24.5479C30.1959 25.2037 29.6652 25.7344 29.0093 25.7344H17.1826C16.5268 25.7344 15.9961 25.2037 15.9961 24.5479ZM15.9961 34.04C15.9961 33.3842 16.5268 32.8535 17.1826 32.8535H29.0093C29.6652 32.8535 30.1959 33.3842 30.1959 34.04C30.1959 34.6959 29.6652 35.2266 29.0093 35.2266H17.1826C16.5268 35.2266 15.9961 34.6959 15.9961 34.04ZM33.7554 39.9727C34.4113 39.9727 34.9419 40.5033 34.9419 41.1592C34.9419 41.815 34.4113 42.3457 33.7554 42.3457H26.6363C25.9805 42.3457 25.4498 41.815 25.4498 41.1592C25.4498 40.5033 25.9805 39.9727 26.6363 39.9727H33.7554ZM17.1826 20.9883C16.5268 20.9883 15.9961 20.4576 15.9961 19.8018C15.9961 19.1459 16.5268 18.6152 17.1826 18.6152H33.7554C34.4113 18.6152 34.9419 19.1459 34.9419 19.8018C34.9419 20.4576 34.4113 20.9883 33.7554 20.9883H17.1826Z" fill="#FC8946"/>
<path d="M35.0687 32.2844L34.0364 35.3814C33.8817 35.8453 34.3231 36.2866 34.7871 36.1316L37.8822 35.0979L35.0687 32.2844Z" fill="#FC8946"/>
<path d="M44.2841 22.5152L36.4697 30.3295L39.8398 33.6997C41.606 31.9332 45.0426 28.4961 47.6538 25.8849L44.2841 22.5152Z" fill="#FC8946"/>
<path d="M51.0533 19.1119C50.6362 18.6924 50.0221 18.4526 49.3709 18.4526C48.7196 18.4526 48.1056 18.6924 47.6861 19.1131L45.9619 20.8372L49.3315 24.2068C50.2754 23.2628 50.9278 22.6104 51.0558 22.4825C51.9826 21.5542 51.9826 20.0423 51.0533 19.1119Z" fill="#FC8946"/>
<path d="M51.0557 22.482C51.0557 22.482 51.0557 22.4819 51.0558 22.4818C51.0585 22.4792 51.0597 22.478 51.0619 22.4758C51.0597 22.478 51.0585 22.4792 51.0557 22.482Z" fill="#FC8946"/>
<path d="M51.062 22.4748C51.0658 22.471 51.0702 22.4666 51.0725 22.4643C51.0702 22.4666 51.0658 22.471 51.062 22.4748Z" fill="#FC8946"/>
<path d="M51.0728 22.4654C51.0804 22.4577 51.0805 22.4576 51.0728 22.4654V22.4654Z" fill="#FC8946"/>
</g>
<defs>
<clipPath id="clip0">
<rect width="40.5" height="40.5" fill="white" transform="translate(11.25 6.75)"/>
</clipPath>
</defs>
</svg>
