<svg width="54" height="54" viewBox="0 0 54 54" fill="none" xmlns="http://www.w3.org/2000/svg">
<g clip-path="url(#clip0)">
<path d="M16.3425 40.5003C14.9691 40.5003 13.8557 41.6137 13.8557 42.9871V45.1187C13.8557 45.5111 13.5376 45.8292 13.1451 45.8292C12.7527 45.8292 12.4346 45.5111 12.4346 45.1187C12.4346 43.7453 11.3212 42.6319 9.94778 42.6319C8.57433 42.6319 7.46094 43.7453 7.46094 45.1187V46.895H18.8294V42.9871C18.8294 41.6137 17.716 40.5003 16.3425 40.5003Z" fill="#0175D8"/>
<path d="M44.7632 42.6315C43.3898 42.6315 42.2764 43.7449 42.2764 45.1183C42.2764 45.5108 41.9583 45.8289 41.5659 45.8289C41.1734 45.8289 40.8553 45.5108 40.8553 45.1183V42.9086C40.8338 41.5351 39.7029 40.4392 38.3294 40.4608C36.956 40.4824 35.8601 41.6133 35.8817 42.9868V46.8947H47.2501V45.1183C47.2501 43.7449 46.1367 42.6315 44.7632 42.6315Z" fill="#0175D8"/>
<path d="M42.1982 42.17C42.6345 41.7994 43.146 41.5279 43.6974 41.3742V27.6079C43.1996 27.21 39.1496 23.9629 26.9996 15.8629C12.8246 25.9879 12.8246 25.9879 11.0132 27.3982V41.3742C11.5683 41.5276 12.0827 41.8018 12.5195 42.1771C12.935 40.2209 14.7604 38.894 16.7494 39.1024C18.7384 39.3108 20.2491 40.9872 20.25 42.9871V46.895H34.4605V42.9871C34.4747 40.9948 35.9829 39.3309 37.9643 39.1216C39.9457 38.9124 41.7682 40.2246 42.1982 42.17Z" fill="#0175D8"/>
<path d="M26.9596 40.5003C26.8197 40.5003 26.7007 40.4536 26.6028 40.3603C26.5188 40.2803 26.4769 40.1736 26.4769 40.0403V38.6403C25.4974 38.5603 24.6508 38.347 23.9372 38.0003C23.2236 37.6403 22.6779 37.2003 22.3001 36.6803C21.9363 36.147 21.7404 35.5803 21.7124 34.9803C21.7124 34.8736 21.7544 34.7803 21.8383 34.7003C21.9363 34.607 22.0482 34.5603 22.1742 34.5603H23.2656C23.5174 34.5603 23.6923 34.6936 23.7903 34.9603C23.9302 35.5203 24.294 36.0003 24.8817 36.4003C25.4694 36.8003 26.302 37.0003 27.3794 37.0003C28.5408 37.0003 29.4153 36.807 30.003 36.4203C30.5907 36.0203 30.8845 35.467 30.8845 34.7603C30.8845 34.307 30.7376 33.9403 30.4437 33.6603C30.1639 33.3803 29.7441 33.1336 29.1844 32.9203C28.6247 32.707 27.7852 32.4403 26.6658 32.1203C25.5743 31.827 24.7068 31.5136 24.0631 31.1803C23.4195 30.847 22.9367 30.4336 22.6149 29.9403C22.2931 29.447 22.1322 28.827 22.1322 28.0803C22.1322 27.0936 22.517 26.2603 23.2866 25.5803C24.0562 24.887 25.1196 24.4736 26.4769 24.3403V22.9603C26.4769 22.827 26.5188 22.7203 26.6028 22.6403C26.7007 22.547 26.8197 22.5003 26.9596 22.5003H27.7572C27.8971 22.5003 28.009 22.547 28.093 22.6403C28.1909 22.7203 28.2399 22.827 28.2399 22.9603V24.3603C29.1354 24.467 29.898 24.707 30.5277 25.0803C31.1714 25.4536 31.6541 25.8936 31.9759 26.4003C32.3117 26.907 32.4937 27.4136 32.5216 27.9203C32.5216 28.027 32.4797 28.1203 32.3957 28.2003C32.3257 28.2803 32.2208 28.3203 32.0809 28.3203H30.9685C30.6746 28.3203 30.4927 28.1936 30.4228 27.9403C30.3388 27.3803 30.01 26.9203 29.4363 26.5603C28.8626 26.187 28.142 26.0003 27.2744 26.0003C26.3229 26.0003 25.5743 26.1736 25.0286 26.5203C24.4829 26.867 24.2101 27.3803 24.2101 28.0603C24.2101 28.5136 24.336 28.887 24.5879 29.1803C24.8537 29.4736 25.2525 29.7336 25.7842 29.9603C26.3159 30.1736 27.0925 30.4203 28.114 30.7003C29.3034 31.007 30.2409 31.327 30.9265 31.6603C31.6121 31.9803 32.1228 32.387 32.4587 32.8803C32.7945 33.3603 32.9624 33.9736 32.9624 34.7203C32.9624 35.8536 32.5426 36.767 31.7031 37.4603C30.8635 38.1403 29.7091 38.5403 28.2399 38.6603V40.0403C28.2399 40.1736 28.1909 40.2803 28.093 40.3603C28.009 40.4536 27.8971 40.5003 27.7572 40.5003H26.9596Z" fill="white"/>
<path d="M47.2392 21.9397C47.1966 21.6344 47.0319 21.358 46.7813 21.1714L27.719 6.98737C27.2942 6.67128 26.706 6.67128 26.2811 6.98737L7.21877 21.1714C6.96802 21.3579 6.80333 21.6344 6.76085 21.9397C6.71837 22.2451 6.80167 22.5545 6.9923 22.7999L9.6646 26.238L26.2811 13.8738C26.706 13.5577 27.2941 13.5577 27.719 13.8738L44.3355 26.238L47.0077 22.7999C47.1984 22.5545 47.2816 22.2452 47.2392 21.9397Z" fill="#0175D8"/>
</g>
<defs>
<clipPath id="clip0">
<rect width="40.5" height="40.5" fill="white" transform="translate(6.75 6.75)"/>
</clipPath>
</defs>
</svg>
