<svg width="678" height="551" viewBox="0 0 678 551" fill="none" xmlns="http://www.w3.org/2000/svg">
<path opacity="0.6" fill-rule="evenodd" clip-rule="evenodd" d="M4.5 519.5L40.5 531.5C58.5438 530.172 84.1699 527.735 111.041 524.254L116 549.5H144.5C167.026 536.397 210.232 510.469 222.76 500.188C225.474 498.99 227.9 497.76 230 496.5C270 472.5 45.5 493.5 4.5 519.5Z" fill="#A7AEB8"/>
<path d="M292.422 228.597C265.251 231.184 195.096 292.093 195.096 292.093L149.319 243.77L236.785 179.446L292.422 228.597Z" fill="#9BCEFD"/>
<path d="M260.075 243.045C260.114 249.435 261.809 255.32 251.018 266.108C247.563 269.561 239.981 274.839 233.071 274.839C223.083 274.839 226.434 264.814 226.434 264.814C226.434 264.814 231.609 262.227 232.903 258.347C234.081 254.829 231.454 252.074 233.071 247.223C234.961 241.545 236.901 243.123 238.131 245.192C238.92 246.538 239.243 248.103 239.192 249.668C239.114 251.944 239.373 254.454 243.254 255.747C243.254 255.747 245.713 254.221 248.43 250.573C248.43 250.586 260.075 242.968 260.075 243.045Z" fill="#FFEAC9"/>
<path d="M39.7144 371.486C39.7144 371.486 46.6238 350.778 39.7144 316.256C32.8051 281.733 18.9993 240.316 60.4295 233.422C101.86 226.528 129.484 233.422 150.199 267.945C170.914 302.467 136.394 385.3 136.394 385.3C136.394 385.3 74.2482 399.102 39.7144 371.486Z" fill="#0265CD"/>
<path d="M139.848 229.969C139.848 229.969 139.848 223.062 132.939 229.969C126.029 236.876 126.029 243.77 126.029 243.77C126.029 243.77 138.321 260.223 143.135 257.571C148.789 254.454 146.744 243.77 146.744 243.77L139.848 229.969Z" fill="#0265CD"/>
<path d="M215.812 278.293L220.715 263.586C221.776 260.417 225.464 258.994 228.349 260.676C236.022 265.151 248.288 273.442 243.423 278.305C236.527 285.2 215.812 278.293 215.812 278.293Z" fill="#0265CD"/>
<path d="M129.365 255.178C117.384 257.817 109.349 268.966 109.491 281.241C109.621 292.921 114.046 308.378 132.937 319.709C167.47 340.417 175.971 337.248 185.028 334.661C199.209 330.613 227.727 310.086 233.226 291.486C234.623 286.777 235.503 284.566 233.096 280.297C229.758 274.36 224 267.078 215.797 267.078C202.832 267.078 193.917 283.039 183.243 294.939C182.04 296.284 179.918 296.233 178.779 294.823C170.395 284.423 155.204 249.5 129.365 255.178Z" fill="#5DBFFB"/>
<path d="M120.334 178.153C120.334 178.153 129.391 178.153 124.216 166.512C118.937 154.638 103.514 141.936 94.4564 145.816C85.3992 149.697 99.632 160.044 71.1665 163.925C42.701 167.805 58.2276 188.501 58.2276 188.501L65.9909 213.076L78.9298 219.544L112.571 204.022L120.334 178.153Z" fill="#0E1343"/>
<path d="M43.1678 457.786C43.1678 457.786 22.4527 443.985 8.63404 457.786C-1.54883 467.965 -0.474903 496.939 0.806042 511.438C1.2589 516.561 4.67476 520.907 9.5527 522.523L37.0348 531.681C41.0847 533.026 45.5356 532.186 48.8092 529.443C54.3729 524.8 61.4375 517.466 56.9736 513.004C50.0642 506.096 36.2585 506.096 36.2585 506.096L43.1678 457.786Z" fill="#0E1343"/>
<path d="M70.7927 243.77L69.874 231.184L65.9924 213.076C65.9924 213.076 91.8701 219.556 91.8701 198.848C84.1068 184.62 102.221 180.739 102.221 191.087C102.221 201.435 111.278 208.342 111.278 201.435C111.278 194.528 105.314 174.738 112.223 174.738C119.132 174.738 126.029 167.831 126.029 188.539C126.029 209.247 118.615 228.158 104.809 235.065C91.0032 241.972 70.7927 243.77 70.7927 243.77Z" fill="#FFEAC9"/>
<path d="M126.042 437.078C126.042 437.078 112.236 450.879 91.5077 450.879C74.8554 450.879 45.0961 449.34 34.0463 448.732C31.8855 448.615 30.2164 450.582 30.6822 452.69L38.8207 485.996L184.732 488.855L181.277 443.985L126.042 437.078Z" fill="#0265CD"/>
<path d="M107.397 484.703C107.397 484.703 103.515 476.942 108.768 468.133L129.483 475.04L115.677 481.948L107.397 484.703Z" fill="#0175D8"/>
<path d="M98.4172 494.236V528.473C98.4172 539.52 106.84 548.768 117.838 549.738C131.282 550.915 146.757 551.432 146.757 547.526C146.757 540.619 153.666 526.818 132.951 526.818V478.494L120.633 476.037C109.131 473.734 98.4172 482.517 98.4172 494.236Z" fill="#0E1343"/>
<path d="M165.622 241.533L178.108 237.769C179.673 237.38 180.035 235.298 178.677 234.418C175.584 232.401 170.797 235.065 163.034 233.772L177.266 223.424C177.266 223.424 167.472 223.062 160.562 223.062C153.653 223.062 139.847 229.969 139.847 229.969L146.757 243.77L165.622 241.533Z" fill="#FFEAC9"/>
<path d="M51.7583 179.446C51.7583 179.446 14.6627 187.634 28.4684 201.435C42.2742 215.236 64.3996 205.794 78.9299 196.261C93.4602 186.728 106.102 170.392 106.102 170.392L51.7583 179.446Z" fill="#FFB78F"/>
<path d="M41.3823 371.486H39.7132C39.7132 371.486 22.4528 409.462 43.1679 423.263C63.883 437.065 181.29 464.68 181.29 464.68L108.781 468.134C108.781 468.134 132.951 478.494 132.951 499.202C132.951 499.202 218.929 509.899 236.539 492.295C260.709 468.134 233.084 454.319 226.175 447.425C215.255 436.508 136.405 385.287 136.405 385.287L79.1896 374.888C66.7036 372.624 54.0494 371.486 41.3823 371.486Z" fill="#0986E2"/>
<path d="M51.7599 179.446C51.7599 179.446 95.7519 193.674 125.511 172.979C129.108 162.204 124.127 143.643 94.4581 141.936C88.0145 141.561 74.364 144.225 68.5804 147.11C53.0537 154.87 51.7599 158.285 51.7599 179.446Z" fill="#FC8946"/>
<path d="M558.316 171.039L551.847 174.919L538.908 165.865L545.377 161.984L558.316 171.039Z" stroke="#E27474" stroke-miterlimit="10"/>
<path d="M554.434 171.039L551.846 172.332L542.789 165.865L545.377 164.572L554.434 171.039Z" stroke="#E27474" stroke-miterlimit="10"/>
<path d="M544.084 174.919V182.68L541.496 180.093V172.332L544.084 174.919Z" stroke="#E27474" stroke-miterlimit="10"/>
<path d="M549.257 178.799V186.56L546.67 183.973V176.212L549.257 178.799Z" stroke="#E27474" stroke-miterlimit="10"/>
<path d="M673.497 401.921H670.236V405.763L418.576 264.168L205.033 390.28H196.248L194.087 391.574V396.748L196.312 398.041L439.084 538.834C443.949 541.654 449.94 541.654 454.805 538.847L678 409.682V404.508L673.497 401.921Z" fill="#0265CD"/>
<path d="M678 404.508L670.236 408.971L454.054 533.065C449.707 535.562 444.376 535.562 440.028 533.052L205.331 398.041L198.525 394.122L194.087 391.574L196.248 390.28L419.87 256.407L673.497 401.921L678 404.508Z" fill="#0986E2"/>
<path d="M487.151 317.2V427.144L420.516 388.987V219.544L487.151 317.2Z" fill="#F7F7F7"/>
<path d="M420.517 219.544V339.836L414.837 356.211L414.099 356.676L413.621 356.987L394.911 369.055L381.054 377.993V242.179L420.517 219.544Z" fill="#FEB78F"/>
<path d="M420.518 220.837L381.701 242.826V232.478L420.518 209.196V220.837Z" fill="#FC8946"/>
<path d="M551.847 221.484L538.908 204.669V165.865L551.847 174.919V221.484Z" stroke="#E27474" stroke-miterlimit="10"/>
<path d="M558.315 216.31L551.845 221.483V174.919L558.315 171.038V216.31Z" stroke="#E27474" stroke-miterlimit="10"/>
<path d="M292.423 293.271L291.776 326.254V385.753L381.054 434.904V377.992L381.701 242.826L292.423 293.271Z" fill="#F7F7F7"/>
<path d="M475.506 370.231L432.808 345.656V256.407L475.506 319.787V370.231Z" fill="#FFB78F"/>
<path d="M456.72 291.899L456.112 359.069L456.099 359.884L439.278 349.536V349.381V266.004L456.72 291.899Z" fill="#FC8946"/>
<path d="M464.508 297.797H463.214V363.764H464.508V297.797Z" fill="#F7F7F7"/>
<path d="M475.507 370.231L470.331 367.644V312.026L475.507 319.786V370.231Z" fill="#FC8946"/>
<path d="M597.001 451L447.501 473.5L606.001 363L678.001 404.5L597.001 451Z" fill="#0175D8"/>
<path d="M447.042 399.981L381.054 362.471L421.164 337.895L487.152 376.699L447.042 399.981Z" fill="#F87728"/>
<path d="M447.041 398.688V473.709L434.749 466.478L422.457 459.248L419.87 457.734L391.404 440.997L381.053 434.905L380.406 360.531L447.041 398.688Z" fill="#F7F7F7"/>
<path d="M370.702 261.581V429.2L358.41 422.436L349.353 417.456L348.059 416.744L341.577 413.174L333.18 408.544L329.945 406.772L305.361 393.229L300.832 390.746V301.678L301.971 301.031L304.714 299.453L328.327 285.898L329.647 285.148L329.945 284.98L333.826 282.755L340.943 278.668L348.059 274.58L349.353 273.83L370.702 261.581Z" fill="#FFB78F"/>
<path d="M381.7 242.826L285.953 297.151V288.097L381.7 232.478V242.826Z" fill="#FFEAC9"/>
<path d="M370.702 261.581V429.2L358.41 422.436V268.695L370.702 261.581Z" fill="#FC8946"/>
<path d="M329.944 284.979V406.771L305.36 393.229L304.713 299.453L328.327 285.898L329.647 285.147L329.944 284.979Z" fill="#FC8946"/>
<path d="M487.153 450.426L447.042 473.708V398.688L487.799 374.759L487.153 450.426Z" fill="#FFB78F"/>
<path d="M435.395 410.769L434.748 466.452V466.478L399.063 445.498L391.403 440.997V387.047L414.215 399.347L424.229 404.754L430.401 408.078L435.395 410.769Z" fill="#FFB78F"/>
<path d="M434.75 466.478L435.397 410.769L424.231 404.754L422.458 403.862V459.248L434.75 466.478Z" fill="#FC8946"/>
<path d="M423.105 400.628L422.458 459.248L419.87 457.734L420.517 400.628H423.105Z" fill="#F7F7F7"/>
<path opacity="0.57" d="M447.042 375.405V398.688L446.395 398.325L428.28 388.016L426.986 387.292L410.166 377.721L408.872 376.996L394.911 369.054L390.758 366.687L389.464 365.963L381.054 361.177V337.895L389.464 342.681L390.758 343.405L408.872 353.714L410.166 354.438L414.099 356.676L426.986 364.01L428.28 364.734L446.395 375.043L447.042 375.405Z" fill="#F7F7F7"/>
<path d="M608.777 380.579L487.152 450.426V317.2L608.777 247.353V380.579Z" fill="#FEB78F"/>
<path d="M598.425 306.852L507.853 358.59V337.895L598.425 286.157V306.852Z" fill="#FC8946"/>
<path d="M598.426 343.069L525.968 385.753V365.058L598.426 323.667V343.069Z" fill="#FC8946"/>
<path d="M504.207 325.596C499.227 328.43 492.907 326.968 489.678 322.235L420.516 220.837L547.963 143.876L622.362 258.347L504.207 325.596Z" fill="#FC8946"/>
<path d="M414.215 399.347C414.072 403.732 412.804 409.605 408.224 415.503C399.167 427.144 391.403 424.557 392.697 433.611C393.603 439.975 397.083 443.804 399.063 445.498L391.403 440.997V387.047L414.215 399.347Z" fill="#FFEAC9"/>
<path d="M435.398 410.769L434.751 466.452L430.455 463.891C430.455 463.891 428.928 463.361 430.222 459.48C431.516 455.6 428.928 451.719 427.634 436.198C426.742 425.436 428.954 414.054 430.403 408.078L435.398 410.769Z" fill="#FFEAC9"/>
<path d="M622.363 251.88H615.894V258.347H622.363V251.88Z" fill="#FC8946"/>
<path d="M329.647 285.148L348.059 295.224L349.353 295.935L370.702 307.628V309.103L349.353 297.41L348.059 296.699L328.327 285.898L329.647 285.148Z" fill="#F7F7F7"/>
<path d="M349.352 273.83V417.456L348.058 416.744V274.58L349.352 273.83Z" fill="#F7F7F7"/>
<path d="M370.701 337.598V339.072L349.352 327.703L348.058 327.017L300.831 301.885L301.97 301.031L348.058 325.555L349.352 326.241L370.701 337.598Z" fill="#F7F7F7"/>
<path d="M370.701 388.909L349.352 377.552L348.058 376.854L300.831 351.735V350.26L348.058 375.392L349.352 376.078L370.701 387.434V388.909Z" fill="#F7F7F7"/>
<path d="M370.701 412.101V413.563L349.352 402.206L348.058 401.521L300.831 376.389V374.927L348.058 400.046L349.352 400.745L370.701 412.101Z" fill="#F7F7F7"/>
<path d="M526.614 323.667H525.32V353.417H526.614V323.667Z" fill="#FFB78F"/>
<path d="M544.729 313.319H543.435V344.362H544.729V313.319Z" fill="#FFB78F"/>
<path d="M562.844 301.678H561.55V331.428H562.844V301.678Z" fill="#FFB78F"/>
<path d="M580.959 292.624H579.665V321.08H580.959V292.624Z" fill="#FFB78F"/>
<path d="M544.729 350.829H543.435V381.873H544.729V350.829Z" fill="#FFB78F"/>
<path d="M562.844 340.482H561.55V368.938H562.844V340.482Z" fill="#FFB78F"/>
<path d="M582.252 328.841H580.958V359.884H582.252V328.841Z" fill="#FFB78F"/>
<path d="M426.985 207.902V220.837H420.516V209.196L422.806 207.902H426.985Z" fill="#FC8946"/>
<path d="M622.847 251.471L502.989 319.41C499.803 321.216 495.763 320.261 493.723 317.219L423.602 212.667L421.001 208.787L423.291 207.494L548.448 137L622.847 251.471Z" fill="#FFEAC9"/>
<path d="M390.755 343.405V366.687L389.461 365.963V342.681L390.755 343.405Z" fill="#F7F7F7"/>
<path d="M410.163 354.438V377.721L408.87 376.996V353.714L410.163 354.438Z" fill="#F7F7F7"/>
<path d="M428.279 364.734V388.016L426.985 387.292V364.01L428.279 364.734Z" fill="#F7F7F7"/>
<path d="M467.095 363.764V387.047L465.802 387.797V364.514L467.095 363.764Z" fill="#FFEAC9"/>
<path d="M447.687 375.03V398.312L447.04 398.687L446.393 398.325V375.043L447.04 375.405L447.687 375.03Z" fill="#F7F7F7"/>
<path d="M506.559 246.059L493.621 229.244V190.44L506.559 199.495V246.059Z" fill="#F7F7F7"/>
<path opacity="0.57" d="M487.152 352.123V375.405L467.097 387.046L465.803 387.796L447.689 398.312L447.042 398.687V375.405L447.689 375.03L465.803 364.514L467.097 363.764L487.152 352.123Z" fill="#F7F7F7"/>
<path d="M487.152 351.502V352.835L447.093 376.156L447.042 376.13L446.77 375.962L421.371 361.423L413.621 356.987L381.054 338.361V336.873L414.837 356.211L421.384 359.949L447.171 374.759L486.505 351.476L487.152 351.502Z" fill="#F7F7F7"/>
<path d="M503.972 203.375V211.136L501.384 208.549V200.788L503.972 203.375Z" fill="#FFB78F"/>
<path d="M513.029 240.885L506.56 246.059V199.495L513.029 195.614V240.885Z" fill="#FEB78F"/>
<path d="M513.029 195.615L506.559 199.495L493.621 190.441L500.09 186.56L513.029 195.615Z" fill="#F87728"/>
<path d="M509.148 195.614L506.561 196.908L497.503 190.44L500.091 189.147L509.148 195.614Z" fill="#FFB78F"/>
<path d="M498.796 199.495V207.256L496.208 204.669V196.908L498.796 199.495Z" fill="#FFB78F"/>
<path d="M65.992 226.011C65.992 226.011 100.927 233.772 107.396 228.598C113.866 223.424 112.572 238.946 111.278 241.532C109.984 244.119 69.8737 251.88 60.8165 238.946C58.2287 224.718 65.992 226.011 65.992 226.011Z" fill="#5DBFFB"/>
<g clip-path="url(#clip0)">
<path d="M347.302 108.859L348.226 101.33C348.226 101.33 361.839 91.3507 361.619 90.5401L358.168 78.3589C357.924 77.5155 341.028 75.9323 341.028 75.9323L336.28 69.8904C336.28 69.8904 338.595 53.1832 337.855 52.7586L326.761 46.3905C325.993 45.9498 313.138 56.6569 313.138 56.6569L305.526 55.6172C305.526 55.6172 295.185 41.9517 294.373 42.1517L282.108 45.3368C281.256 45.5635 279.979 62.2627 279.979 62.2627L273.953 66.8632C273.953 66.8632 257.027 64.2362 256.608 64.9665L250.368 75.8363C249.939 76.5853 260.997 89.511 260.997 89.511L260.079 97.0188C260.079 97.0188 246.456 107.005 246.68 107.818L250.131 120.011C250.361 120.834 267.273 122.414 267.273 122.414L272.014 128.477C272.014 128.477 269.691 145.167 270.44 145.597L281.534 151.965C282.297 152.403 295.166 141.704 295.166 141.704L302.783 142.746C302.783 142.746 313.105 156.401 313.922 156.204L326.191 153.021C327.028 152.811 328.306 136.099 328.306 136.099L334.341 131.504C334.341 131.504 351.283 134.115 351.702 133.385L357.936 122.524C358.368 121.783 347.302 108.859 347.302 108.859ZM295.055 115.029C286.138 109.91 282.947 98.6189 287.964 89.8791C292.975 81.1486 304.334 78.2087 313.252 83.3274C322.183 88.4542 325.36 99.7372 320.348 108.468C315.329 117.212 303.987 120.155 295.055 115.029Z" fill="#CBE9FF"/>
<path d="M400.994 122.85L402.876 119.723C402.876 119.723 410.813 118.017 410.875 117.617L411.752 111.599C411.801 111.179 404.691 107.16 404.691 107.16L403.794 103.583C403.794 103.583 408.102 96.7078 407.853 96.3719L404.234 91.3886C403.977 91.0353 396.224 93.2323 396.224 93.2323L393.095 91.268C393.095 91.268 391.238 83.238 390.838 83.1763L384.815 82.1651C384.415 82.0913 380.568 89.1744 380.568 89.1744L377.006 90.0118C377.006 90.0118 370.097 85.5357 369.769 85.7707L364.889 89.3176C364.546 89.5686 366.868 97.4175 366.868 97.4175L364.997 100.526C364.997 100.526 357.059 102.243 356.998 102.643L356.122 108.669C356.074 109.077 363.186 113.091 363.186 113.091L364.073 116.675C364.073 116.675 359.78 123.558 360.029 123.894L363.653 128.868C363.901 129.216 371.642 127.049 371.642 127.049L374.787 128.998C374.787 128.998 376.634 137.022 377.039 137.099L383.047 138.102C383.456 138.181 387.309 131.089 387.309 131.089L390.855 130.267C390.855 130.267 397.775 134.725 398.108 134.492L402.988 130.946C403.312 130.696 400.994 122.85 400.994 122.85ZM389.236 117.389C385.314 120.241 379.749 119.312 376.824 115.299C373.913 111.307 374.73 105.72 378.657 102.858C382.563 100.01 388.137 100.957 391.049 104.949C393.954 108.963 393.142 114.54 389.236 117.389Z" fill="#CBE9FF"/>
</g>
<defs>
<clipPath id="clip0">
<rect width="160" height="160" fill="white" transform="translate(293.443 0.791992) rotate(29.8555)"/>
</clipPath>
</defs>
</svg>
