<svg width="640" height="548" viewBox="0 0 640 548" fill="none" xmlns="http://www.w3.org/2000/svg">
<g clip-path="url(#clip0)">
<path d="M184.823 204.272L131.736 174.81V56.9604L184.823 86.4228V204.272Z" fill="url(#paint0_linear)"/>
<path d="M183.84 204.272L236.928 174.81V56.9604L183.84 86.4228V204.272Z" fill="url(#paint1_linear)"/>
<path d="M183.84 86.4233L130.753 56.9609L185.807 27.4985L236.928 56.9609L183.84 86.4233Z" fill="#CBE9FF"/>
<path d="M267.404 260.251L228.08 238.645L227.097 158.901L266.421 183.06L267.404 260.251Z" fill="#5DBFFB"/>
<path d="M300.829 154.186L308.301 158.311L300.829 162.829V154.186Z" stroke="#3F0001" stroke-miterlimit="10"/>
<path d="M358.439 128.653L356.866 129.635L356.473 129.831L353.917 131.403L350.968 133.17L347.035 135.527L341.137 138.867L340.743 139.259L335.828 142.009L331.306 144.759L329.733 145.741L329.339 145.938L321.475 150.455L319.508 151.634L314.396 154.776L308.694 158.115L299.846 153.205L311.644 146.527V135.527L310.071 134.349L278.415 152.812L302.796 164.008L266.421 183.06L244.793 169.9L227.097 158.901L244.793 148.294L321.475 104.69L327.373 108.422L329.339 109.797H329.536L335.238 113.529L337.204 114.904L340.154 116.868L343.103 118.832L344.676 119.814L345.069 120.011L350.968 123.939L356.866 127.671L358.439 128.653Z" fill="#9BCEFD"/>
<path d="M300.632 166.561L298.076 164.989L297.486 164.597L278.414 152.812L310.07 134.349L311.643 133.366L316.165 130.813L321.671 127.67L326.783 124.528L327.373 124.331L329.339 123.153L335.238 119.617L337.204 118.439L338.973 117.457L340.153 116.868L340.35 116.671L343.102 118.439L345.069 119.617L350.967 123.153L356.866 126.688L358.832 127.867L362.764 130.224L366.894 132.581" fill="#9BCEFD"/>
<path d="M329.34 169.703H329.143" stroke="#3F0001" stroke-miterlimit="10"/>
<path d="M315.772 127.868V135.331L309.677 131.6L308.104 130.421L294.537 121.779V114.315L309.677 123.939L314.199 126.886L315.772 127.868Z" fill="#5DBFFB"/>
<path d="M315.772 127.867L294.537 114.314L317.149 100.762L338.384 114.314L315.772 127.867Z" fill="#CBE9FF"/>
<path d="M315.773 121.778L303.582 114.314L317.149 106.654L329.34 114.314L315.773 121.778Z" fill="#0265CD"/>
<path d="M338.384 121.779L315.772 135.331V127.868L338.384 114.315V121.779Z" fill="#0265CD"/>
<path d="M300.829 240.609L267.404 260.251L266.421 183.059L302.796 164.007L300.829 240.609Z" fill="#0265CD"/>
<path d="M329.34 169.703H329.143" stroke="#3F0001" stroke-miterlimit="10"/>
<path d="M241.843 189.541L233.979 185.613V175.792L241.843 179.72V189.541Z" fill="#FFEAC9"/>
<path d="M259.539 199.362L251.674 195.434V185.613L259.539 189.541V199.362Z" fill="#FFEAC9"/>
<path d="M241.843 230.788L233.979 226.86V217.039L241.843 220.968V230.788Z" fill="#FFEAC9"/>
<path d="M259.539 240.609L251.674 236.681V226.86L259.539 230.788V240.609Z" fill="#FFEAC9"/>
<path d="M249.708 215.075L241.843 211.147V201.326L249.708 205.254V215.075Z" fill="#FFEAC9"/>
<path d="M465.008 176.774L411.92 147.312V29.4626L465.008 58.925V176.774Z" fill="url(#paint2_linear)"/>
<path d="M465.008 176.774L518.095 147.312V29.4626L465.008 58.925V176.774Z" fill="url(#paint3_linear)"/>
<path d="M465.008 58.9247L411.92 29.4624L466.974 0L518.095 29.4624L465.008 58.9247Z" fill="#CBE9FF"/>
<path d="M373.186 97.2264L346.052 114.904L317.936 97.2264L346.052 85.4414L373.186 97.2264Z" fill="#FFEAC9"/>
<path d="M384.393 121.778L345.069 145.348L307.711 123.742L346.052 103.118L384.393 121.778Z" fill="#FFEAC9"/>
<path d="M345.069 183.649V300.516L335.238 295.017L327.373 290.696L295.914 273.018L296.111 246.502L296.897 168.525V164.793V156.151L345.069 183.649Z" fill="#FFB78F"/>
<path d="M394.224 271.054L345.069 300.516V183.649L394.224 155.169V271.054Z" fill="#FC8946"/>
<path d="M384.393 149.669L376.529 145.348L374.562 144.169L374.169 143.973L372.006 142.795L362.175 137.295L360.602 136.313L356.473 133.956L355.294 133.17L353.327 131.992L352.934 131.795L347.429 128.653L345.463 127.474L343.3 128.653L341.53 129.635L335.632 132.974L329.93 136.116L329.733 136.313L324.817 139.063L318.722 142.598L317.936 142.991L315.969 144.169L309.088 150.258L297.291 156.151L345.463 183.649L394.618 155.169L384.393 149.669Z" fill="#FFEAC9"/>
<path d="M384.393 121.778V153.204L376.528 157.918L374.562 159.097L374.169 159.293L366.697 163.811L364.731 164.989L356.866 169.703L354.9 170.882L345.069 176.774V144.366L384.393 121.778Z" fill="#FC8946"/>
<path d="M373.186 97.2261V123.349L368.664 125.706L366.697 126.885L361.782 129.635L359.816 130.813L354.9 133.759L352.934 134.741L346.642 138.473V112.939L373.186 97.2261Z" fill="#FC8946"/>
<path d="M346.642 112.939V138.473L341.137 135.527L339.17 134.349L333.272 131.206L331.306 130.028L325.407 126.885L323.441 125.706L318.132 122.76V97.2261L346.642 112.939Z" fill="#FFB78F"/>
<path d="M346.052 106.065L332.289 98.2083V86.4233L346.052 94.28V106.065Z" fill="#FFB78F"/>
<path d="M359.816 98.2083L346.052 106.065V94.28L359.816 86.4233V98.2083Z" fill="#FC8946"/>
<path d="M359.816 86.423L346.052 94.2796L332.289 86.423L346.052 80.5305L359.816 86.423Z" fill="#FFEAC9"/>
<path d="M347.035 76.6024H345.069L346.052 57.9429L347.035 76.6024Z" fill="#FFB78F"/>
<path d="M349.985 86.4231H342.12V78.5665C342.12 76.4059 343.89 74.6382 346.052 74.6382C348.215 74.6382 349.985 76.4059 349.985 78.5665V86.4231Z" fill="#FC8946"/>
<path d="M345.069 145.348V176.774L336.811 172.06L335.238 171.078L330.716 168.525L327.373 166.561L325.407 165.382L317.542 160.865L315.576 159.686L310.464 156.74L307.711 155.169V148.491V137.491V135.331V129.831V123.939V123.742L345.069 144.366V145.348V153.008V159.49" fill="#FFB78F"/>
<path d="M307.711 169.9V279.696L305.745 278.518V168.918H305.942L307.711 169.9Z" fill="#FFEAC9"/>
<path d="M317.542 136.116V162.043L315.576 160.668V134.938L317.346 136.116H317.542Z" fill="#FFEAC9"/>
<path d="M325.407 106.653V126.884L323.441 125.706V105.475L325.211 106.457L325.407 106.653Z" fill="#FFEAC9"/>
<path d="M333.272 110.975V131.206L331.306 130.028V109.797L333.272 110.975Z" fill="#FFEAC9"/>
<path d="M341.137 115.1V135.527L339.171 134.348V114.117L341.137 115.1Z" fill="#FFEAC9"/>
<path d="M354.9 133.759V113.135L352.934 114.117V134.741L354.9 133.759Z" fill="#FFEAC9"/>
<path d="M361.782 109.207V129.634L359.816 130.813V110.385L361.782 109.207Z" fill="#FFEAC9"/>
<path d="M368.664 105.279V125.706L366.698 126.885V106.457L368.664 105.279Z" fill="#FFEAC9"/>
<path d="M327.373 141.812V167.935L325.407 166.56V140.634L327.373 141.616V141.812Z" fill="#FFEAC9"/>
<path d="M337.204 147.312V173.828L335.238 172.453V146.134L337.204 147.312Z" fill="#FFEAC9"/>
<path d="M354.9 145.937V146.133V153.008V158.507V171.863L356.867 170.685V157.329V151.633V144.954V144.758L354.9 145.937Z" fill="#FFEAC9"/>
<path d="M366.698 139.455V164.596L364.731 165.971V140.437L366.698 139.455Z" fill="#FFEAC9"/>
<path d="M376.529 133.563V158.508L374.562 159.882V134.741L376.529 133.563Z" fill="#FFEAC9"/>
<path d="M317.542 175.203V285.195L315.576 284.017V174.024L317.542 175.203Z" fill="#FFEAC9"/>
<path d="M327.373 180.506V290.696L325.407 289.517V179.524L327.373 180.506Z" fill="#FFEAC9"/>
<path d="M337.204 185.809V296.195L335.238 295.016V184.827L337.204 185.809Z" fill="#FFEAC9"/>
<path d="M356.867 184.435V293.446L354.9 294.624V185.417L356.867 184.435Z" fill="#FFEAC9"/>
<path d="M366.698 178.739V287.553L364.731 288.731V179.917L366.698 178.739Z" fill="#FFEAC9"/>
<path d="M376.529 173.238V281.66L374.562 282.838V174.22L376.529 173.238Z" fill="#FFEAC9"/>
<path d="M386.359 167.543V275.769L384.393 276.947V168.722L386.359 167.543Z" fill="#FFEAC9"/>
<path d="M506.298 461.577L17.6958 179.72L69.8002 155.168L516.129 408.545L506.298 461.577Z" fill="#CBE9FF"/>
<path d="M51.1213 169.9L56.2335 172.846" stroke="white" stroke-miterlimit="10"/>
<path d="M66.6545 178.738L495.091 425.24" stroke="white" stroke-miterlimit="10" stroke-dasharray="6.06 6.06"/>
<path d="M500.203 428.186L505.315 431.133" stroke="white" stroke-miterlimit="10"/>
<path d="M549.555 190.523L345.069 312.301L390.292 337.835L555.453 239.627L549.555 190.523Z" fill="#CBE9FF"/>
<path d="M345.069 339.014L350.181 335.871" stroke="white" stroke-miterlimit="10"/>
<path d="M359.816 329.978L550.341 215.075" stroke="white" stroke-miterlimit="10" stroke-dasharray="5.8 5.8"/>
<path d="M555.257 212.129L560.369 209.183" stroke="white" stroke-miterlimit="10"/>
<path d="M474.446 300.516L449.278 289.909L415.263 308.569L438.464 320.943L474.446 300.516Z" fill="#0265CD"/>
<path d="M472.283 308.373L470.12 375.155L437.481 356.495L438.857 311.319L458.126 300.32L472.283 308.373Z" fill="#5DBFFB"/>
<path d="M438.464 357.084L414.083 343.924L415.262 308.569L438.464 320.943V357.084Z" fill="#5DBFFB"/>
<path d="M518.292 347.066L470.12 375.153L471.692 329.978L519.668 303.854L518.292 347.066Z" fill="#0265CD"/>
<path d="M535.202 367.1L502.169 386.742L503.152 353.351L536.775 335.281L535.202 367.1Z" fill="#0265CD"/>
<path d="M502.169 386.743L475.035 372.208L476.215 338.817L503.152 353.352L502.169 386.743Z" fill="#55B7F3"/>
<path d="M519.668 303.856L471.693 329.979L456.75 301.891L438.857 311.319L458.126 300.32L484.867 285.196L498.827 279.697L519.668 303.856Z" fill="#9BCEFD"/>
<path d="M536.774 335.282L512.197 320.158L476.215 338.817L503.152 353.352L536.774 335.282Z" fill="#9BCEFD"/>
<path d="M452.227 364.941L443.379 359.834L443.576 346.674L452.227 350.995V364.941Z" fill="#0265CD"/>
<path d="M451.244 337.246L443.969 333.317L444.362 322.122L451.637 326.05L451.244 337.246Z" fill="#FFEAC9"/>
<path d="M427.453 340.388L420.178 336.46L420.572 325.46L427.846 329.389L427.453 340.388Z" fill="#FFEAC9"/>
<path d="M464.811 343.532L457.536 339.604L457.929 328.604L465.204 332.533L464.811 343.532Z" fill="#FFEAC9"/>
<path d="M464.222 363.173L456.947 359.245L457.34 348.246L464.615 351.978L464.222 363.173Z" fill="#FFEAC9"/>
<path d="M491.355 371.618L484.08 367.69L484.473 356.691L491.748 360.619L491.355 371.618Z" fill="#FFEAC9"/>
<path d="M483.687 221.753L443.379 243.948V167.739L483.687 144.365V221.753Z" fill="#0265CD"/>
<path d="M443.379 243.948L403.072 220.575V144.365L443.379 167.739V243.948Z" fill="#5DBFFB"/>
<path d="M443.379 167.74L403.072 144.367L443.379 122.172L483.687 144.367L443.379 167.74Z" fill="#9BCEFD"/>
<path d="M443.183 140.241L416.836 124.725L442.396 109.601L469.923 124.725L443.183 140.241Z" fill="#9BCEFD"/>
<path d="M443.38 134.938L427.453 125.51L444.363 115.885L460.289 125.51L443.38 134.938Z" fill="#0265CD"/>
<path d="M469.924 144.366L443.183 160.079V140.241L469.924 124.724V144.366Z" fill="#0265CD"/>
<path d="M443.379 160.079L416.836 144.562V124.724L443.183 140.241L443.379 160.079Z" fill="#5DBFFB"/>
<path d="M415.853 174.025L409.364 169.901V159.294L415.853 163.419V174.025Z" fill="#FFEAC9"/>
<path d="M426.47 179.918L419.981 175.793V165.187L426.47 169.311V179.918Z" fill="#FFEAC9"/>
<path d="M437.088 185.417L430.599 181.292V170.686L437.088 174.81V185.417Z" fill="#FFEAC9"/>
<path d="M415.853 194.256L409.364 189.935V179.328L415.853 183.649V194.256Z" fill="#FFEAC9"/>
<path d="M426.47 200.148L419.981 195.827V185.22L426.47 189.542V200.148Z" fill="#FFEAC9"/>
<path d="M437.088 205.649L430.599 201.327V190.721L437.088 195.042V205.649Z" fill="#FFEAC9"/>
<path d="M472.086 173.042L478.378 168.721V158.115L472.086 162.436V173.042Z" fill="#FFEAC9"/>
<path d="M461.469 178.935L467.761 174.614V164.007L461.469 168.328V178.935Z" fill="#FFEAC9"/>
<path d="M450.851 184.827L457.143 180.506V169.9L450.851 174.221V184.827Z" fill="#FFEAC9"/>
<path d="M472.086 194.256L478.378 189.935V179.328L472.086 183.649V194.256Z" fill="#FFEAC9"/>
<path d="M461.469 199.952L467.761 195.827V185.22L461.469 189.542V199.952Z" fill="#FFEAC9"/>
<path d="M450.851 205.844L457.143 201.719V191.113L450.851 195.434V205.844Z" fill="#FFEAC9"/>
<path d="M472.086 214.291L478.378 210.166V199.56L472.086 203.685V214.291Z" fill="#FFEAC9"/>
<path d="M461.469 220.182L467.761 215.861V205.255L461.469 209.576V220.182Z" fill="#FFEAC9"/>
<path d="M450.851 226.075L457.143 221.754V211.147L450.851 215.468V226.075Z" fill="#FFEAC9"/>
<path d="M415.853 214.291L409.364 210.166V199.56L415.853 203.685V214.291Z" fill="#FFEAC9"/>
<path d="M426.47 220.183L419.981 216.059V205.452L426.47 209.577V220.183Z" fill="#FFEAC9"/>
<path d="M437.088 225.682L430.599 221.557V210.951L437.088 215.075V225.682Z" fill="#FFEAC9"/>
<path d="M149.432 459.613L96.3441 430.15V312.301L149.432 341.763V459.613Z" fill="url(#paint4_linear)"/>
<path d="M149.432 459.613L202.519 430.15V312.301L149.432 341.763V459.613Z" fill="url(#paint5_linear)"/>
<path d="M149.432 341.763L96.3441 312.301L151.398 282.839L202.519 312.301L149.432 341.763Z" fill="#CBE9FF"/>
<path d="M53.0876 310.337L0 280.875V163.025L53.0876 192.488V310.337Z" fill="url(#paint6_linear)"/>
<path d="M53.0875 310.337L106.175 280.875V163.025L53.0875 192.488V310.337Z" fill="url(#paint7_linear)"/>
<path d="M53.0876 192.487L0 163.025L55.0538 133.562L106.175 163.025L53.0876 192.487Z" fill="#CBE9FF"/>
<path d="M586.912 331.943L640 302.48V184.631L586.912 214.093V331.943Z" fill="url(#paint8_linear)"/>
<path d="M586.912 214.093L533.825 184.631L588.879 155.168L640 184.631L586.912 214.093Z" fill="#CBE9FF"/>
<path d="M345.069 473.362L291.982 443.9V326.05L345.069 355.513V473.362Z" fill="url(#paint9_linear)"/>
<path d="M345.069 473.362L398.157 443.9V326.05L345.069 355.513V473.362Z" fill="url(#paint10_linear)"/>
<path d="M345.069 355.512L291.982 326.05L347.035 296.588L398.157 326.05L345.069 355.512Z" fill="#CBE9FF"/>
<path d="M586.912 331.943L533.825 302.48V184.631L586.912 214.093V331.943Z" fill="url(#paint11_linear)"/>
<path d="M519.078 548L572.166 518.538V400.688L519.078 430.151V548Z" fill="url(#paint12_linear)"/>
<path d="M519.078 430.151L465.991 400.688L521.045 371.226L572.166 400.688L519.078 430.151Z" fill="#CBE9FF"/>
<path d="M519.087 548.312L466 518.849V401L519.087 430.462V548.312Z" fill="url(#paint13_linear)"/>
<path d="M279.201 332.925H277.235V340.782H279.201V332.925Z" fill="#0265CD"/>
<path d="M277.235 303.463L270.353 332.532C270.353 332.532 277.038 339.21 286.083 332.532L277.235 303.463Z" fill="#6DBBFA"/>
<path d="M414.869 411.491H412.903V419.348H414.869V411.491Z" fill="#0265CD"/>
<path d="M412.903 382.029L406.021 411.098C406.021 411.098 412.707 417.776 421.751 411.098L412.903 382.029Z" fill="#6DBBFA"/>
<path d="M456.16 433.097H454.194V440.954H456.16V433.097Z" fill="#0265CD"/>
<path d="M454.194 403.634L447.312 432.704C447.312 432.704 453.997 439.382 463.041 432.704L454.194 403.634Z" fill="#6DBBFA"/>
<g clip-path="url(#clip1)">
<path d="M209.709 259.855L201.289 264.719V272.879L209.709 277.742L218.128 272.879V264.719L209.709 259.855Z" fill="#FFEAC9"/>
<path d="M218.128 272.879L209.709 277.742V269.581L218.128 264.719V272.879Z" fill="#FC8946"/>
<path d="M201.289 272.879L209.709 277.742V269.581L201.289 264.719V272.879Z" fill="#FFB78F"/>
<path d="M202.44 266.048L201.696 266.961L201.982 267.127V267.747L202.897 268.276V267.655L203.185 267.822L202.44 266.048Z" fill="#0E1343"/>
<path d="M209.686 260.14L206.59 261.91L208.489 263.011L211.553 261.227L209.686 260.14Z" fill="white"/>
<path d="M209.717 260.57L210.121 260.805L207.857 262.095L207.453 261.859L209.717 260.57Z" fill="#FFB78F"/>
<path d="M210.294 260.929L210.698 261.165L208.434 262.454L208.03 262.219L210.294 260.929Z" fill="#FFB78F"/>
<g opacity="0.2">
<path opacity="0.2" d="M212.175 261.28L203.798 266.167L206.602 267.787L214.979 262.899L212.175 261.28Z" fill="white"/>
</g>
<g opacity="0.2">
<path opacity="0.4" d="M213.909 262.279L206.612 266.524L205.974 266.156L213.271 261.911L213.909 262.279Z" fill="#0265CD"/>
</g>
<path d="M227.539 278.792L227.489 278.756L227.489 278.756C227.486 278.753 227.483 278.75 227.48 278.748L224.617 276.631L222.945 270.831L221.767 270.15L221.69 270.106L218.128 268.049L209.709 272.9V277.742L201.293 272.882V276.967C201.293 277.451 201.552 277.899 201.97 278.141L209.709 282.61L219.119 288.044L219.615 288.072V288.095L219.763 288.08L220.024 288.095L220.108 288.046L227.865 283.567C227.865 283.567 227.865 283.567 227.865 283.567L227.894 283.549C227.914 283.538 227.929 283.523 227.941 283.506C228.001 283.443 228.037 283.359 228.037 283.269V279.847V279.794V279.781C228.037 279.391 227.852 279.024 227.539 278.792ZM227.441 279.504C227.441 279.504 227.441 279.504 227.441 279.504C227.441 279.504 227.441 279.504 227.441 279.504Z" fill="#6DBBFA"/>
<path d="M206.084 276.727L206.087 276.731C206.616 276.459 207.255 276.742 207.721 277.55C208.364 278.664 208.434 280.349 207.877 281.314C207.731 281.567 207.556 281.744 207.366 281.849L207.365 281.853L205.958 282.664L204.684 277.536L206.084 276.727Z" fill="#212938"/>
<path d="M217.267 283.15L217.27 283.155C217.799 282.882 218.438 283.165 218.905 283.973C219.548 285.087 219.617 286.772 219.061 287.737C218.914 287.99 218.739 288.167 218.549 288.272L218.548 288.276L217.141 289.088L215.867 283.959L217.267 283.15Z" fill="#212938"/>
<path d="M227.936 283.337L225.735 280.49L220.223 283.675C219.855 283.888 219.397 283.861 219.056 283.608L216.204 281.492L223.774 277.118L222.103 271.316L214.499 275.697L209.709 272.9V277.742L201.293 272.881V276.967C201.293 277.451 201.552 277.898 201.97 278.141L209.709 282.61L219.119 288.044L220.024 288.095L227.894 283.549C227.97 283.506 227.989 283.406 227.936 283.337Z" fill="#0986E2"/>
<path d="M224.617 276.631L222.945 270.831L214.499 275.698L216.204 281.492L224.617 276.631Z" fill="#0265CD"/>
<path d="M210.724 274.089L214.014 275.99L215.391 281.043L210.724 278.346V274.089Z" fill="#CBE9FF"/>
<path d="M215.057 276.033L216.572 281.307L224.265 276.832L222.742 271.56L215.057 276.033Z" fill="#CBE9FF"/>
<path d="M217.513 284.778C218.156 285.892 218.225 287.577 217.669 288.542C217.112 289.507 216.139 289.386 215.496 288.272C214.853 287.158 214.783 285.472 215.34 284.508C215.897 283.543 216.87 283.664 217.513 284.778Z" fill="#0E1343"/>
<path d="M217.059 285.564C217.413 286.177 217.451 287.104 217.145 287.635C216.839 288.166 216.303 288.099 215.949 287.486C215.596 286.873 215.557 285.946 215.864 285.415C216.17 284.884 216.705 284.95 217.059 285.564Z" fill="#F6F7F9"/>
<path d="M216.921 285.802C217.187 286.263 217.216 286.96 216.986 287.359C216.756 287.758 216.353 287.708 216.087 287.247C215.822 286.786 215.793 286.09 216.023 285.691C216.253 285.292 216.655 285.342 216.921 285.802Z" fill="#0265CD"/>
<path d="M216.862 285.905C217.09 286.3 217.115 286.898 216.917 287.241C216.72 287.583 216.375 287.54 216.147 287.145C215.918 286.75 215.894 286.152 216.091 285.809C216.289 285.467 216.634 285.51 216.862 285.905Z" fill="#F6F7F9"/>
<path d="M206.329 278.355C206.972 279.469 207.042 281.154 206.485 282.119C205.928 283.083 204.956 282.962 204.313 281.848C203.67 280.734 203.6 279.049 204.157 278.085C204.714 277.12 205.686 277.241 206.329 278.355Z" fill="#0E1343"/>
<path d="M205.876 279.14C206.23 279.753 206.268 280.681 205.962 281.212C205.655 281.743 205.12 281.676 204.766 281.063C204.412 280.45 204.374 279.522 204.68 278.991C204.987 278.461 205.522 278.527 205.876 279.14Z" fill="#F6F7F9"/>
<path d="M205.738 279.379C206.004 279.84 206.033 280.537 205.802 280.936C205.572 281.335 205.17 281.285 204.904 280.824C204.638 280.363 204.609 279.666 204.84 279.268C205.07 278.869 205.472 278.919 205.738 279.379Z" fill="#0265CD"/>
<path d="M205.679 279.482C205.907 279.877 205.932 280.475 205.734 280.817C205.537 281.16 205.191 281.117 204.963 280.721C204.735 280.326 204.71 279.728 204.908 279.386C205.105 279.044 205.451 279.086 205.679 279.482Z" fill="#F6F7F9"/>
<path d="M227.539 278.792L227.489 278.756L227.489 278.756C227.74 278.952 227.717 279.341 227.441 279.504C227.441 279.504 227.441 279.504 227.441 279.504H227.44C227.439 279.505 227.438 279.506 227.437 279.506L220.295 283.634C219.876 283.876 219.617 284.324 219.617 284.809L219.615 288.095L220.108 288.046L227.864 283.567C227.971 283.505 228.036 283.392 228.036 283.269V279.847V279.794V279.781C228.037 279.391 227.852 279.024 227.539 278.792Z" fill="#0265CD"/>
<path d="M221.011 285.405L220.155 285.903C220.082 285.945 220.037 286.023 220.037 286.107V286.175C220.037 286.259 220.128 286.312 220.2 286.27L221.056 285.772C221.13 285.73 221.175 285.652 221.175 285.567V285.5C221.175 285.416 221.084 285.363 221.011 285.405Z" fill="#F6F7F9"/>
<path d="M227.736 281.519L226.88 282.016C226.807 282.058 226.762 282.136 226.762 282.221V282.289C226.762 282.373 226.852 282.425 226.925 282.383L227.781 281.886C227.854 281.843 227.899 281.765 227.899 281.681V281.613C227.899 281.529 227.809 281.477 227.736 281.519Z" fill="#F6F7F9"/>
<g opacity="0.2">
<path opacity="0.6" d="M211.793 274.706L213.721 280.078L215.38 281.036L214.689 278.483L213.736 275.829L211.793 274.706Z" fill="white"/>
</g>
<g opacity="0.2">
<path opacity="0.6" d="M210.855 274.164L210.826 274.147L210.724 274.088V278.346L212.783 279.536L210.855 274.164Z" fill="white"/>
</g>
<path d="M221.905 283.582L225.722 281.384C226.102 281.165 226.576 281.44 226.576 281.878C226.576 282.331 226.334 282.75 225.942 282.976L222.125 285.179C221.745 285.398 221.27 285.124 221.27 284.685V284.68C221.27 284.227 221.512 283.808 221.905 283.582Z" fill="#0E1343"/>
<path d="M221.015 284.493C221.015 284.853 220.796 285.272 220.526 285.428C220.256 285.584 220.037 285.418 220.037 285.058C220.037 284.698 220.256 284.28 220.526 284.124C220.796 283.968 221.015 284.133 221.015 284.493Z" fill="#FFEAC9"/>
<path d="M227.696 280.641C227.696 281.001 227.477 281.419 227.207 281.575C226.937 281.731 226.718 281.565 226.718 281.205C226.718 280.845 226.937 280.427 227.207 280.271C227.477 280.115 227.696 280.28 227.696 280.641Z" fill="#FFEAC9"/>
<path d="M228.171 282.168V283.078C228.171 283.271 228.068 283.448 227.902 283.544L220.159 288.037C219.829 288.228 219.421 288.227 219.091 288.036L218.296 287.574V286.347L218.371 286.299L219.516 286.963C219.589 287.005 219.678 287.005 219.75 286.963L228.038 282.154V282.092L228.171 282.168Z" fill="#9BCEFD"/>
<g opacity="0.2">
<path opacity="0.6" d="M222.422 277.9L223.635 274.648L222.743 271.56L221.182 272.482L218.403 280.222L222.422 277.9Z" fill="white"/>
</g>
<g opacity="0.2">
<path opacity="0.6" d="M216.72 281.194L219.497 273.458L216.006 275.483L215.392 277.195L216.566 281.283L216.72 281.194Z" fill="white"/>
</g>
</g>
<path d="M239.877 313.283H237.911V321.14H239.877V313.283Z" fill="#0265CD"/>
<path d="M237.911 283.821L231.029 312.891C231.029 312.891 237.714 319.569 246.759 312.891L237.911 283.821Z" fill="#6DBBFA"/>
<path d="M200.553 291.677H198.587V299.534H200.553V291.677Z" fill="#0265CD"/>
<path d="M198.587 262.215L191.705 291.284C191.705 291.284 198.39 297.962 207.435 291.284L198.587 262.215Z" fill="#6DBBFA"/>
<path d="M165.161 272.036H163.195V279.893H165.161V272.036Z" fill="#0265CD"/>
<path d="M163.195 242.573L156.313 271.643C156.313 271.643 162.998 278.321 172.043 271.643L163.195 242.573Z" fill="#6DBBFA"/>
<path d="M129.77 252.394H127.803V260.251H129.77V252.394Z" fill="#0265CD"/>
<path d="M127.803 222.932L120.922 252.002C120.922 252.002 127.607 258.68 136.651 252.002L127.803 222.932Z" fill="#6DBBFA"/>
<path d="M149.915 136.498C149.915 133.747 148.446 131.546 146.243 130.446L142.57 128.245C140.551 126.777 137.797 126.411 135.226 127.878L115.765 139.066C110.991 141.817 107.87 146.953 107.87 152.638C107.87 155.39 109.522 157.591 111.542 158.691L115.765 161.259C117.784 162.359 120.355 162.543 122.558 161.259L135.226 153.922L144.039 153.005L142.57 149.704C147.161 146.953 149.915 142.001 149.915 136.498Z" fill="#FFB78F"/>
<path d="M139.816 130.628L120.354 141.817C115.581 144.568 112.459 149.703 112.459 155.389C112.459 160.708 118.151 164.009 122.741 161.258L135.41 153.922L144.223 153.005L142.754 149.703C147.344 146.952 150.098 141.817 150.098 136.498C149.914 131.362 144.223 128.061 139.816 130.628Z" fill="#FC8946"/>
<path d="M122.557 152.087C122.557 153.371 121.823 154.839 120.905 155.389C119.987 155.939 119.252 155.389 119.252 154.105C119.252 152.821 119.987 151.354 120.905 150.804C121.823 150.253 122.557 150.987 122.557 152.087Z" fill="#FFEAC9"/>
<path d="M130.085 147.867C130.085 149.151 129.35 150.619 128.432 151.169C127.514 151.719 126.78 151.169 126.78 149.885C126.78 148.601 127.514 147.134 128.432 146.584C129.35 146.033 130.085 146.584 130.085 147.867Z" fill="#FFEAC9"/>
<path d="M137.429 143.649C137.429 144.933 136.695 146.4 135.777 146.951C134.859 147.501 134.124 146.951 134.124 145.667C134.124 144.383 134.859 142.916 135.777 142.365C136.695 141.815 137.429 142.365 137.429 143.649Z" fill="#FFEAC9"/>
<path d="M144.773 139.431C144.773 140.715 144.039 142.182 143.121 142.733C142.203 143.283 141.469 142.733 141.469 141.449C141.469 140.165 142.203 138.698 143.121 138.147C144.039 137.597 144.773 138.147 144.773 139.431Z" fill="#FFEAC9"/>
<path d="M125.312 119.808L121.64 117.607C119.621 116.14 116.867 115.773 114.296 117.24L94.8344 128.428C90.0607 131.179 86.9395 136.315 86.9395 142.001C86.9395 144.752 88.5919 146.953 90.6115 148.053L94.8344 150.621C95.936 151.171 97.2212 151.538 98.5064 151.538L98.3228 152.088L102.729 154.656L104.014 149.337L104.198 149.154L104.014 149.337L102.729 154.656L110.808 145.302L121.09 139.433C125.863 136.682 128.801 131.546 128.801 126.044C128.984 123.109 127.516 120.908 125.312 119.808Z" fill="#5DBFFB"/>
<path d="M102.912 154.655L98.5051 152.088L99.6067 146.769L104.013 149.337L102.912 154.655Z" fill="#0265CD"/>
<path d="M118.703 119.992L99.2411 131.181C94.4674 133.932 91.3462 139.067 91.3462 144.753C91.3462 150.072 97.0379 153.373 101.628 150.622L104.198 149.155L104.015 149.338L102.73 154.657L110.808 145.303L121.09 139.434C125.863 136.683 128.801 131.547 128.801 126.045C128.985 120.726 123.293 117.425 118.703 119.992Z" fill="#0986E2"/>
<path d="M101.629 141.454C101.629 142.738 100.895 144.205 99.9768 144.755C99.0588 145.306 98.3243 144.755 98.3243 143.471C98.3243 142.188 99.0588 140.72 99.9768 140.17C100.895 139.62 101.629 140.353 101.629 141.454Z" fill="#9BCEFD"/>
<path d="M108.974 137.234C108.974 138.518 108.239 139.985 107.321 140.535C106.403 141.085 105.669 140.535 105.669 139.251C105.669 137.968 106.403 136.5 107.321 135.95C108.239 135.4 108.974 135.95 108.974 137.234Z" fill="#9BCEFD"/>
<path d="M116.318 133.016C116.318 134.299 115.584 135.767 114.665 136.317C113.747 136.867 113.013 136.317 113.013 135.033C113.013 133.749 113.747 132.282 114.665 131.732C115.584 131.182 116.318 131.732 116.318 133.016Z" fill="#9BCEFD"/>
<path d="M123.845 128.798C123.845 130.081 123.111 131.549 122.193 132.099C121.275 132.649 120.54 132.099 120.54 130.815C120.54 129.531 121.275 128.064 122.193 127.514C123.111 126.963 123.845 127.514 123.845 128.798Z" fill="#9BCEFD"/>
<path d="M458.913 102.922L461.469 97.8148L458.323 96.0471L459.306 92.1188L456.16 90.351L455.374 90.7439V89.1725L452.228 87.4048L450.261 89.5654V89.3689L447.115 87.6012L444.363 92.3152L441.61 90.7439L440.037 96.2435L436.301 96.6363V101.743L432.369 104.1L433.745 108.028L430.403 112.153L432.959 114.314L430.403 119.617L433.352 121.385L432.369 125.117L435.515 126.884L436.301 126.492V128.063L439.447 130.027L441.413 127.866L441.61 128.063L444.559 129.831L447.509 124.724L450.261 126.688L451.834 121.188L455.374 120.795L455.57 115.689L459.306 113.332L457.93 109.403L461.469 105.279L458.913 102.922Z" fill="#FFEAC9"/>
<path d="M441.61 128.063L444.559 129.831L442.986 126.099L441.413 127.866L441.61 128.063Z" fill="#FFB78F"/>
<path d="M439.251 124.92L436.302 126.491V128.063L439.447 130.027L439.251 124.92Z" fill="#FFB78F"/>
<path d="M433.352 121.384L432.369 125.116L435.515 126.884L436.891 121.384H433.352Z" fill="#FFB78F"/>
<path d="M433.352 121.384L430.403 119.617L432.959 114.313L435.908 116.081L433.352 121.384Z" fill="#FFB78F"/>
<path d="M447.509 94.2797L450.261 89.3693L451.834 92.9047L455.373 89.1729L455.57 94.0832L459.306 92.1191L457.929 97.6187L461.469 97.8151L458.913 102.922L461.469 105.279L457.929 109.404L459.306 113.332L455.57 115.689L455.373 120.796L451.834 121.189L450.261 126.688L447.509 124.724L444.559 129.831L442.986 126.099L439.447 130.027L439.251 124.921L435.515 126.885L436.891 121.385H433.352L435.908 116.082L433.352 113.921L436.891 109.797L435.515 105.868L439.251 103.511L439.447 98.4044L442.986 98.0116L444.559 92.5119L447.509 94.2797Z" fill="#FC8946"/>
<path d="M446.526 107.636C446.526 109.6 445.936 111.76 444.363 112.939C442.397 114.314 441.61 112.153 441.61 110.582C441.61 108.814 442.004 106.653 443.577 105.475C445.543 103.904 446.526 105.868 446.526 107.636ZM443.577 109.403C443.577 109.796 443.38 111.171 444.166 110.975C444.756 110.975 444.56 109.207 444.56 108.814C444.56 108.421 444.756 107.046 444.166 107.243C443.38 107.243 443.577 109.01 443.577 109.403ZM451.245 101.154L445.936 116.867L443.97 118.046L449.279 102.332L451.245 101.154ZM453.604 108.618C453.604 110.582 453.014 112.742 451.441 113.921C449.475 115.296 448.689 113.135 448.689 111.564C448.689 109.796 449.082 107.636 450.655 106.457C452.818 104.886 453.604 106.85 453.604 108.618ZM450.655 110.189C450.655 110.385 450.655 112.153 451.245 111.76C451.835 111.367 451.638 110.385 451.638 109.796C451.638 109.6 451.638 107.636 451.245 108.028C450.655 108.421 450.655 109.796 450.655 110.189Z" fill="#FFEAC9"/>
<path d="M450.261 89.3686L447.115 87.6008L444.363 92.3148L444.559 92.5112L447.508 94.279L450.261 89.3686Z" fill="#FFEAC9"/>
<path d="M433.352 113.921L430.403 112.153L432.959 114.314L435.908 116.081L433.352 113.921Z" fill="#FFB78F"/>
<path d="M435.515 105.868L432.369 104.1L433.745 108.028L436.891 109.796L435.515 105.868Z" fill="#FFB78F"/>
<path d="M439.447 98.4035L436.302 96.6357V101.743L439.251 103.51L439.447 98.4035Z" fill="#FFB78F"/>
<path d="M444.56 92.5111L441.61 90.7434L440.037 96.2431L442.987 98.0108L444.56 92.5111Z" fill="#FFB78F"/>
<path d="M455.373 89.1725L452.227 87.4048L450.261 89.5654L451.834 92.9044L455.373 89.1725Z" fill="#FFEAC9"/>
<path d="M459.305 92.1186L456.16 90.3508L455.373 90.7437V93.2971L455.57 94.0827L459.305 92.1186Z" fill="#FFEAC9"/>
<path d="M461.469 97.8149L458.323 96.0471L457.93 97.6184L461.469 97.8149Z" fill="#FFEAC9"/>
</g>
<defs>
<linearGradient id="paint0_linear" x1="136.472" y1="199.406" x2="114.121" y2="44.3072" gradientUnits="userSpaceOnUse">
<stop stop-color="white"/>
<stop offset="1" stop-color="#9BCEFD"/>
</linearGradient>
<linearGradient id="paint1_linear" x1="236.176" y1="175.243" x2="184.672" y2="85.9429" gradientUnits="userSpaceOnUse">
<stop stop-color="white"/>
<stop offset="1" stop-color="#9BCEFD"/>
</linearGradient>
<linearGradient id="paint2_linear" x1="416.656" y1="171.908" x2="394.305" y2="16.8094" gradientUnits="userSpaceOnUse">
<stop stop-color="white"/>
<stop offset="1" stop-color="#9BCEFD"/>
</linearGradient>
<linearGradient id="paint3_linear" x1="517.344" y1="147.746" x2="465.84" y2="58.445" gradientUnits="userSpaceOnUse">
<stop stop-color="white"/>
<stop offset="1" stop-color="#9BCEFD"/>
</linearGradient>
<linearGradient id="paint4_linear" x1="101.08" y1="454.747" x2="78.7289" y2="299.648" gradientUnits="userSpaceOnUse">
<stop stop-color="white"/>
<stop offset="1" stop-color="#9BCEFD"/>
</linearGradient>
<linearGradient id="paint5_linear" x1="201.768" y1="430.584" x2="150.264" y2="341.283" gradientUnits="userSpaceOnUse">
<stop stop-color="white"/>
<stop offset="1" stop-color="#9BCEFD"/>
</linearGradient>
<linearGradient id="paint6_linear" x1="4.73608" y1="305.471" x2="-17.6152" y2="150.372" gradientUnits="userSpaceOnUse">
<stop stop-color="white"/>
<stop offset="1" stop-color="#9BCEFD"/>
</linearGradient>
<linearGradient id="paint7_linear" x1="105.424" y1="281.308" x2="53.9196" y2="192.008" gradientUnits="userSpaceOnUse">
<stop stop-color="white"/>
<stop offset="1" stop-color="#9BCEFD"/>
</linearGradient>
<linearGradient id="paint8_linear" x1="639.249" y1="302.914" x2="587.745" y2="213.613" gradientUnits="userSpaceOnUse">
<stop stop-color="white"/>
<stop offset="1" stop-color="#9BCEFD"/>
</linearGradient>
<linearGradient id="paint9_linear" x1="296.718" y1="468.496" x2="274.366" y2="313.397" gradientUnits="userSpaceOnUse">
<stop stop-color="white"/>
<stop offset="1" stop-color="#9BCEFD"/>
</linearGradient>
<linearGradient id="paint10_linear" x1="397.405" y1="444.333" x2="345.901" y2="355.033" gradientUnits="userSpaceOnUse">
<stop stop-color="white"/>
<stop offset="1" stop-color="#9BCEFD"/>
</linearGradient>
<linearGradient id="paint11_linear" x1="538.561" y1="327.077" x2="516.21" y2="171.978" gradientUnits="userSpaceOnUse">
<stop stop-color="white"/>
<stop offset="1" stop-color="#9BCEFD"/>
</linearGradient>
<linearGradient id="paint12_linear" x1="571.415" y1="518.971" x2="519.911" y2="429.671" gradientUnits="userSpaceOnUse">
<stop stop-color="white"/>
<stop offset="1" stop-color="#9BCEFD"/>
</linearGradient>
<linearGradient id="paint13_linear" x1="470.736" y1="543.446" x2="448.385" y2="388.347" gradientUnits="userSpaceOnUse">
<stop stop-color="white"/>
<stop offset="1" stop-color="#9BCEFD"/>
</linearGradient>
<clipPath id="clip0">
<rect width="640" height="548" fill="white"/>
</clipPath>
<clipPath id="clip1">
<rect width="29.329" height="29.3384" fill="white" transform="translate(200.066 259.855)"/>
</clipPath>
</defs>
</svg>
