<svg width="230" height="230" viewBox="0 0 230 230" fill="none" xmlns="http://www.w3.org/2000/svg">
<g clip-path="url(#clip0)">
<path d="M47.0752 180.345L34.6179 184.881L20.8494 184.233L19.5381 191.361L26.7502 193.305H50.3534L47.0752 180.345Z" fill="#FFA987"/>
<path d="M11.0148 152.482C11.0148 152.482 10.3592 157.666 21.5051 160.906C32.6511 164.146 36.585 166.09 41.1745 157.666C45.764 149.242 46.4196 141.466 46.4196 141.466L32.6511 133.69L11.0148 152.482Z" fill="#FFB78F"/>
<path d="M26.75 193.305L12.3258 190.065V186.825H25.4387L26.75 193.305Z" fill="#FFA987"/>
<path d="M0.196533 145.678C0.196533 145.678 -1.11476 152.806 4.78604 156.045C10.6868 159.285 15.2764 156.693 15.2764 156.693V143.734L0.196533 145.678Z" fill="#0265CD"/>
<path d="M20.5219 154.75L28.3897 153.454C28.3897 153.454 23.1445 150.214 27.0784 148.918C31.0123 147.622 34.2905 150.862 34.2905 150.862C34.2905 150.862 42.8139 145.03 44.1251 141.79C45.4364 138.55 48.7147 132.07 42.8139 125.59C42.4205 125.136 41.9615 124.683 41.5026 124.294C35.4706 118.657 26.7506 116.907 18.8173 119.175C14.2933 120.471 9.31043 122.415 7.40906 124.942C3.4752 130.126 2.81955 137.902 4.13084 141.142C5.44213 144.382 -1.11431 144.382 0.196975 146.974C0.983749 148.529 9.70382 155.268 20.5219 154.75Z" fill="#0175D8"/>
<path d="M125.097 201.729C123.13 201.729 120.573 201.729 117.557 201.47C105.887 200.627 86.6108 196.286 79.0709 192.398C77.694 191.685 76.0549 191.815 74.8748 192.787C73.4323 193.888 71.5965 195.12 70.3508 194.925C70.3508 194.99 70.3508 194.99 70.2852 195.055C70.0886 195.703 69.8263 196.934 69.3674 198.359C69.0395 199.526 68.5806 200.757 68.0561 201.988C66.8759 204.58 65.1712 206.913 62.6142 207.302C56.8445 208.144 49.1735 208.015 43.7317 173.801C37.1752 132.329 48.9768 131.292 52.5829 131.487C56.1889 131.681 66.6792 136.217 74.5469 142.049C82.4147 147.881 106.674 169.265 113.23 169.913C113.296 169.977 122.475 197.193 125.097 201.729Z" fill="#FFEAC9"/>
<path d="M123.786 201.729C123.786 201.729 119.524 201.729 117.754 201.535C117.623 201.535 117.557 201.535 117.426 201.47C105.756 200.757 86.6107 196.286 79.0708 192.398C77.6939 191.685 76.0548 191.815 74.8747 192.787C73.4322 193.889 71.5964 195.12 70.3507 194.925C70.3507 194.99 70.3507 194.99 70.2852 195.055C72.3177 185.853 72.0554 172.57 71.7931 166.738C71.7931 166.09 72.711 165.895 72.9733 166.478C74.8747 171.338 77.8251 181.123 78.8741 185.141C80.1854 190.325 86.4796 192.852 94.6096 195.509C102.477 198.165 123.786 201.729 123.786 201.729Z" fill="#EFD7B6"/>
<path d="M195.251 138.226C195.251 138.226 195.906 135.634 195.251 133.69C194.595 131.746 192.628 129.154 193.284 126.562C193.939 123.97 195.251 122.674 200.496 122.674C205.741 122.674 210.986 118.786 212.953 117.49C214.92 116.194 220.821 117.49 222.132 118.786C222.853 119.499 209.937 126.95 206.069 133.366C202.725 138.874 208.364 143.409 208.364 143.409L197.873 144.057L195.251 138.226Z" fill="#FFA987"/>
<path d="M181.483 184.233C181.483 184.233 180.171 176.457 180.827 170.625C181.483 164.793 187.383 153.13 190.006 148.594C192.628 144.058 194.595 136.282 194.595 136.282C194.595 136.282 200.496 136.282 207.053 140.17C214.265 144.447 186.728 188.121 186.728 188.121L181.483 184.233Z" fill="#9BCEFD"/>
<path d="M206.397 137.578C206.397 137.578 207.052 134.986 206.397 133.042C205.741 131.098 202.463 129.154 205.741 125.266C209.019 121.378 210.331 125.266 218.198 120.082C226.066 114.898 227.377 115.546 230 116.842C230 116.842 218.198 131.098 216.887 134.338C215.576 137.578 214.461 141.855 214.461 141.855L206.397 137.578Z" fill="#FFB78F"/>
<path d="M214.92 140.17L202.529 187.603L200.365 195.897C199.644 198.619 197.218 200.498 194.399 200.563L129.293 201.664H129.228L124.376 201.729L112.574 169.978C112.574 169.978 119.786 163.303 129.621 163.498C148.963 163.822 158.469 173.218 164.37 175.81C170.271 178.402 183.384 180.994 183.384 180.994C183.384 180.994 181.417 168.682 191.907 155.074C202.398 141.466 205.02 138.226 205.676 135.634C206.332 133.042 214.92 140.17 214.92 140.17Z" fill="#CBE9FF"/>
<path d="M29.4383 187.084C29.8317 187.214 30.0939 187.668 29.9628 188.056L28.3893 192.787C28.2581 193.111 27.9303 193.24 27.6025 193.176L6.68744 186.307C6.22849 186.177 6.0318 185.659 6.16293 185.27L7.80204 180.475C7.8676 180.216 8.12986 180.086 8.39212 180.151L29.4383 187.084Z" fill="#0175D8"/>
<path d="M113.295 171.921C111.132 175.096 104.051 178.272 95.9209 175.485C93.7572 174.708 91.3969 174.319 89.1022 174.448C86.8074 174.578 84.1193 173.736 82.4802 171.921C80.9722 170.366 79.5298 165.83 79.5298 163.627C79.5953 161.359 78.9397 159.091 77.6284 157.212C70.7441 147.362 68.8428 142.632 67.4659 139.91C66.7447 138.42 66.1546 137.513 65.04 136.735C64.6466 136.476 64.2532 136.217 63.7287 135.958C58.4836 133.366 51.9271 127.534 43.7316 136.282C39.0765 141.271 28.4551 135.375 20.5218 129.802C15.7356 126.367 17.3091 118.98 23.0788 117.749C32.4545 115.805 46.1575 115.87 60.7128 125.914C66.9414 130.191 71.662 133.625 75.5303 136.347C78.0873 138.161 83.9226 139.068 86.0862 139.586C86.8074 139.781 87.5286 139.781 88.2498 139.781C91.6592 139.781 94.544 141.401 95.5275 143.798C96.052 145.03 96.9043 146.131 97.9534 147.038C98.609 147.622 99.3302 148.14 100.051 148.529C104.772 151.186 118.541 164.145 113.295 171.921Z" fill="#0175D8"/>
<path d="M29.9632 187.927L28.3897 192.528L7.34349 185.594C7.01567 185.464 6.88454 185.14 6.95011 184.816L8.39252 180.475C8.45809 180.281 8.65478 180.151 8.91704 180.216L29.5043 187.084C29.8321 187.214 30.0288 187.603 29.9632 187.927Z" fill="#0E1343"/>
<path d="M113.295 171.921C111.132 175.097 104.051 178.272 95.9208 175.485C93.7572 174.708 91.3968 174.319 89.1021 174.449C86.8073 174.578 84.1192 173.736 82.4801 171.921C80.9721 170.366 79.5297 165.83 79.5297 163.627C79.5952 161.359 78.9396 159.091 77.6283 157.212C70.744 147.363 68.8427 142.632 67.4658 139.911C70.8096 144.317 76.6448 151.769 78.4806 153.13C81.1032 155.074 81.1032 166.09 85.6927 169.329C90.2822 172.569 94.8717 171.921 98.15 173.217C100.707 174.189 108.903 174.06 113.295 171.921Z" fill="#0265CD"/>
<path d="M11.9326 189.547C11.736 188.64 11.4081 186.89 11.9982 186.242C12.1949 186.048 12.4572 186.112 12.5883 186.307C12.785 186.631 13.1784 187.149 13.3095 187.473C13.5718 187.992 14.7519 190.389 14.7519 190.389C14.7519 190.389 14.0307 188.186 14.0307 187.473C14.0307 187.084 13.7029 186.048 13.8996 185.788C14.2274 185.335 14.9486 185.335 15.2764 185.853L15.5387 186.372C15.9321 187.214 16.3255 188.056 16.5877 188.964L17.0467 191.102L17.3745 187.473C17.5056 186.76 17.0467 185.918 18.4891 185.27C18.8169 185.14 19.1447 185.594 19.2103 185.983V186.696V191.037L20.456 187.214C20.5872 186.955 20.915 186.825 21.1772 186.89C21.5051 187.02 21.7017 187.344 21.6362 187.668L21.3739 190.324L23.013 190.843C23.4064 190.972 23.7998 191.167 24.1276 191.361L26.6846 193.24L12.6539 190.195C12.326 190.195 11.9982 189.871 11.9326 189.547Z" fill="#FFB78F"/>
<path d="M202.529 187.603L200.365 195.897C199.644 198.619 197.218 200.498 194.399 200.563L129.293 201.664C141.619 201.211 194.399 199.137 197.808 193.953C199.382 191.62 201.086 189.417 202.529 187.603Z" fill="#9BCEFD"/>
</g>
<circle cx="125.285" cy="41.1383" r="18.6992" fill="#6DBBFA"/>
<g clip-path="url(#clip1)">
<path d="M115.613 36.1654V46.2009L122.57 41.4495L115.613 36.1654Z" fill="white"/>
<path d="M127.047 42.1714L125.284 43.5104L123.522 42.1714L116.242 47.1426H134.327L127.047 42.1714Z" fill="white"/>
<path d="M127.999 41.4495L134.957 46.2009V36.1654L127.999 41.4495Z" fill="white"/>
<path d="M116.128 35.1335L116.247 35.2238L125.285 42.0879L134.322 35.2238L134.441 35.1335H116.128Z" fill="white"/>
</g>
<circle cx="85.5488" cy="70.5894" r="14.4919" fill="#6DBBFA"/>
<g clip-path="url(#clip2)">
<path d="M78.053 66.7354V74.5128L83.445 70.8305L78.053 66.7354Z" fill="white"/>
<path d="M86.9147 71.3903L85.5485 72.428L84.1823 71.3903L78.5405 75.243H92.5565L86.9147 71.3903Z" fill="white"/>
<path d="M87.6526 70.8305L93.0446 74.5128V66.7354L87.6526 70.8305Z" fill="white"/>
<path d="M78.4526 65.9359L78.5446 66.0059L85.5488 71.3256L92.5529 66.0059L92.6449 65.9359H78.4526Z" fill="white"/>
</g>
<circle cx="104.248" cy="101.443" r="7.94715" fill="#6DBBFA"/>
<g clip-path="url(#clip3)">
<path d="M100.137 99.3293V103.594L103.094 101.575L100.137 99.3293Z" fill="white"/>
<path d="M104.997 101.883L104.248 102.452L103.498 101.883L100.405 103.995H108.091L104.997 101.883Z" fill="white"/>
<path d="M105.401 101.575L108.358 103.594V99.3293L105.401 101.575Z" fill="white"/>
<path d="M100.356 98.8912L100.407 98.9296L104.248 101.847L108.089 98.9296L108.139 98.8912H100.356Z" fill="white"/>
</g>
<circle cx="85.5488" cy="115.467" r="3.27236" fill="#6DBBFA"/>
<defs>
<clipPath id="clip0">
<rect width="230" height="91.626" fill="white" transform="translate(0 115.935)"/>
</clipPath>
<clipPath id="clip1">
<rect width="19.344" height="19.344" fill="white" transform="translate(115.613 31.4662)"/>
</clipPath>
<clipPath id="clip2">
<rect width="14.9916" height="14.9916" fill="white" transform="translate(78.053 63.0936)"/>
</clipPath>
<clipPath id="clip3">
<rect width="8.22119" height="8.22119" fill="white" transform="translate(100.137 97.3325)"/>
</clipPath>
</defs>
</svg>
