<svg width="170" height="170" viewBox="0 0 170 170" fill="none" xmlns="http://www.w3.org/2000/svg">
<path d="M135.886 70.6745L136.084 70.5898L132.269 68.2796C132.201 68.2364 132.132 68.1948 132.062 68.1543L132.023 68.1308L132.024 68.1321C131.134 67.6254 130.106 67.3348 129.009 67.3348H106.634V28.0461C106.633 26.7484 105.912 25.7019 104.914 25.1599L101.903 23.4455C101.901 23.445 101.9 23.4443 101.899 23.4438L101.899 23.4433C100.94 22.8916 99.7089 22.8134 98.6147 23.4455L33.3632 61.1585C32.1949 61.8332 31.5299 62.9439 31.3666 64.1151L31.3257 64.6794C31.3257 64.6799 31.3257 64.6802 31.3257 64.6804V139.542C31.3257 143.661 34.6648 147 38.7836 147H132.11C135.735 147 138.674 144.061 138.674 140.435V76.0426C138.675 73.8232 137.572 71.8627 135.886 70.6745Z" fill="#0265CD"/>
<path d="M120.863 46.4366L120.865 46.4361L119.249 45.5032V45.5042C117.171 44.1465 114.391 43.88 111.935 45.3L100.5 51.9105L99.4193 74.828L117.417 64.629C121.746 62.1296 124.412 57.5109 124.412 52.5121C124.412 49.8001 122.929 47.6032 120.863 46.4366Z" fill="#6DBBFA"/>
<path d="M102.507 73.2369V53.0815L113.942 46.4708C118.594 43.7813 124.412 47.1385 124.412 52.5119C124.412 57.5104 121.746 62.1294 117.417 64.6288L102.507 73.2369Z" fill="#0986E2"/>
<path d="M35.7016 66.211C37.9043 67.4949 43.1469 67.3345 43.1469 67.3345H106.634V28.0461C106.633 25.5162 103.894 23.9359 101.703 25.2011L36.4512 62.9144C36.1669 63.0786 35.9133 63.2696 35.6885 63.4801C35.5493 63.6249 34.3117 64.9843 35.7016 66.211Z" fill="#0986E2"/>
<path d="M34.4136 140.044V141.298C34.4136 142.207 34.5768 143.078 34.8745 143.883L36.0781 142.635C35.3562 141.903 34.7851 141.023 34.4136 140.044Z" fill="#BA6024"/>
<path d="M110.372 59.3373C110.372 56.014 112.392 52.1533 114.885 50.7142C117.378 49.2751 119.398 50.8026 119.398 54.1259C119.398 57.4492 117.378 61.3099 114.885 62.749C112.392 64.1881 110.372 62.6606 110.372 59.3373Z" fill="#FFB78F"/>
<path d="M111.913 58.4476C111.913 56.2592 113.244 53.7169 114.885 52.7695C116.526 51.8218 117.857 52.8279 117.857 55.016C117.857 57.2044 116.526 59.7467 114.885 60.6941C113.244 61.6418 111.913 60.6358 111.913 58.4476Z" fill="#FFEAC9"/>
<path d="M98.5559 96.6363L34.4812 133.795L34.4136 69.185L98.4883 32.0261L98.5559 96.6363Z" fill="#00AC65"/>
<path d="M98.5559 96.6363L98.4883 32.0261L34.4136 69.185L34.4194 74.5897L94.707 39.6936L94.7632 93.3561L34.4756 128.252L34.4812 133.795L98.5559 96.6363Z" fill="#FFB78F"/>
<path d="M94.707 39.6936L34.4194 74.5897L34.4248 79.682L89.9732 47.531L90.0188 91.0084L34.4703 123.159L34.4756 128.253L94.7632 93.3562L94.707 39.6936Z" fill="#CBE9FF"/>
<path d="M94.7143 46.5787C94.7182 50.3813 92.4082 54.8039 89.5545 56.4568C86.7008 58.1098 84.3843 56.367 84.3801 52.5644C84.376 48.7618 86.6863 44.3392 89.54 42.6863C92.3937 41.0333 94.7102 42.7761 94.7143 46.5787Z" fill="#F87728"/>
<path d="M57.2936 88.1925C57.3021 96.2103 52.4312 105.535 46.414 109.02C40.3971 112.505 35.5124 108.831 35.5042 100.813C35.4957 92.7953 40.3666 83.4703 46.3838 79.9852C52.4007 76.4999 57.2854 80.1746 57.2936 88.1925Z" fill="#FFE6C6"/>
<path d="M82.223 73.7717C82.2249 75.7371 81.0312 78.0226 79.5562 78.8768C78.0813 79.731 76.8842 78.8303 76.882 76.8652C76.8801 74.8998 78.0738 72.6143 79.5487 71.7601C81.0237 70.9059 82.221 71.8066 82.223 73.7717Z" fill="#FFE6C6"/>
<path d="M94.756 86.4707C94.7598 90.2733 92.4498 94.6959 89.5961 96.3488C86.7424 98.0018 84.4259 96.259 84.4218 92.4564C84.4177 88.6538 86.7279 84.2312 89.5816 82.5782C92.4353 80.9255 94.7521 82.6681 94.756 86.4707Z" fill="#FFE6C6"/>
<path d="M42.8578 72.5646L101.717 37.968V76.2063H42.6759L42.8578 72.5646Z" fill="#0E1343"/>
<path d="M97.8874 48.5595L96.6089 47.8044C95.4885 47.1425 94.0986 47.1355 92.9715 47.786L40.1784 78.254C37.8476 79.5995 36.4119 82.0863 36.4119 84.7775V117.714C36.4119 118.794 36.9893 119.792 37.9256 120.33L39.5356 121.255C39.563 121.271 39.5906 121.287 39.6184 121.303L39.662 121.328L39.663 121.327C40.5291 121.789 41.6172 121.84 42.5889 121.279L95.6527 90.6426C97.9836 89.297 99.4193 86.8102 99.4193 84.119V51.1839C99.4193 50.0127 98.7794 49.064 97.8874 48.5595Z" fill="#F6F7F9"/>
<path d="M38.066 118.667V85.7325C38.066 83.0413 39.5017 80.5545 41.8325 79.2089L94.8962 48.5724C95.8923 47.9972 97.0114 48.064 97.8874 48.5593L96.6089 47.8041C95.4886 47.1422 94.0986 47.1352 92.9715 47.7857L40.1784 78.2539C37.8476 79.5995 36.4119 82.0863 36.4119 84.7775V117.714C36.4119 118.794 36.9893 119.792 37.9256 120.33L39.5356 121.255C38.6763 120.742 38.066 119.811 38.066 118.667Z" fill="#FFB78F"/>
<path d="M39.6183 121.303L39.6624 121.328L39.6633 121.327C39.6482 121.319 39.6331 121.311 39.6183 121.303Z" fill="#2683BF"/>
<path d="M38.066 108.787L99.4015 73.375V82.4001L38.066 117.843V108.787Z" fill="#424242"/>
<path d="M83.4811 62.6961L95.3851 55.8235V63.4263L83.4811 70.2988V62.6961Z" fill="#FFB78F"/>
<path d="M85.213 63.054L87.1389 61.9421C87.5196 61.7224 87.9953 61.9971 87.9953 62.4366V65.0445L87.1673 65.5415V65.951L94.6208 61.6919V62.4691C94.6208 62.7224 94.4857 62.9564 94.2665 63.083L84.4281 68.7633V67.9948C84.4281 67.7464 84.5584 67.5158 84.7713 67.3877L86.5669 66.3061V65.8965L85.2799 66.6233C84.8992 66.8384 84.4281 66.5633 84.4281 66.1261V64.4138C84.4276 63.8529 84.727 63.3344 85.213 63.054Z" fill="#0E1343"/>
<path d="M94.2662 61.4237C94.4857 61.2971 94.6206 61.0631 94.6206 60.8098V59.6538L89.1142 62.833C88.895 62.9597 88.7596 63.1936 88.7596 63.447V64.6029L94.2662 61.4237Z" fill="#0E1343"/>
<path d="M89.1142 60.8033C88.895 60.9299 88.7596 61.1639 88.7596 61.4172V62.5732L91.7908 60.8222C92.01 60.6955 92.1452 60.4615 92.1452 60.2082V59.0532L89.1142 60.8033Z" fill="#0E1343"/>
<path d="M92.8138 58.6485C92.5917 58.7744 92.4544 59.0098 92.4544 59.2651V60.4399L94.266 59.3942C94.4854 59.2675 94.6203 59.0336 94.6203 58.7802V57.6243L92.8138 58.6485Z" fill="#0E1343"/>
<path d="M42.1443 86.483V91.4815L58.181 82.2166V77.2241L42.1443 86.483Z" fill="white"/>
<path d="M59.7828 76.2464V81.2977L81.5156 68.7505V63.7522L59.7828 76.2464Z" fill="#FFB78F"/>
<path d="M42.1442 95.2562L81.5155 72.5251V74.761L42.1442 97.4921V95.2562Z" fill="#2683BF"/>
<path d="M42.1443 99.4061L81.5155 76.675V78.9112L42.1443 101.642V99.4061Z" fill="#2683BF"/>
<g opacity="0.2">
<path opacity="0.2" d="M48.0734 75.6053L38.066 103.47V118.667C38.066 120.988 40.5787 122.439 42.5888 121.279L51.4491 116.163L70.7095 62.5361L48.0734 75.6053Z" fill="white"/>
</g>
<g opacity="0.2">
<path opacity="0.2" d="M99.4193 63.7969V51.1838C99.4193 48.8627 96.9066 47.412 94.8962 48.5725L81.6326 56.2303L62.3721 109.857L88.2404 94.9222L99.4193 63.7969Z" fill="#F6F7F9"/>
</g>
<path d="M136.084 70.5894L132.023 68.1304L132.023 68.1316C131.134 67.625 130.105 67.3344 129.009 67.3344H43.1469C43.1469 67.3344 37.9045 67.4947 35.7015 66.2109C34.3494 65.4228 33.9265 63.9064 33.9292 62.5364V137.399C33.9292 141.518 37.2682 144.857 41.3871 144.857H129.009C132.379 144.857 135.112 142.124 135.112 138.753V73.4375C135.112 72.6434 134.958 71.8858 134.683 71.19L136.084 70.5894Z" fill="#0265CD"/>
<path d="M32.9266 62.9039C32.9268 62.715 32.9431 62.5266 32.9692 62.3391H32.9266V62.9039Z" fill="#8B5129"/>
<path d="M101.717 67.3344V57.0869L84.2833 67.3344H101.717Z" fill="#6DBBFA"/>
<path d="M138.675 75.5811C138.675 72.2103 135.942 69.4779 132.571 69.4779H40.5434C40.5434 69.4779 35.5519 69.4934 33.3492 68.2096C31.9971 67.4215 31.3231 66.05 31.3257 64.6799V139.542C31.3257 143.661 34.6648 147 38.7837 147H132.571C135.942 147 138.674 144.268 138.674 140.897L138.675 75.5811Z" fill="#5DBFFB"/>
<path d="M34.303 77.1014C34.2296 77.1014 34.1553 77.0828 34.0867 77.0438C33.1381 76.4998 32.6036 76.0278 32.5813 76.0079C32.4016 75.8481 32.3856 75.5732 32.5454 75.3935C32.7053 75.214 32.9802 75.1978 33.1596 75.3574C33.1732 75.369 33.6636 75.7977 34.5198 76.2886C34.7283 76.4083 34.8005 76.6742 34.6808 76.8827C34.6007 77.023 34.4539 77.1014 34.303 77.1014Z" fill="#0175D8"/>
<path d="M40.147 78.6892C39.2332 78.6892 38.3126 78.5802 37.4112 78.3654C37.1775 78.3097 37.0332 78.075 37.0889 77.8411C37.1446 77.6074 37.38 77.4632 37.6132 77.5187C38.4485 77.718 39.3012 77.819 40.147 77.819L40.9518 77.8176C40.952 77.8176 40.952 77.8176 40.952 77.8176C41.1922 77.8176 41.387 78.012 41.3874 78.2521C41.3877 78.4923 41.1932 78.6875 40.953 78.6878L40.147 78.6892ZM124.144 78.6882L120.675 78.6875C120.435 78.6875 120.24 78.4925 120.24 78.2523C120.24 78.012 120.435 77.8173 120.676 77.8173H120.676L124.144 77.8178C124.384 77.8178 124.579 78.0128 124.579 78.253C124.579 78.4935 124.384 78.6882 124.144 78.6882ZM117.209 78.687L113.741 78.6863C113.501 78.6863 113.306 78.4913 113.306 78.2511C113.306 78.0108 113.501 77.8161 113.742 77.8161L117.209 77.8166C117.449 77.8166 117.644 78.0116 117.644 78.2518C117.644 78.4923 117.449 78.687 117.209 78.687ZM110.275 78.6858L106.808 78.6853C106.567 78.6853 106.373 78.4904 106.373 78.2501C106.373 78.0096 106.567 77.8149 106.808 77.8149L110.275 77.8154C110.515 77.8154 110.71 78.0104 110.71 78.2506C110.71 78.4911 110.515 78.6858 110.275 78.6858ZM44.4187 78.6851C44.1784 78.6851 43.9837 78.4904 43.9835 78.2501C43.9835 78.0096 44.1782 77.8149 44.4184 77.8147L47.8839 77.8135C48.1244 77.8135 48.3191 78.0082 48.3191 78.2484C48.3194 78.4889 48.1244 78.6836 47.8841 78.6836L44.4187 78.6851ZM103.341 78.6851L99.8744 78.6846C99.6339 78.6846 99.4392 78.4896 99.4392 78.2494C99.4392 78.0089 99.6341 77.8142 99.8744 77.8142L103.341 77.8147C103.582 77.8147 103.777 78.0096 103.776 78.2499C103.776 78.4904 103.581 78.6851 103.341 78.6851ZM96.4077 78.6841L92.941 78.6839C92.7005 78.6839 92.5058 78.4889 92.5058 78.2487C92.5058 78.0082 92.7008 77.8135 92.941 77.8135L96.4077 77.8137C96.6482 77.8137 96.8429 78.0087 96.8429 78.2489C96.8429 78.4894 96.6479 78.6841 96.4077 78.6841ZM89.4748 78.6834L86.0057 78.6831C85.7652 78.6831 85.5705 78.4882 85.5705 78.2479C85.5705 78.0074 85.7655 77.8127 86.0057 77.8127L89.4748 77.813C89.7153 77.813 89.91 78.0079 89.91 78.2482C89.9098 78.4887 89.7151 78.6834 89.4748 78.6834ZM51.3494 78.6829C51.1089 78.6831 50.9142 78.4882 50.9142 78.2479C50.9139 78.0074 51.1089 77.8127 51.3491 77.8127L54.8143 77.8122C55.0546 77.8122 55.2496 78.007 55.2496 78.2475C55.2496 78.4877 55.0548 78.6827 54.8143 78.6827L51.3494 78.6829ZM82.5391 78.6827L79.0748 78.6824C78.8343 78.6824 78.6396 78.4875 78.6396 78.2472C78.6396 78.0067 78.8345 77.812 79.0748 77.812L82.5391 77.8122C82.7793 77.8122 82.9743 78.0072 82.9743 78.2475C82.9743 78.4877 82.7793 78.6827 82.5391 78.6827ZM75.6084 78.6824L72.1419 78.6822C71.9014 78.6822 71.7067 78.4875 71.7067 78.247C71.7067 78.0065 71.9014 77.8118 72.1419 77.8118L75.6084 77.812C75.8489 77.812 76.0436 78.007 76.0436 78.2472C76.0436 78.4875 75.8486 78.6824 75.6084 78.6824ZM58.2793 78.6824C58.0391 78.6824 57.8441 78.4877 57.8441 78.2472C57.8441 78.007 58.0388 77.812 58.2793 77.812L61.7443 77.8118C61.9846 77.8118 62.1795 78.0065 62.1795 78.247C62.1795 78.4872 61.9848 78.6822 61.7443 78.6822L58.2793 78.6824ZM68.675 78.6822H65.2088C64.9683 78.6822 64.7736 78.4875 64.7736 78.247C64.7736 78.0065 64.9683 77.8118 65.2088 77.8118H68.675C68.9155 77.8118 69.1102 78.0065 69.1102 78.247C69.1102 78.4872 68.9155 78.6822 68.675 78.6822Z" fill="#0175D8"/>
<path d="M129.287 80.4296C129.046 80.4296 128.852 80.2349 128.852 79.9944V78.6888L127.547 78.6885C127.307 78.6885 127.112 78.4936 127.112 78.2533C127.112 78.0131 127.307 77.8184 127.547 77.8184L129.722 77.8188V79.9947C129.722 80.2349 129.527 80.4296 129.287 80.4296Z" fill="#0175D8"/>
<path d="M129.287 134.046C129.046 134.046 128.851 133.851 128.851 133.611V130.26C128.851 130.019 129.046 129.825 129.287 129.825C129.527 129.825 129.722 130.019 129.722 130.26V133.611C129.722 133.851 129.527 134.046 129.287 134.046ZM129.287 127.344C129.046 127.344 128.851 127.149 128.851 126.909V123.558C128.851 123.317 129.046 123.122 129.287 123.122C129.527 123.122 129.722 123.317 129.722 123.558V126.909C129.722 127.149 129.527 127.344 129.287 127.344ZM129.287 120.642C129.046 120.642 128.851 120.447 128.851 120.207V116.856C128.851 116.615 129.046 116.421 129.287 116.421C129.527 116.421 129.722 116.615 129.722 116.856V120.207C129.722 120.447 129.527 120.642 129.287 120.642ZM129.287 113.94C129.046 113.94 128.851 113.745 128.851 113.505V110.154C128.851 109.914 129.046 109.719 129.287 109.719C129.527 109.719 129.722 109.914 129.722 110.154V113.505C129.722 113.745 129.527 113.94 129.287 113.94ZM129.287 107.238C129.046 107.238 128.851 107.043 128.851 106.803V103.452C128.851 103.212 129.046 103.017 129.287 103.017C129.527 103.017 129.722 103.212 129.722 103.452V106.803C129.722 107.043 129.527 107.238 129.287 107.238ZM129.287 100.536C129.046 100.536 128.851 100.341 128.851 100.101V96.7498C128.851 96.5095 129.046 96.3145 129.287 96.3145C129.527 96.3145 129.722 96.5095 129.722 96.7498V100.101C129.722 100.341 129.527 100.536 129.287 100.536ZM129.287 93.8341C129.046 93.8341 128.851 93.6393 128.851 93.3988V90.0479C128.851 89.8074 129.046 89.6127 129.287 89.6127C129.527 89.6127 129.722 89.8074 129.722 90.0479V93.3988C129.722 93.6391 129.527 93.8341 129.287 93.8341ZM129.287 87.132C129.046 87.132 128.851 86.9373 128.851 86.6968V83.3456C128.851 83.1051 129.046 82.9104 129.287 82.9104C129.527 82.9104 129.722 83.1051 129.722 83.3456V86.6965C129.722 86.937 129.527 87.132 129.287 87.132Z" fill="#0175D8"/>
<path d="M129.722 139.138H127.546C127.305 139.138 127.111 138.943 127.111 138.703C127.111 138.462 127.305 138.268 127.546 138.268H128.851V136.962C128.851 136.722 129.046 136.527 129.287 136.527C129.527 136.527 129.722 136.722 129.722 136.962V139.138Z" fill="#0175D8"/>
<path d="M124.092 139.138H120.639C120.399 139.138 120.204 138.943 120.204 138.703C120.204 138.462 120.399 138.268 120.639 138.268H124.092C124.333 138.268 124.528 138.462 124.528 138.703C124.528 138.943 124.333 139.138 124.092 139.138ZM117.185 139.138H113.732C113.492 139.138 113.297 138.943 113.297 138.703C113.297 138.462 113.492 138.268 113.732 138.268H117.185C117.426 138.268 117.621 138.462 117.621 138.703C117.621 138.943 117.426 139.138 117.185 139.138ZM110.279 139.138H106.825C106.585 139.138 106.39 138.943 106.39 138.703C106.39 138.462 106.585 138.268 106.825 138.268H110.279C110.519 138.268 110.714 138.462 110.714 138.703C110.714 138.943 110.519 139.138 110.279 139.138ZM103.372 139.138H99.9185C99.6782 139.138 99.4832 138.943 99.4832 138.703C99.4832 138.462 99.6782 138.268 99.9185 138.268H103.372C103.612 138.268 103.807 138.462 103.807 138.703C103.807 138.943 103.612 139.138 103.372 139.138ZM96.4649 139.138H93.0115C92.771 139.138 92.5763 138.943 92.5763 138.703C92.5763 138.462 92.771 138.268 93.0115 138.268H96.4649C96.7053 138.268 96.9001 138.462 96.9001 138.703C96.9001 138.943 96.7053 139.138 96.4649 139.138ZM89.5581 139.138H86.1045C85.8643 139.138 85.6693 138.943 85.6693 138.703C85.6693 138.462 85.8643 138.268 86.1045 138.268H89.5581C89.7986 138.268 89.9933 138.462 89.9933 138.703C89.9933 138.943 89.7984 139.138 89.5581 139.138ZM82.6512 139.138H79.1978C78.9573 139.138 78.7626 138.943 78.7626 138.703C78.7626 138.462 78.9573 138.268 79.1978 138.268H82.6512C82.8917 138.268 83.0864 138.462 83.0864 138.703C83.0864 138.943 82.8914 139.138 82.6512 139.138ZM75.7442 139.138H72.2909C72.0504 139.138 71.8556 138.943 71.8556 138.703C71.8556 138.462 72.0504 138.268 72.2909 138.268H75.7442C75.9847 138.268 76.1794 138.462 76.1794 138.703C76.1794 138.943 75.9847 139.138 75.7442 139.138ZM68.8375 139.138H65.3841C65.1437 139.138 64.9489 138.943 64.9489 138.703C64.9489 138.462 65.1437 138.268 65.3841 138.268H68.8375C69.0778 138.268 69.2727 138.462 69.2727 138.703C69.2727 138.943 69.0778 139.138 68.8375 139.138ZM61.9305 139.138H58.4772C58.2367 139.138 58.042 138.943 58.042 138.703C58.042 138.462 58.2367 138.268 58.4772 138.268H61.9305C62.1708 138.268 62.3658 138.462 62.3658 138.703C62.3658 138.943 62.1708 139.138 61.9305 139.138ZM55.0238 139.138H51.5705C51.33 139.138 51.1353 138.943 51.1353 138.703C51.1353 138.462 51.33 138.268 51.5705 138.268H55.0238C55.2641 138.268 55.459 138.462 55.459 138.703C55.459 138.943 55.2641 139.138 55.0238 139.138ZM48.1169 139.138H44.6635C44.423 139.138 44.2283 138.943 44.2283 138.703C44.2283 138.462 44.423 138.268 44.6635 138.268H48.1169C48.3571 138.268 48.5521 138.462 48.5521 138.703C48.5521 138.943 48.3571 139.138 48.1169 139.138ZM41.2099 139.138L38.6991 139.127C38.6817 139.123 38.2678 139.025 37.6589 138.818C37.4313 138.741 37.3095 138.494 37.3865 138.266C37.4637 138.039 37.7108 137.917 37.9384 137.994C38.3913 138.148 38.7314 138.238 38.8512 138.268H41.2099C41.4504 138.268 41.6451 138.463 41.6451 138.703C41.6451 138.944 41.4504 139.138 41.2099 139.138Z" fill="#0175D8"/>
<path d="M34.72 137.306C34.6299 137.306 34.5391 137.278 34.4611 137.221C33.905 136.808 33.4599 136.36 33.138 135.888C33.0026 135.689 33.054 135.419 33.2526 135.283C33.4507 135.148 33.7219 135.199 33.8573 135.398C34.1242 135.789 34.5018 136.167 34.9796 136.522C35.1727 136.665 35.2131 136.937 35.07 137.131C34.9845 137.245 34.853 137.306 34.72 137.306Z" fill="#0175D8"/>
<path d="M120.781 115.023C123.803 115.023 126.253 112.573 126.253 109.551C126.253 106.528 123.803 104.078 120.781 104.078C117.759 104.078 115.309 106.528 115.309 109.551C115.309 112.573 117.759 115.023 120.781 115.023Z" fill="#F6F7F9"/>
<path d="M120.781 112.583C122.456 112.583 123.813 111.225 123.813 109.551C123.813 107.876 122.456 106.518 120.781 106.518C119.106 106.518 117.749 107.876 117.749 109.551C117.749 111.225 119.106 112.583 120.781 112.583Z" fill="#FFB78F"/>
</svg>
