<svg width="1300" height="544" viewBox="0 0 1300 544" fill="none" xmlns="http://www.w3.org/2000/svg">
<rect width="1300" height="544" rx="30" fill="#CBE9FF"/>
<mask id="mask0" mask-type="alpha" maskUnits="userSpaceOnUse" x="0" y="0" width="1300" height="544">
<rect width="1300" height="544" rx="30" fill="#CBE9FF"/>
</mask>
<g mask="url(#mask0)">
<path d="M1186.83 544.315H1207.66H1300.46V425.166V423.328V408.197V236.342V10H487.793V425.471V511.547C483.68 510.772 481.561 510.921 481.561 510.921C481.744 512.586 484.162 515.299 487.793 518.498V532.598C483.755 531.403 480.946 531.073 480.73 532.359C480.314 534.808 483.987 538.271 487.793 541.141V544.315H492.347C494.291 545.577 495.687 546.377 495.687 546.377H520.616C520.616 546.377 518.937 545.561 516.27 544.315H524.014C526.05 545.618 527.263 546.377 527.263 546.377H548.868C548.054 545.676 547.248 544.992 546.442 544.315H548.22C548.702 545 549.2 545.684 549.699 546.377H566.318C566.318 546.377 565.861 545.635 565.022 544.315H570.298C570.947 545.668 571.304 546.377 571.304 546.377C571.304 546.377 576.406 546.484 584.574 546.641H584.582C615.12 547.201 688.427 548.331 697.609 546.377C699.279 546.022 701.14 545.288 703.093 544.315H710.788C707.804 545.371 705.918 546.377 705.918 546.377H720.044L723.784 544.315H1018.97H1028.16H1054.34H1075.09H1078.23H1098.07H1101.15H1137.52H1139.2H1160.55H1165.73H1184.39H1186.83Z" fill="#CBE9FF"/>
<path d="M821.836 105.616H750.873V309.588H821.836V105.616Z" fill="#9BCEFD"/>
<path d="M730.847 144.816H672.863V292.709H730.847V144.816Z" fill="#9BCEFD"/>
<path d="M213.088 225H168V370.123H213.088V225Z" fill="#9BCEFD"/>
<path d="M641.104 201.298H583.12V300.658H641.104V201.298Z" fill="#9BCEFD"/>
<path d="M564.016 231.617H488.125V428.061H564.016V231.617Z" fill="#9BCEFD"/>
<path d="M628.357 293.822H564.016V428.061H628.357V293.822Z" fill="#9BCEFD"/>
<path d="M628.356 293.822H622.764V428.061H628.356V293.822Z" fill="#CBE9FF"/>
<path d="M535.972 328.198H514.525V357.668H535.972V328.198Z" fill="#6DBBFA"/>
<path d="M730.639 205.421H628.357V428.061H730.639V205.421Z" fill="#9BCEFD"/>
<path d="M531.019 333.228H519.469V352.638H531.019V333.228Z" fill="#CBE9FF"/>
<path d="M1187.04 268.5H1147.15V426.815H1187.04V268.5Z" fill="#6DBBFA"/>
<path d="M765.158 247.661V111.683H762.715V247.661H765.158Z" fill="#CBE9FF"/>
<path d="M757.817 247.665V111.687H755.374V247.665H757.817Z" fill="#CBE9FF"/>
<path d="M772.499 247.666V111.687H770.056V247.666H772.499Z" fill="#CBE9FF"/>
<path d="M779.84 247.662V111.684H777.397V247.662H779.84Z" fill="#CBE9FF"/>
<path d="M787.181 247.667V111.688H784.738V247.667H787.181Z" fill="#CBE9FF"/>
<path d="M794.522 247.663V111.684H792.079V247.663H794.522Z" fill="#CBE9FF"/>
<path d="M801.864 247.667V111.689H799.421V247.667H801.864Z" fill="#CBE9FF"/>
<path d="M809.205 247.663V111.685H806.762V247.663H809.205Z" fill="#CBE9FF"/>
<path d="M816.546 247.668V111.689H814.103V247.668H816.546Z" fill="#CBE9FF"/>
<path d="M927.816 252.454L1142.58 263.14L1141.75 260.667L1166.68 229.333C1168.09 225.549 1167.63 221.978 1164.25 219.736L942.956 72.8235C940.114 70.9353 936.292 72.8483 936.125 76.2372L935.968 79.453L932.561 147.957L927.816 252.454Z" fill="#F6F7F9"/>
<path d="M1164.22 232.813L1140.92 262.316L958.171 264.361L927.367 262.316L929.553 214.244L935.677 79.2632L1162.69 228.624C1164.07 229.539 1164.7 231.238 1164.22 232.813Z" fill="#FC8946"/>
<path d="M970.992 129.974L966.837 172.851L958.171 264.361L927.367 262.316L929.553 214.244C932.295 209.024 935.61 203.384 938.585 200.061C945.233 192.64 946.895 185.219 946.895 174.5C946.895 163.781 950.218 159.658 955.204 152.237C960.19 144.816 970.992 129.974 970.992 129.974Z" fill="#F87728"/>
<path d="M1147.15 229.745V429.289H972.654L971.673 252.825L970.992 129.974L1147.15 229.745Z" fill="#F6F7F9"/>
<path d="M1147.15 229.745C1143 232.219 1133.03 225.623 1116.41 219.026C1099.79 212.43 1087.33 214.079 1069.04 212.43C1050.76 210.781 1051.59 201.71 1032.48 195.938C1013.37 190.167 1003.4 199.237 990.935 214.903C978.47 230.57 974.316 248.71 971.673 252.825L970.992 129.974L1147.15 229.745Z" fill="#FFEAC9"/>
<path d="M972.654 429.289L946.895 413.623L947.725 247.886L970.992 129.974L972.654 429.289Z" fill="#FFB78F"/>
<path d="M806.065 291.588H703.783V429.322H806.065V291.588Z" fill="#9BCEFD"/>
<path d="M713.812 303.544C713.812 303.544 714.643 296.947 737.411 286.516C754.554 278.667 802.849 299.512 821.005 279.631C826.307 273.826 822.518 248.892 818.82 236.169C817.972 233.266 816.028 230.776 813.352 229.341C808.931 226.967 800.647 224.394 786.354 225.812C761.883 228.245 696.362 296.947 713.812 303.544Z" fill="#6DBBFA"/>
<path d="M774.904 246.195C778.153 242.27 781.768 238.651 785.798 235.517C790.8 231.634 796.293 228.558 802.525 228.253C808.807 227.94 814.865 229.152 816.942 234.313C821.836 246.451 824.279 307.163 807.153 307.163C792.338 307.163 752.867 325.807 713.813 303.684C712.599 302.999 710.5 301 713.813 297.5L748.031 273.497C755.659 267.716 762.581 261.079 768.672 253.724L774.904 246.195Z" fill="#0175D8"/>
<path d="M767.999 312.02C767.999 312.02 772.893 309.596 780.23 297.45C787.568 285.312 775.71 283.342 785.681 230.57" stroke="#6DBBFA" stroke-miterlimit="10"/>
<path d="M775.344 316.877C775.344 316.877 776.873 307.766 771.464 297.945C770.035 295.348 768.115 292.709 765.556 290.169C753.324 278.032 739.987 269.333 739.987 269.333" stroke="#6DBBFA" stroke-miterlimit="10"/>
<path d="M772.893 282.88C772.893 282.88 767.999 292.231 772.893 300.913" stroke="#6DBBFA" stroke-miterlimit="10" stroke-linecap="round" stroke-linejoin="round"/>
<path d="M792.47 278.023C792.47 278.023 785.657 284.554 782.366 292.412" stroke="#6DBBFA" stroke-miterlimit="10" stroke-linecap="round" stroke-linejoin="round"/>
<path d="M962.683 242.114V282.517L739.987 337.763L747.35 310.965L747.881 309.315L962.666 242.122L962.683 242.114Z" fill="#FC8946"/>
<path d="M962.683 259.43L962.558 269.968L962.01 316.844L961.719 341.482L961.021 401.254L819.717 400.669L762.008 403.316L761.675 329.658L761.592 322.096L770.733 319.252L796.492 311.22L798.985 310.445L831.392 300.344L834.716 299.305L871.278 287.918L874.602 286.879L916.149 273.934L919.473 272.895L962.683 259.43Z" fill="#F6F7F9"/>
<path d="M796.492 311.377V331.166H770.733V319.623L796.492 311.377Z" fill="#F25751"/>
<path d="M770.45 23.053V105.616H772.893L770.45 23.053Z" fill="#9BCEFD"/>
<path d="M771.281 66.0701C775.333 66.0701 778.618 65.1398 778.618 63.9922C778.618 62.8446 775.333 61.9143 771.281 61.9143C767.229 61.9143 763.944 62.8446 763.944 63.9922C763.944 65.1398 767.229 66.0701 771.281 66.0701Z" fill="#9BCEFD"/>
<path d="M823.083 337.763V400.43H770.733V336.114L823.083 337.763Z" fill="#0175D8"/>
<path d="M903.27 340.632V400.43H827.238V338.175L829.315 338.241L903.27 340.632Z" fill="#0175D8"/>
<path d="M961.021 341.886V401.254L905.347 400.43V340.237L949.121 341.531L961.021 341.886Z" fill="#0175D8"/>
<path d="M831.392 300.658V331.991L798.985 331.166V310.552L831.392 300.658Z" fill="#F25751"/>
<path d="M871.278 288.289V332.816L838.289 332.073L834.716 331.991V299.833L871.278 288.289Z" fill="#0175D8"/>
<path d="M916.149 274.272V333.64L874.602 332.816V287.465L916.149 274.272Z" fill="#0175D8"/>
<path d="M919.473 272.895V333.64L953.21 334.3L961.802 334.465H961.852L962.683 259.43L919.473 272.895Z" fill="#0175D8"/>
<path d="M1036.64 429.289H983.457V347.658C983.457 333.088 995.364 321.272 1010.05 321.272C1024.73 321.272 1036.64 333.088 1036.64 347.658V429.289Z" fill="#0175D8"/>
<path d="M819.991 400.429C820.922 399.63 821.961 398.78 823.082 397.906V400.429H819.991Z" fill="#0986E2"/>
<path d="M843.857 386.412C855.739 382.479 881.49 385.052 903.27 380.583V400.43H827.238V394.856C831.891 391.665 837.541 388.498 843.857 386.412Z" fill="#0986E2"/>
<path d="M961.719 341.482L961.021 401.254L905.347 400.43V380.129C914.745 377.977 923.271 374.398 929.445 368.272C936.591 361.18 943.338 351.368 949.121 341.531L961.719 341.482Z" fill="#0986E2"/>
<path d="M962.009 316.844L961.801 334.465L953.209 334.3C956.675 327.942 959.666 321.865 962.009 316.844Z" fill="#0986E2"/>
<path d="M1014.2 326.219H1005.89C996.71 326.219 989.273 333.599 989.273 342.71H1030.82C1030.82 333.599 1023.38 326.219 1014.2 326.219Z" fill="#5DBFFB"/>
<path d="M1004.23 326.219H1002.57V342.71H1004.23V326.219Z" fill="#0175D8"/>
<path d="M1017.53 326.219H1015.86V342.71H1017.53V326.219Z" fill="#0175D8"/>
<path d="M962.683 242.171L962.666 242.122L961.561 239.013C960.655 236.441 957.846 235.064 955.237 235.888L747.059 301.927C745.704 302.356 744.666 303.436 744.3 304.805L738.666 325.757C738.433 326.607 738.392 327.497 738.525 328.371L739.979 337.771L747.449 311.632C747.715 310.709 748.43 309.975 749.36 309.687L962.674 243.491V242.171H962.683Z" fill="#FFEAC9"/>
<path d="M1129.7 288.702V429.289H1049.1V288.702C1049.1 282.691 1050.44 276.985 1052.83 271.872C1053.22 271.04 1053.64 270.223 1054.09 269.424C1057.2 263.825 1061.62 259.042 1066.93 255.488C1070.47 253.138 1074.4 251.316 1078.61 250.162L1078.94 250.079C1079.66 249.89 1080.39 249.708 1081.12 249.56C1083.79 248.999 1086.56 248.711 1089.4 248.711C1092.55 248.711 1095.62 249.073 1098.56 249.741C1099.39 249.939 1100.22 250.162 1101.04 250.401C1107.49 252.33 1113.26 255.818 1117.9 260.419C1120.99 263.478 1123.57 267.041 1125.52 270.957C1125.94 271.774 1126.32 272.606 1126.67 273.456C1128.57 277.999 1129.62 282.963 1129.7 288.166C1129.7 288.339 1129.7 288.52 1129.7 288.702Z" fill="#FFB78F"/>
<path d="M1049.1 288.702V420.219C1049.1 420.219 1054.92 401.254 1064.06 379.816C1073.2 358.377 1075.69 318.798 1085.66 284.167C1095.29 250.747 1099.87 250.162 1100.18 250.162C1096.75 249.213 1093.13 248.71 1089.4 248.71C1078.27 248.71 1068.2 253.188 1060.9 260.419C1053.73 267.543 1049.25 277.331 1049.11 288.166C1049.1 288.339 1049.1 288.52 1049.1 288.702Z" fill="#FFEAC9"/>
<path d="M1123.89 364.974C1128.04 383.939 1128.87 383.114 1128.04 394.658C1127.21 406.202 1118.07 429.289 1118.07 429.289H1129.7V288.702C1129.7 274.866 1122.62 262.679 1111.87 255.489C1112.52 264.88 1113.85 282.048 1115.58 294.061C1118.07 311.377 1119.73 346.009 1123.89 364.974Z" fill="#FFEAC9"/>
<path d="M1129.7 327.868H1049.1V330.342H1129.7V327.868Z" fill="#F6F7F9"/>
<path opacity="0.35" d="M1129.7 288.166C1126.65 287.275 1122.09 286.129 1115.58 284.991C1101.45 282.518 1081.51 284.167 1070.71 302.307C1059.9 320.447 1049.1 326.219 1049.1 326.219V288.702C1049.1 266.612 1067.14 248.711 1089.4 248.711C1100.54 248.711 1110.61 253.188 1117.9 260.419C1125.08 267.544 1129.55 277.331 1129.7 288.166Z" fill="#FC8946"/>
<path d="M1126.67 273.456L1100.55 272.895L1098.05 272.846L1080.62 272.466L1078.13 272.417L1052.83 271.873C1053.22 271.04 1053.64 270.223 1054.09 269.424L1078.18 269.943L1080.67 269.993L1098.11 270.372L1100.6 270.421L1125.52 270.957C1125.94 271.774 1126.32 272.606 1126.67 273.456Z" fill="#F6F7F9"/>
<path d="M1105.88 392.753C1105.88 392.753 1104.22 390.279 1106.72 387.805C1109.21 385.332 1107.55 383.683 1109.21 382.033C1110.87 380.384 1114.19 379.56 1113.36 382.033C1112.53 384.507 1110.04 384.507 1110.04 387.805C1110.04 391.104 1110.04 391.928 1105.88 392.753Z" fill="#FFEAC9"/>
<path d="M1105.05 395.227C1105.05 395.227 1104.22 395.227 1103.39 393.577C1102.56 391.928 1100.07 387.806 1098.41 390.279C1096.74 392.753 1100.9 394.402 1101.73 395.227C1102.56 396.051 1103.39 396.876 1105.05 395.227Z" fill="#FFEAC9"/>
<path d="M1105.05 400.174C1105.36 399.407 1105.05 395.226 1107.55 396.051C1110.04 396.876 1110.04 400.174 1108.38 400.998C1106.72 401.823 1103.39 404.297 1105.05 400.174Z" fill="#FFEAC9"/>
<path d="M1102.56 411.718C1102.56 411.718 1101.73 410.893 1104.22 410.069C1106.72 409.244 1105.05 407.595 1106.72 407.595C1108.38 407.595 1110.04 406.771 1109.21 409.244C1108.38 411.718 1105.88 413.367 1102.56 411.718Z" fill="#FFEAC9"/>
<path d="M1099.24 413.367C1099.24 411.718 1100.9 411.718 1098.41 410.069C1095.91 408.42 1093.42 409.244 1093.42 406.77C1093.42 404.297 1090.93 402.648 1089.27 402.648C1087.6 402.648 1084.28 401.823 1085.94 405.946C1087.6 410.069 1089.27 411.718 1090.93 411.718C1092.59 411.718 1095.08 413.367 1095.91 413.367C1096.74 413.367 1099.24 413.367 1099.24 413.367Z" fill="#FFEAC9"/>
<path d="M1099.65 428.209C1102.64 428.209 1105.05 427.655 1105.05 426.972C1105.05 426.289 1102.64 425.735 1099.65 425.735C1096.67 425.735 1094.25 426.289 1094.25 426.972C1094.25 427.655 1096.67 428.209 1099.65 428.209Z" fill="#F76D69"/>
<path d="M1107.48 417.745L1107.38 418.158L1105.05 427.384H1104.75L1094.43 427.286L1094.3 426.807L1091.94 418.166L1091.82 417.737C1091.9 417.655 1092.02 417.564 1092.21 417.49H1107.1C1107.28 417.572 1107.41 417.655 1107.48 417.745Z" fill="#FFEAC9"/>
<path d="M1107.48 417.745L1107.38 418.157C1106.63 418.718 1103.46 419.138 1099.65 419.138C1095.87 419.138 1092.71 418.726 1091.94 418.166L1091.82 417.737C1091.9 417.654 1092.02 417.564 1092.21 417.489C1093.25 417.028 1096.02 416.69 1099.31 416.665H1099.65C1103.09 416.665 1106.02 417.011 1107.1 417.489C1107.28 417.572 1107.41 417.654 1107.48 417.745Z" fill="#F87728"/>
<path fill-rule="evenodd" clip-rule="evenodd" d="M1092.43 399.731L1092.59 399.349C1092.75 398.967 1092.75 398.967 1092.75 398.967L1092.75 398.969L1092.76 398.975L1092.81 398.995C1092.86 399.013 1092.92 399.04 1093 399.074C1093.16 399.143 1093.39 399.243 1093.67 399.37C1094.22 399.624 1094.96 399.986 1095.72 400.417C1096.48 400.846 1097.27 401.351 1097.9 401.894C1098.51 402.423 1099.05 403.044 1099.19 403.718L1098.37 403.886C1098.29 403.491 1097.94 403.022 1097.35 402.517C1096.78 402.024 1096.04 401.549 1095.31 401.132C1094.58 400.717 1093.86 400.366 1093.32 400.119C1093.05 399.995 1092.83 399.898 1092.67 399.831C1092.59 399.798 1092.53 399.773 1092.49 399.756L1092.45 399.737L1092.44 399.732L1092.43 399.731Z" fill="#F6F7F9"/>
<path fill-rule="evenodd" clip-rule="evenodd" d="M1096.34 395.327L1096.74 395.227C1097.15 395.127 1097.15 395.127 1097.15 395.127L1097.22 395.419C1097.27 395.608 1097.34 395.882 1097.42 396.224C1097.59 396.907 1097.82 397.861 1098.08 398.945C1098.6 401.11 1099.23 403.796 1099.64 405.865C1100.07 407.979 1100.07 410.909 1099.96 413.282C1099.91 414.474 1099.83 415.536 1099.77 416.301C1099.74 416.683 1099.71 416.991 1099.68 417.204C1099.67 417.31 1099.67 417.392 1099.66 417.449L1099.65 417.513L1099.65 417.529L1099.65 417.535C1099.65 417.535 1099.65 417.535 1099.24 417.49L1098.82 417.444L1098.82 417.439L1098.83 417.424L1098.83 417.362C1098.84 417.308 1098.85 417.227 1098.86 417.122C1098.88 416.913 1098.91 416.609 1098.94 416.231C1099 415.475 1099.08 414.424 1099.13 413.246C1099.24 410.878 1099.23 408.035 1098.83 406.027C1098.42 403.973 1097.79 401.299 1097.27 399.136C1097.02 398.055 1096.78 397.102 1096.61 396.42C1096.53 396.079 1096.46 395.805 1096.41 395.617L1096.34 395.327Z" fill="#F6F7F9"/>
<path fill-rule="evenodd" clip-rule="evenodd" d="M1103.43 385.209L1103.85 385.104C1104.27 385 1104.27 385 1104.27 385L1104.27 385.021L1104.29 385.08C1104.3 385.133 1104.32 385.21 1104.34 385.309C1104.39 385.508 1104.46 385.796 1104.54 386.155C1104.7 386.873 1104.92 387.875 1105.13 389.013C1105.56 391.281 1106 394.118 1106 396.318C1106 398.539 1105.12 402.475 1104.27 405.806C1103.84 407.482 1103.41 409.023 1103.08 410.144C1102.92 410.705 1102.79 411.161 1102.69 411.477C1102.64 411.635 1102.61 411.758 1102.58 411.842L1102.55 411.937L1102.54 411.968L1100.83 418L1100 417.763L1101.72 411.717L1102.11 411.837C1101.72 411.717 1101.72 411.717 1101.72 411.717L1101.73 411.685L1101.76 411.591C1101.78 411.509 1101.82 411.387 1101.87 411.23C1101.96 410.916 1102.1 410.462 1102.26 409.904C1102.58 408.788 1103.01 407.256 1103.44 405.59C1104.3 402.236 1105.14 398.409 1105.14 396.318C1105.14 394.205 1104.72 391.435 1104.29 389.174C1104.07 388.048 1103.86 387.056 1103.7 386.345C1103.62 385.99 1103.55 385.705 1103.51 385.51C1103.48 385.412 1103.47 385.336 1103.45 385.286L1103.44 385.228L1103.43 385.209Z" fill="#F6F7F9"/>
<path d="M1105.05 386.981C1105.05 386.981 1097.58 385.332 1097.58 377.911C1097.58 377.086 1094.25 377.086 1094.25 371.314C1094.25 365.542 1100.07 362.244 1103.39 368.016C1106.72 373.788 1104.22 375.437 1105.05 378.735C1105.88 382.034 1108.38 382.034 1105.05 386.981Z" fill="#FFEAC9"/>
<path d="M1097.58 396.051C1097.58 396.051 1098.41 391.104 1096.74 389.455C1095.08 387.805 1098.41 386.156 1096.74 382.858C1095.08 379.56 1090.1 376.262 1088.43 379.56C1086.77 382.858 1088.43 386.156 1090.93 389.455C1093.42 392.753 1091.76 396.051 1094.25 396.051C1096.74 396.051 1097.58 396.051 1097.58 396.051Z" fill="#FFEAC9"/>
<path d="M1093.42 399.349C1093.42 399.349 1094.25 397.7 1090.93 395.227C1087.6 392.753 1088.43 391.104 1085.94 390.279C1083.45 389.455 1077.63 389.455 1079.29 391.928C1080.96 394.402 1080.13 398.525 1084.28 398.525C1088.43 398.525 1089.27 400.174 1090.93 400.174C1092.59 400.174 1093.42 399.349 1093.42 399.349Z" fill="#FFEAC9"/>
<path d="M1088 248V429H1091V248H1088Z" fill="#F6F7F9"/>
<path d="M972.239 406.284V411.306H755.393V408.708C755.393 407.372 756.482 406.284 757.836 406.284H972.239Z" fill="#FFEAC9"/>
<path d="M972.239 408.799H755.393V411.306H972.239V408.799Z" fill="#FFB78F"/>
<path d="M972.239 411.306V419.675H740.586V414.035C740.586 412.526 741.816 411.306 743.336 411.306H972.239Z" fill="#FFEAC9"/>
<path d="M972.239 414.859H740.586V419.675H972.239V414.859Z" fill="#FFB78F"/>
<path d="M972.239 419.675V428.877H727.523V422.388C727.523 420.887 728.744 419.675 730.257 419.675H972.239Z" fill="#FFEAC9"/>
<path d="M972.239 423.022H727.523V428.877H972.239V423.022Z" fill="#FFB78F"/>
<path d="M796.492 311.22V331.167H770.733V319.252L796.492 311.22Z" fill="#0265CD"/>
<path d="M770.733 336.114L823.083 337.763V342.546C820.557 344.294 818.064 346 815.604 347.658C798.462 359.202 779.516 360.892 770.733 360.983V336.114Z" fill="#0265CD"/>
<path d="M827.238 338.175L829.315 338.241C828.617 338.719 827.927 339.198 827.238 339.676V338.175Z" fill="#0265CD"/>
<path d="M821 337H818V401H821V337Z" fill="#F6F7F9"/>
<path d="M831.392 300.344V331.991L798.985 331.167V310.445L831.392 300.344Z" fill="#0265CD"/>
<path d="M871.278 287.918V312.325C860.317 317.553 849.158 324.694 838.289 332.074L834.716 331.991V299.306L871.278 287.918Z" fill="#0265CD"/>
<path d="M916.149 273.934V296.403C906.352 300.526 896.879 303.849 889.559 305.605C884.656 306.776 879.654 308.565 874.602 310.8V286.879L916.149 273.934Z" fill="#0265CD"/>
<path d="M140.033 384.751L83.7443 388.478L66.6183 389.608V243.908C66.6183 243.908 64.167 146.783 83.7443 129.781C99.8814 115.771 124.345 116.613 132.43 117.338C133.593 117.445 134.54 118.311 134.723 119.449C134.898 120.513 135.072 121.642 135.222 122.838C135.297 126.557 135.405 132.156 135.529 139.222C136.709 202.062 140.033 380.752 140.033 384.751Z" fill="#9BCEFD"/>
<path d="M135.538 139.222C134.773 146.272 132.588 153.372 127.793 158.921C113.11 175.923 93.5329 178.347 88.6386 200.207C83.7443 222.057 83.7443 324.039 83.7443 324.039V388.479L66.6183 389.608V243.908C66.6183 243.908 64.167 146.783 83.7443 129.781C100.097 115.59 124.984 116.637 132.746 117.363C133.726 117.454 134.524 118.188 134.682 119.152C134.873 120.298 135.064 121.535 135.23 122.838C135.845 127.662 136.169 133.425 135.538 139.222Z" fill="#6DBBFA"/>
<path d="M140.024 222.057H98.4263V224.482H140.024V222.057Z" fill="#CBE9FF"/>
<path d="M140.024 226.914H98.4263V229.338H140.024V226.914Z" fill="#CBE9FF"/>
<path d="M140.024 231.771H98.4263V234.195H140.024V231.771Z" fill="#CBE9FF"/>
<path d="M140.024 236.627H98.4263V239.052H140.024V236.627Z" fill="#CBE9FF"/>
<path d="M141.245 268.579H99.6479V271.003H141.245V268.579Z" fill="#CBE9FF"/>
<path d="M141.245 273.436H99.6479V275.86H141.245V273.436Z" fill="#CBE9FF"/>
<path d="M141.245 278.292H99.6479V280.716H141.245V278.292Z" fill="#CBE9FF"/>
<path d="M141.245 283.149H99.6479V285.573H141.245V283.149Z" fill="#CBE9FF"/>
<path d="M140.024 311.077H98.4263V313.501H140.024V311.077Z" fill="#CBE9FF"/>
<path d="M140.024 315.934H98.4263V318.358H140.024V315.934Z" fill="#CBE9FF"/>
<path d="M140.024 320.79H98.4263V323.214H140.024V320.79Z" fill="#CBE9FF"/>
<path d="M140.024 325.647H98.4263V328.071H140.024V325.647Z" fill="#CBE9FF"/>
<path d="M181.979 282.918H123.995V382.278H181.979V282.918Z" fill="#6DBBFA"/>
<path d="M104.891 313.237H29.0005V509.681H104.891V313.237Z" fill="#6DBBFA"/>
<path d="M169.232 375.442H104.891V509.681H169.232V375.442Z" fill="#6DBBFA"/>
<path d="M76.8468 401.066H55.3999V430.536H76.8468V401.066Z" fill="#55B7F3"/>
<path d="M169.231 375.442H163.639V509.681H169.231V375.442Z" fill="#9BCEFD"/>
<path d="M271.514 287.041H169.232V509.681H271.514V287.041Z" fill="#6DBBFA"/>
<path d="M210.473 341.066H189.026V370.536H210.473V341.066Z" fill="#55B7F3"/>
<path d="M250.068 341.066H228.621V370.536H250.068V341.066Z" fill="#55B7F3"/>
<path d="M245.123 345.585H233.573V366.009H245.123V345.585Z" fill="#CBE9FF"/>
<path d="M205.528 345.585H193.978V366.009H205.528V345.585Z" fill="#CBE9FF"/>
<path d="M71.8945 405.585H60.3442V426.009H71.8945V405.585Z" fill="#CBE9FF"/>
<path d="M250.117 300.646H239.315V303.945H250.117V300.646Z" fill="#9BCEFD"/>
<path d="M57.3361 456.488H46.5337V459.787H57.3361V456.488Z" fill="#9BCEFD"/>
<path d="M49.0265 326.208H38.2241V329.506H49.0265V326.208Z" fill="#9BCEFD"/>
<path d="M98.0529 344.348H87.2505V347.646H98.0529V344.348Z" fill="#9BCEFD"/>
<path d="M52.8029 335H42.0005V338.298H52.8029V335Z" fill="#9BCEFD"/>
<path d="M120.274 440.312C118.438 440.312 116.95 438.836 116.95 437.014V428.769H123.598V437.014C123.598 438.836 122.11 440.312 120.274 440.312Z" fill="#CBE9FF"/>
<path d="M120.274 451.856C118.438 451.856 116.95 450.38 116.95 448.558V440.312H123.598V448.558C123.598 450.38 122.11 451.856 120.274 451.856Z" fill="#CBE9FF"/>
<path d="M120.274 463.4C118.438 463.4 116.95 461.924 116.95 460.102V451.856H123.598V460.102C123.598 461.924 122.11 463.4 120.274 463.4Z" fill="#CBE9FF"/>
<path d="M115.139 422.922L90.584 406.918C89.8361 406.431 90.0356 405.293 90.9081 405.087C97.2815 403.595 115.521 400.973 120.565 418.371C120.797 419.162 121.853 419.344 122.351 418.684C125.791 414.124 136.32 403.413 153.512 413.712C154.227 414.141 154.152 415.188 153.387 415.518L134.832 423.409C133.96 423.78 134.018 425.033 134.932 425.305C139.968 426.798 149.681 431.572 151.617 446.414C151.725 447.272 150.762 447.857 150.039 447.379L122.468 429.14C122.135 428.917 121.703 428.909 121.371 429.123L91.5562 447.329C90.7751 447.808 89.8029 447.098 90.0356 446.208C91.5479 440.494 97.0571 426.295 114.665 424.786C115.629 424.695 115.953 423.45 115.139 422.922Z" fill="#CBE9FF"/>
<path d="M120.274 474.944C118.438 474.944 116.95 473.468 116.95 471.646V463.4H123.598V471.646C123.598 473.468 122.11 474.944 120.274 474.944Z" fill="#CBE9FF"/>
<path d="M120.274 486.487C118.438 486.487 116.95 485.011 116.95 483.189V474.944H123.598V483.189C123.598 485.011 122.11 486.487 120.274 486.487Z" fill="#CBE9FF"/>
<path d="M63.9835 464.734H53.1812V468.033H63.9835V464.734Z" fill="#9BCEFD"/>
<path d="M141.678 299.409H135.861V313.427H141.678V299.409Z" fill="#9BCEFD"/>
<path d="M155.803 327.444H149.987V341.462H155.803V327.444Z" fill="#9BCEFD"/>
<path d="M962.683 259.43L962.558 269.968C954.54 277.661 936.824 287.424 919.473 294.976V272.895L962.683 259.43Z" fill="#0265CD"/>
<path d="M972.239 400.429V406.284H762.008V402.499C762.008 401.361 762.938 400.429 764.093 400.429H972.239Z" fill="#FFEAC9"/>
<path d="M972.239 403.909V406.284H762.008V403.315L865.253 403.612H865.262L972.239 403.909Z" fill="#FFB78F"/>
<path d="M983.457 370.745H995.921V386.412H1007.55V402.079H1017.53V418.57H1028.33V429.289H983.457V370.745Z" fill="#5DBFFB"/>
<path opacity="0.25" d="M871.386 400.429L865.262 402.516H865.253V406.284L857.152 408.799V411.305L848.784 415.486V419.675L837.084 423.022L836.793 423.105V428.877H727.523V422.363C727.523 420.879 728.736 419.675 730.232 419.675H740.586V413.96C740.586 412.493 741.782 411.305 743.261 411.305H755.393V408.733C755.393 407.38 756.498 406.284 757.861 406.284H762.007V402.26C762.007 401.246 762.83 400.429 763.852 400.429H871.386Z" fill="#F87728"/>
<path d="M893.737 279.219H892.442V296.609H893.737V279.219Z" fill="#FC8946"/>
<path d="M896.339 303.057H889.85V299.833C889.85 298.052 891.304 296.609 893.099 296.609C894.893 296.609 896.348 298.052 896.348 299.833V303.057H896.339Z" fill="#5DBFFB"/>
<path d="M895.932 322.377H890.249C888.952 322.377 887.897 321.329 887.897 320.043V305.382C887.897 304.096 888.952 303.049 890.249 303.049H895.932C897.229 303.049 898.284 304.096 898.284 305.382V320.043C898.284 321.338 897.229 322.377 895.932 322.377Z" fill="#55B7F3"/>
<path d="M895.475 321.09H890.706C889.875 321.09 889.193 320.422 889.193 319.589V305.844C889.193 305.019 889.866 304.343 890.706 304.343H895.475C896.306 304.343 896.988 305.011 896.988 305.844V319.589C896.988 320.422 896.306 321.09 895.475 321.09Z" fill="#FFEAC9"/>
<path d="M1186.83 544.315H1207.66H1300.46V425.166V423.328C1288.86 421.918 1275.29 421.448 1261.83 421.497C1245.12 421.555 1228.58 422.412 1216.12 423.27C1203.39 424.144 1194.93 425.01 1194.93 425.01L1187.04 425.067L1186.21 425.076L1169.42 425.191L1147.15 425.356L1129.7 425.48L1090.65 425.768L1088.16 425.785L1085.51 425.801L1073.53 425.892L1059.48 425.991L1049.1 426.065L1036.64 426.156L1028.33 426.214L983.457 426.543L972.637 426.618L972.239 426.626L968.316 426.651L836.793 427.607L806.065 427.83L735.409 428.341C735.409 428.341 733.414 428.242 729.792 428.061C729.094 428.028 728.337 427.995 727.523 427.953C721.997 427.681 713.812 427.294 703.783 426.832C683.807 425.917 656.518 424.729 628.357 423.715C626.496 423.641 624.626 423.575 622.765 423.509C620.529 423.427 618.302 423.352 616.067 423.278C614.829 423.229 613.591 423.187 612.361 423.146C608.63 423.023 604.916 422.899 601.218 422.783C598.991 422.717 596.781 422.652 594.571 422.586C584.973 422.297 575.575 422.05 566.642 421.868C566.459 421.86 566.285 421.852 566.102 421.852C565.404 421.835 564.706 421.819 564.016 421.81C544.763 421.423 527.862 421.316 516.045 421.679C507.561 421.934 397.558 427.838 328.023 434.5C223.721 451.659 -36.279 523.841 -55.4263 523L49.3799 568.5C52.9071 595 383.771 550.334 383.954 552C384.136 553.666 444.818 553.801 448.45 557L476.667 552C472.628 550.804 486.96 552.714 486.744 554C486.329 556.449 489.489 553.131 493.295 556L497.83 554H504.38C506.324 555.262 512.946 552 512.946 552L520.616 546.377C520.616 546.377 529.931 553.245 527.263 552H528.566C530.602 553.303 527.263 546.377 527.263 546.377H548.868C548.054 545.676 549.674 552.676 548.868 552L549.699 552.5C550.181 553.184 549.201 545.684 549.699 546.377H566.318C566.318 546.377 568.708 551.819 567.868 550.5L570.388 550C571.036 551.352 571.304 546.377 571.304 546.377C571.304 546.377 576.406 546.484 584.574 546.641H584.582C615.12 547.201 688.427 548.331 697.609 546.377C699.279 546.022 699.443 548.473 701.395 547.5H709.457C706.474 548.555 705.918 546.377 705.918 546.377H720.044L721.047 548.5L1019.85 550H1031.43L1056.12 548L1075.09 544.315H1078.23H1098.07H1101.15H1137.52H1139.2H1160.55H1165.73H1184.39H1186.83Z" fill="#0986E2"/>
<path d="M842.826 498.206C842.826 498.206 847.213 486.398 853.404 483.479C853.404 483.479 849.997 495.938 850.487 498.363C850.978 500.787 842.826 498.206 842.826 498.206Z" fill="#0175D8"/>
<path d="M1261.83 298.184H1216.12V426.815H1261.83V298.184Z" fill="#6DBBFA"/>
<path d="M1300.47 423.327V408.197V236.342H1261.83V298.184V408.147V421.497V425.166H1300.47V423.327Z" fill="#6DBBFA"/>
<path d="M1216.12 320.447H1186.21V428.464H1216.12V320.447Z" fill="#6DBBFA"/>
<path d="M1198.26 376.312C1196.42 376.312 1194.93 374.836 1194.93 373.014V364.769H1201.58V373.014C1201.58 374.836 1200.09 376.312 1198.26 376.312Z" fill="#CBE9FF"/>
<path d="M1198.26 387.856C1196.42 387.856 1194.93 386.38 1194.93 384.558V376.312H1201.58V384.558C1201.58 386.38 1200.09 387.856 1198.26 387.856Z" fill="#CBE9FF"/>
<path d="M1198.26 399.4C1196.42 399.4 1194.93 397.924 1194.93 396.102V387.856H1201.58V396.102C1201.58 397.924 1200.09 399.4 1198.26 399.4Z" fill="#CBE9FF"/>
<path d="M1193.12 358.922L1168.57 342.918C1167.82 342.431 1168.02 341.293 1168.89 341.087C1175.27 339.595 1193.51 336.973 1198.55 354.371C1198.78 355.162 1199.84 355.344 1200.34 354.684C1203.78 350.124 1214.3 339.413 1231.5 349.712C1232.21 350.141 1232.14 351.188 1231.37 351.518L1212.82 359.409C1211.94 359.78 1212 361.033 1212.92 361.305C1217.95 362.798 1227.67 367.572 1229.6 382.414C1229.71 383.272 1228.75 383.857 1228.02 383.379L1200.45 365.14C1200.12 364.917 1199.69 364.909 1199.36 365.123L1169.54 383.329C1168.76 383.808 1167.79 383.098 1168.02 382.208C1169.53 376.494 1175.04 362.295 1192.65 360.786C1193.61 360.695 1193.94 359.45 1193.12 358.922Z" fill="#CBE9FF"/>
<path d="M1198.26 410.944C1196.42 410.944 1194.93 409.468 1194.93 407.646V399.4H1201.58V407.646C1201.58 409.468 1200.09 410.944 1198.26 410.944Z" fill="#CBE9FF"/>
<path d="M1198.26 422.487C1196.42 422.487 1194.93 421.011 1194.93 419.189V410.944H1201.58V419.189C1201.58 421.011 1200.09 422.487 1198.26 422.487Z" fill="#CBE9FF"/>
<path d="M868.682 497.016C868.682 497.016 877.623 478.405 886.257 475C886.257 475 885.459 491.978 879.111 498.294C872.762 504.61 868.682 497.016 868.682 497.016Z" fill="#0175D8"/>
<path d="M1267.13 414.828C1267.13 414.828 1268.04 405.102 1264.7 401C1264.7 401 1262.87 410.855 1261.71 412.389C1260.55 413.923 1267.13 414.828 1267.13 414.828Z" fill="#0175D8"/>
<path d="M1269 419.064C1269 419.064 1261.88 404.639 1255 402C1255 402 1255.64 415.159 1260.69 420.054C1265.75 424.95 1269 419.064 1269 419.064Z" fill="#0175D8"/>
<path d="M1186.83 544.315H1207.66H1300.46V425.166V423.327V408.197L1275.73 407.974C1271.09 407.933 1266.45 407.991 1261.83 408.147C1246.46 408.683 1231.19 410.324 1216.12 413.053C1206.33 414.818 1196.63 417.044 1187.04 419.716C1186.77 419.79 1186.48 419.872 1186.21 419.947C1180.57 421.538 1174.97 423.286 1169.42 425.191C1167.87 425.719 1166.32 426.263 1164.8 426.815C1159.29 428.794 1153.82 430.93 1148.42 433.214C1132.49 439.951 1114.04 447.504 1094.02 455.23C1092.34 455.881 1090.64 456.532 1088.94 457.176C1076.71 461.851 1063.95 466.576 1050.86 471.193C1049.37 471.721 1047.87 472.249 1046.38 472.768C1037.52 475.868 1028.53 478.911 1019.46 481.855C1019.03 481.995 1018.6 482.135 1018.17 482.275C1014.09 483.603 1010 484.906 1005.89 486.184C972.97 496.458 944.111 499.583 916.108 499.575C911.92 499.575 907.748 499.5 903.594 499.377C902.488 499.344 901.383 499.311 900.286 499.261C895.6 499.088 890.913 498.849 886.227 498.552C883.742 498.404 881.249 498.239 878.756 498.057C875.632 497.843 872.508 497.604 869.367 497.348C863.176 496.862 856.936 496.326 850.612 495.79C848.452 495.608 846.274 495.427 844.089 495.254C807.245 492.203 767.284 489.696 717.552 496.078C715.449 496.351 713.38 496.631 711.336 496.919C710.497 497.035 709.658 497.159 708.827 497.29H708.818C695.972 499.179 684.28 501.487 673.627 504.093C663.739 506.501 654.756 509.164 646.597 511.992C643.713 512.99 640.938 514.004 638.262 515.043C613.724 524.501 597.537 535.303 587.167 544.315C586.261 545.107 585.397 545.874 584.583 546.64C615.12 547.201 688.427 548.331 697.609 546.377C699.279 546.022 701.14 545.288 703.093 544.315H710.788C707.805 545.371 705.918 546.377 705.918 546.377H720.044L723.784 544.315H1018.97H1028.16H1054.34H1075.09H1078.23H1098.07H1101.15H1137.52H1139.2H1160.55H1165.73H1184.39H1186.83Z" fill="#0175D8"/>
<path d="M886.177 498.808C886.177 498.808 892.168 465.652 892.492 463.063C892.816 460.474 900.826 483.265 897.735 488.929C894.644 494.594 905.538 473.073 905.538 473.073C905.538 473.073 909.792 489.886 899.214 500.407C888.628 510.929 886.177 498.808 886.177 498.808Z" fill="#0175D8"/>
<path d="M258.324 450.404C258.324 450.404 260.169 443.772 262.806 442.154C262.806 442.154 263.541 447.778 261.826 450.221C260.111 452.663 258.324 450.404 258.324 450.404Z" fill="#0986E2"/>
<path d="M258.997 453.25C258.997 453.25 257.153 446.618 254.516 445C254.516 445 253.781 450.625 255.496 453.067C257.211 455.51 258.997 453.25 258.997 453.25Z" fill="#0986E2"/>
<path d="M269.501 451.476C269.501 451.476 275.193 441.757 275.674 441.029C276.155 440.301 269.157 444.382 268.711 446.486C268.264 448.589 270.177 440.78 270.177 440.78C270.177 440.78 265.435 444.145 265.836 449.089C266.239 454.034 269.501 451.476 269.501 451.476Z" fill="#0986E2"/>
<path d="M901.981 501.537C901.981 501.537 909.46 488.27 932.444 488.732C932.444 488.732 915.667 497.967 914.695 501.529C913.723 505.091 902.804 505.578 901.981 501.537Z" fill="#0175D8"/>
<path d="M1227.04 519.587C1227 519.678 1226.89 519.876 1226.7 520.214C1226.62 520.362 1226.49 520.535 1226.34 520.717C1226.72 520.107 1226.96 519.711 1227.04 519.587Z" fill="#0E1343"/>
<path d="M651.906 316.324H641.104V319.622H651.906V316.324Z" fill="#CBE9FF"/>
<path d="M596.233 317.974H585.43V321.272H596.233V317.974Z" fill="#CBE9FF"/>
<path d="M690.803 237H680V240.298H690.803V237Z" fill="#CBE9FF"/>
<path d="M655.803 263H645V266.298H655.803V263Z" fill="#CBE9FF"/>
<path d="M696.803 248H686V251.298H696.803V248Z" fill="#CBE9FF"/>
<path d="M691.803 289H681V292.298H691.803V289Z" fill="#CBE9FF"/>
<path d="M516.461 374.868H505.659V378.166H516.461V374.868Z" fill="#CBE9FF"/>
<path d="M508.152 244.588H497.349V247.886H508.152V244.588Z" fill="#CBE9FF"/>
<path d="M557.178 262.728H546.375V266.026H557.178V262.728Z" fill="#CBE9FF"/>
<path d="M512.803 293H502V296.298H512.803V293Z" fill="#CBE9FF"/>
<path d="M657.723 323.745H646.92V327.044H657.723V323.745Z" fill="#CBE9FF"/>
<path d="M588.754 327.868H577.952V331.166H588.754V327.868Z" fill="#CBE9FF"/>
<path d="M523.109 383.114H512.306V386.413H523.109V383.114Z" fill="#CBE9FF"/>
<path d="M714.228 323.745H703.425V327.044H714.228V323.745Z" fill="#CBE9FF"/>
<path d="M686.806 346.008H676.004V349.307H686.806V346.008Z" fill="#CBE9FF"/>
<path d="M715.89 384.763H705.087V388.061H715.89V384.763Z" fill="#CBE9FF"/>
<path d="M707.58 392.184H696.778V395.482H707.58V392.184Z" fill="#CBE9FF"/>
<path d="M1161.28 279.219H1155.46V293.237H1161.28V279.219Z" fill="#9BCEFD"/>
<path d="M1172.91 279.219H1167.1V293.237H1172.91V279.219Z" fill="#9BCEFD"/>
<path d="M1277.61 254.482H1271.8V268.5H1277.61V254.482Z" fill="#9BCEFD"/>
<path d="M686.806 158.009H680.99V172.026H686.806V158.009Z" fill="#CBE9FF"/>
<path d="M700.102 158.009H694.285V172.026H700.102V158.009Z" fill="#CBE9FF"/>
<path d="M700.102 177.798H694.285V191.816H700.102V177.798Z" fill="#CBE9FF"/>
<path d="M713.397 158.009H707.58V172.026H713.397V158.009Z" fill="#CBE9FF"/>
<path d="M725.03 158.009H719.213V172.026H725.03V158.009Z" fill="#CBE9FF"/>
<path d="M725.03 177.798H719.213V191.816H725.03V177.798Z" fill="#CBE9FF"/>
<path d="M184.837 239.018H179.02V253.035H184.837V239.018Z" fill="#CBE9FF"/>
<path d="M600.803 217.789H594.986V231.807H600.803V217.789Z" fill="#CBE9FF"/>
<path d="M196.47 256.333H190.653V270.351H196.47V256.333Z" fill="#CBE9FF"/>
<path d="M614.928 245.824H609.112V259.842H614.928V245.824Z" fill="#CBE9FF"/>
<path d="M1287.59 273.447H1281.77V287.465H1287.59V273.447Z" fill="#9BCEFD"/>
<path d="M1277.61 273.447H1271.8V287.465H1277.61V273.447Z" fill="#9BCEFD"/>
<path d="M1251.44 330.754H1245.62V344.772H1251.44V330.754Z" fill="#9BCEFD"/>
<path d="M1232.33 355.491H1226.51V369.509H1232.33V355.491Z" fill="#9BCEFD"/>
<path d="M1232.74 315.5H1226.93V329.517H1232.74V315.5Z" fill="#9BCEFD"/>
<path d="M1172.91 299.833H1167.1V313.851H1172.91V299.833Z" fill="#9BCEFD"/>
<path d="M253.591 78.2123C251.331 81.7661 247.334 84.1244 242.781 84.1244C235.726 84.1244 230 78.4514 230 71.4426C230 65.2667 234.446 60.1214 240.338 59C239.083 60.9542 238.368 63.2795 238.368 65.7614C238.368 72.7619 244.085 78.4431 251.148 78.4431C251.987 78.4431 252.81 78.3607 253.591 78.2123Z" fill="#F6F7F9"/>
<path d="M1022.93 285.403C1022.93 285.964 1022.89 286.508 1022.83 287.053C1022.04 293.294 1016.87 298.176 1010.46 298.572C1010.19 298.588 1009.91 298.596 1009.63 298.596C1009.35 298.596 1009.07 298.588 1008.8 298.572C1002.39 298.176 997.225 293.294 996.444 287.053C996.369 286.508 996.336 285.964 996.336 285.403C996.336 278.395 1001.84 272.664 1008.8 272.235C1009.07 272.219 1009.35 272.21 1009.63 272.21C1009.91 272.21 1010.19 272.219 1010.46 272.235C1017.43 272.664 1022.93 278.395 1022.93 285.403Z" fill="#FFB78F"/>
<path d="M1010.46 272.235V298.572C1010.19 298.588 1009.91 298.596 1009.63 298.596C1009.35 298.596 1009.07 298.588 1008.8 298.572V272.235C1009.07 272.219 1009.35 272.21 1009.63 272.21C1009.91 272.21 1010.19 272.219 1010.46 272.235Z" fill="#F6F7F9"/>
<path d="M1022.93 285.403C1022.93 285.964 1022.89 286.508 1022.83 287.052H996.444C996.369 286.508 996.336 285.964 996.336 285.403H1022.93Z" fill="#F6F7F9"/>
<path d="M905.763 339.824H902.439V400.842H905.763V339.824Z" fill="#F6F7F9"/>
<path d="M890.913 378.818L891.885 400.471H892.866L893.838 378.175L890.913 378.818Z" fill="#0E1343"/>
<path d="M895.791 370.49C895.791 370.828 895.699 371.141 895.575 371.422H868.161L863.882 359.828C863.882 359.828 873.654 357.569 874.626 357.569C875.599 357.569 875.598 354.337 875.598 354.337C877.56 356.274 889.284 360.48 892.542 363.061C895.791 365.65 895.791 369.203 895.791 370.49Z" fill="#0E1343"/>
<path d="M854.442 368.478C854.442 368.478 854.767 369.773 856.071 370.094C857.376 370.416 859.004 368.156 858.348 365.567C857.7 362.978 854.118 366.21 854.118 366.21L854.442 368.478Z" fill="#FFEAC9"/>
<path d="M863.392 386.742C863.068 387.715 852.324 394.823 852.324 394.823L851.343 399.02L852.614 399.778C852.714 399.836 852.673 399.993 852.556 399.993H850.038L849.091 396.002L849.39 395.796L849.025 395.721L848.742 394.509C848.742 394.509 851.999 393.215 852.972 391.599C853.952 389.982 858.182 387.072 858.182 387.072L848.742 388.045H840.931C840.931 388.045 840.283 380.615 843.532 375.767C846.789 370.919 852.972 367.686 852.972 367.686L853.296 368.329V376.41L851.343 381.902L859.81 382.223L863.392 384.812C863.392 384.796 863.716 385.769 863.392 386.742Z" fill="#FFEAC9"/>
<path d="M849.557 371.389C849.557 371.389 843.698 376.88 844.346 380.113C844.995 383.345 850.861 380.434 854.443 381.086C858.024 381.737 859.329 381.407 859.329 381.407C859.329 381.407 859.004 379.791 856.395 379.469C853.794 379.148 853.462 379.148 849.557 378.826L846.623 378.505" stroke="#0265CD" stroke-width="0.25" stroke-miterlimit="10" stroke-linecap="round" stroke-linejoin="round"/>
<path d="M864.863 384.961L872.35 395.944C872.35 395.944 873.978 398.855 878.208 399.498C878.208 399.498 879.837 399.819 878.856 400.141C877.876 400.463 872.665 400.784 872.017 399.819V400.141H870.389C870.389 400.141 870.065 399.498 870.389 398.525C870.713 397.552 870.389 396.266 869.408 394.971C868.428 393.676 864.522 391.417 863.55 389.479C862.569 387.542 864.198 383.336 864.198 383.336L864.863 384.961Z" fill="#FFEAC9"/>
<path d="M850.047 370.903C850.047 370.903 843.856 376.831 844.504 380.063C845.152 383.296 851.019 380.385 854.6 381.036C858.182 381.688 859.486 381.358 859.486 381.358C859.486 381.358 859.162 379.742 856.553 379.42C853.944 379.099 853.62 379.099 849.714 378.777L846.781 378.456L850.047 370.903Z" fill="#FFEAC9"/>
<path d="M864.206 383.988L863.234 400.471H862.577L861.605 383.023L864.206 383.988Z" fill="#0E1343"/>
<path d="M860.134 372.197H867.713H895.633V379.626L881.631 379.948C881.631 379.948 879.512 380.434 877.884 381.729C876.255 383.023 873.978 385.283 871.045 385.283C868.112 385.283 852.157 385.283 852.157 385.283C852.157 385.283 852.481 381.086 855.415 380.434C858.348 379.783 860.301 377.523 860.301 375.264C860.301 373.005 860.134 372.197 860.134 372.197Z" fill="#0E1343"/>
<path d="M850.063 389.488H841.239C840.798 389.488 840.441 389.133 840.441 388.696V388.251C840.441 388.045 840.615 387.872 840.823 387.872H850.479C850.687 387.872 850.861 388.045 850.861 388.251V388.696C850.861 389.133 850.504 389.488 850.063 389.488Z" fill="#0E1343"/>
<path d="M841.919 400.149H841.579C841.496 400.149 841.437 400.075 841.454 399.993L844.263 388.531L845.825 388.985L842.11 400.009C842.086 400.092 842.002 400.149 841.919 400.149Z" fill="#0E1343"/>
<path d="M849.59 400.149H849.931C850.014 400.149 850.072 400.075 850.055 399.993L847.247 388.531L845.684 388.985L849.399 400.009C849.424 400.092 849.498 400.149 849.59 400.149Z" fill="#0E1343"/>
<path d="M855.415 367.192C855.415 367.192 854.11 368.486 854.767 372.362C855.415 376.237 854.767 379.47 852.814 379.148C850.861 378.826 850.537 375.594 851.509 374.621C851.509 374.621 849.232 374.3 851.185 372.04C853.138 369.781 852.166 370.424 852.166 368.486C852.166 368.486 848.908 370.424 846.956 373.335C845.003 376.245 844.679 375.924 844.679 375.924C844.679 375.924 843.05 371.397 847.936 368.816C852.822 366.227 853.146 366.227 853.47 364.619C853.794 363.003 858.356 361.708 859.004 363.646C859.653 365.584 859.985 365.584 859.985 365.584C859.985 365.584 859.661 366.878 859.004 366.557C858.348 366.235 858.356 366.235 858.356 366.235C858.356 366.235 856.404 367.208 856.079 366.878C855.755 366.549 856.404 365.905 855.431 365.905C854.442 365.897 855.415 367.192 855.415 367.192Z" fill="#0E1343"/>
<path d="M849.715 387.385C849.715 387.385 851.418 390.263 850.853 391.104C850.205 392.077 859.478 385.291 859.478 385.291L849.715 387.385Z" fill="#FFEAC9"/>
<path opacity="0.34" d="M916.149 273.826V296.296C906.352 300.419 896.879 303.741 889.559 305.498C884.656 306.669 879.654 308.458 874.602 310.693V286.772L916.149 273.826Z" fill="#0265CD"/>
<path opacity="0.35" d="M902.438 380.706V400.38H827.312V394.806C831.965 391.615 837.616 388.449 843.931 386.363C855.648 382.487 880.859 384.936 902.438 380.706Z" fill="#0986E2"/>
</g>
</svg>
