<svg width="375" height="477" viewBox="0 0 375 477" fill="none" xmlns="http://www.w3.org/2000/svg">
<mask id="mask0" mask-type="alpha" maskUnits="userSpaceOnUse" x="0" y="0" width="375" height="477">
<rect width="375" height="477" fill="#C4C4C4"/>
</mask>
<g mask="url(#mask0)">
<rect x="-457.018" width="994.216" height="414" fill="#CBE9FF"/>
<path d="M310.682 414.594H322.468H375V323.926V322.526V311.013V180.238V8H-84.9842V324.158V389.658C-87.3123 389.069 -88.5117 389.181 -88.5117 389.181C-88.4082 390.449 -87.0395 392.513 -84.9842 394.948V405.677C-87.27 404.768 -88.8597 404.517 -88.982 405.495C-89.2172 407.359 -87.1383 409.994 -84.9842 412.178V414.594H-82.4068C-81.3062 415.554 -80.5161 416.162 -80.5161 416.162H-66.4061C-66.4061 416.162 -67.3562 415.541 -68.8659 414.594H-64.4825C-63.3301 415.585 -62.6435 416.162 -62.6435 416.162H-50.4149C-50.8758 415.629 -51.332 415.108 -51.7882 414.594H-50.7817C-50.5089 415.114 -50.2267 415.635 -49.9445 416.162H-40.5379C-40.5379 416.162 -40.7966 415.597 -41.2716 414.594H-38.285C-37.9182 415.623 -37.7159 416.162 -37.7159 416.162C-37.7159 416.162 -34.8281 416.244 -30.2047 416.363H-30.2C-12.9153 416.79 28.5773 417.649 33.7744 416.162C34.7198 415.892 35.7734 415.334 36.8786 414.594H41.2339C39.5454 415.397 38.4778 416.162 38.4778 416.162H46.4734L48.5899 414.594H215.67H220.872H235.688H247.432H249.214H260.441H262.186H282.768H283.723H295.805H298.74H309.299H310.682Z" fill="#CBE9FF"/>
<path d="M138.59 111H94.2449V223.551H138.59V111Z" fill="#9BCEFD"/>
<path d="M69.9551 153.985H25.6101V229.6H69.9551V153.985Z" fill="#9BCEFD"/>
<path d="M60.2062 224.398H10.9998V326.558H60.2062V224.398Z" fill="#9BCEFD"/>
<path d="M138.429 157.122H60.2058V326.558H138.429V157.122Z" fill="#9BCEFD"/>
<path d="M78.2154 241.523H69.9539V244.033H78.2154V241.523Z" fill="#CBE9FF"/>
<path d="M107.964 181.155H99.7029V183.665H107.964V181.155Z" fill="#CBE9FF"/>
<path d="M81.1968 200.942H72.9353V203.452H81.1968V200.942Z" fill="#CBE9FF"/>
<path d="M112.552 189.526H104.291V192.036H112.552V189.526Z" fill="#CBE9FF"/>
<path d="M108.729 220.729H100.468V223.239H108.729V220.729Z" fill="#CBE9FF"/>
<path d="M82.6646 247.171H74.4031V249.681H82.6646V247.171Z" fill="#CBE9FF"/>
<path d="M125.879 247.171H117.618V249.681H125.879V247.171Z" fill="#CBE9FF"/>
<path d="M104.908 264.114H96.6462V266.624H104.908V264.114Z" fill="#CBE9FF"/>
<path d="M127.149 293.607H118.887V296.117H127.149V293.607Z" fill="#CBE9FF"/>
<path d="M120.795 299.255H112.534V301.765H120.795V299.255Z" fill="#CBE9FF"/>
<path d="M104.908 121.04H100.46V131.708H104.908V121.04Z" fill="#CBE9FF"/>
<path d="M115.075 121.04H110.627V131.708H115.075V121.04Z" fill="#CBE9FF"/>
<path d="M115.075 136.101H110.627V146.768H115.075V136.101Z" fill="#CBE9FF"/>
<path d="M125.243 121.04H120.795V131.708H125.243V121.04Z" fill="#CBE9FF"/>
<path d="M134.139 121.04H129.69V131.708H134.139V121.04Z" fill="#CBE9FF"/>
<path d="M134.139 136.101H129.69V146.768H134.139V136.101Z" fill="#CBE9FF"/>
<path d="M39.1337 166.535H34.6853V177.203H39.1337V166.535Z" fill="#CBE9FF"/>
<path d="M49.9364 187.87H45.488V198.538H49.9364V187.87Z" fill="#CBE9FF"/>
<path d="M23.5344 223.607H19.2576V325.767H23.5344V223.607Z" fill="#CBE9FF"/>
<path d="M206.271 137.833H152V293.061H206.271V137.833Z" fill="#9BCEFD"/>
<path d="M162.926 245.934L162.926 142.45H161.057L161.057 245.934H162.926Z" fill="#CBE9FF"/>
<path d="M157.311 245.936L157.311 142.453H155.443L155.443 245.936H157.311Z" fill="#CBE9FF"/>
<path d="M168.539 245.937L168.539 142.453H166.67L166.67 245.937H168.539Z" fill="#CBE9FF"/>
<path d="M174.153 245.934L174.153 142.451H172.285L172.285 245.934H174.153Z" fill="#CBE9FF"/>
<path d="M179.767 245.938L179.767 142.454H177.899L177.899 245.938H179.767Z" fill="#CBE9FF"/>
<path d="M185.382 245.935L185.382 142.451H183.513L183.513 245.935H185.382Z" fill="#CBE9FF"/>
<path d="M190.995 245.938L190.995 142.455H189.127L189.127 245.938H190.995Z" fill="#CBE9FF"/>
<path d="M196.609 245.935L196.609 142.452H194.741L194.741 245.935H196.609Z" fill="#CBE9FF"/>
<path d="M202.225 245.938L202.225 142.455H200.357L200.357 245.938H202.225Z" fill="#CBE9FF"/>
<path d="M166.97 75V137.833H168.839L166.97 75Z" fill="#9BCEFD"/>
<path d="M167.607 107.737C170.706 107.737 173.219 107.029 173.219 106.156C173.219 105.283 170.706 104.575 167.607 104.575C164.508 104.575 161.996 105.283 161.996 106.156C161.996 107.029 164.508 107.737 167.607 107.737Z" fill="#9BCEFD"/>
<path d="M328.042 110.815C326.313 113.371 323.256 115.066 319.774 115.066C314.379 115.066 310 110.987 310 105.947C310 101.506 313.4 97.8064 317.906 97C316.946 98.4052 316.399 100.077 316.399 101.862C316.399 106.896 320.772 110.981 326.173 110.981C326.815 110.981 327.444 110.922 328.042 110.815Z" fill="#F6F7F9"/>
<path d="M248.439 238.085L356.23 243.422L355.813 242.186L368.324 226.538C369.029 224.647 368.8 222.864 367.102 221.744L256.038 148.372C254.611 147.428 252.693 148.384 252.61 150.076L252.53 151.683L250.82 185.896L248.439 238.085Z" fill="#F6F7F9"/>
<path d="M367.091 228.275L355.397 243.01L263.675 244.031L248.215 243.01L249.312 219.001L252.386 151.588L366.324 226.183C367.016 226.641 367.329 227.489 367.091 228.275Z" fill="#FC8946"/>
<path d="M270.111 176.914L268.025 198.328L263.676 244.031L248.215 243.01L249.312 219.001C250.689 216.394 252.353 213.578 253.846 211.918C257.182 208.212 258.016 204.505 258.016 199.152C258.016 193.798 259.684 191.739 262.187 188.033C264.689 184.327 270.111 176.914 270.111 176.914Z" fill="#F87728"/>
<path d="M358.525 226.743V326.402H270.944L270.452 238.27L270.11 176.914L358.525 226.743Z" fill="#F6F7F9"/>
<path d="M358.525 226.743C356.44 227.979 351.435 224.684 343.094 221.39C334.753 218.095 328.497 218.919 319.322 218.095C310.147 217.272 310.564 212.742 300.972 209.859C291.38 206.976 286.375 211.506 280.12 219.331C273.864 227.155 271.779 236.215 270.452 238.27L270.11 176.914L358.525 226.743Z" fill="#FFEAC9"/>
<path d="M270.944 326.402L258.016 318.577L258.433 235.803L270.11 176.914L270.944 326.402Z" fill="#FFB78F"/>
<path d="M187.335 257.629H136V326.418H187.335V257.629Z" fill="#9BCEFD"/>
<path d="M141.033 263.601C141.033 263.601 141.45 260.306 152.877 255.097C161.481 251.176 185.72 261.587 194.832 251.658C197.493 248.759 195.591 236.306 193.736 229.952C193.31 228.502 192.334 227.258 190.991 226.542C188.773 225.356 184.615 224.071 177.441 224.779C165.159 225.994 132.275 260.306 141.033 263.601Z" fill="#6DBBFA"/>
<path d="M171.694 234.96C173.324 233 175.139 231.192 177.161 229.627C179.672 227.687 182.429 226.151 185.556 225.999C188.709 225.843 191.75 226.448 192.792 229.026C195.249 235.088 196.475 265.409 187.879 265.409C180.443 265.409 160.634 274.72 141.032 263.672C140.423 263.33 139.37 262.331 141.032 260.583L158.206 248.595C162.035 245.708 165.509 242.393 168.566 238.72L171.694 234.96Z" fill="#0175D8"/>
<path d="M168.229 267.834C168.229 267.834 170.685 266.623 174.368 260.557C178.05 254.495 172.099 253.511 177.104 227.155" stroke="#6DBBFA" stroke-miterlimit="10"/>
<path d="M171.916 270.26C171.916 270.26 172.683 265.709 169.968 260.805C169.251 259.507 168.288 258.19 167.003 256.921C160.864 250.859 154.17 246.515 154.17 246.515" stroke="#6DBBFA" stroke-miterlimit="10"/>
<path d="M170.685 253.28C170.685 253.28 168.228 257.95 170.685 262.287" stroke="#6DBBFA" stroke-miterlimit="10" stroke-linecap="round" stroke-linejoin="round"/>
<path d="M180.511 250.855C180.511 250.855 177.091 254.117 175.439 258.041" stroke="#6DBBFA" stroke-miterlimit="10" stroke-linecap="round" stroke-linejoin="round"/>
<path d="M265.939 232.921V253.099L154.17 280.691L157.865 267.307L158.132 266.483L265.931 232.925L265.939 232.921Z" fill="#FC8946"/>
<path d="M265.939 241.569L265.876 246.832L265.601 270.243L265.455 282.548L265.105 312.4L194.186 312.108L165.221 313.43L165.055 276.643L165.013 272.866L169.6 271.446L182.529 267.435L183.78 267.047L200.045 262.003L201.713 261.484L220.064 255.797L221.732 255.278L242.584 248.812L244.252 248.293L265.939 241.569Z" fill="#F6F7F9"/>
<path d="M182.528 267.513V277.396H169.6V271.631L182.528 267.513Z" fill="#F25751"/>
<path d="M195.874 280.691V311.989H169.6V279.867L195.874 280.691Z" fill="#0175D8"/>
<path d="M236.121 282.124V311.989H197.961V280.897L199.004 280.93L236.121 282.124Z" fill="#0175D8"/>
<path d="M265.105 282.75V312.4L237.162 311.988V281.926L259.133 282.573L265.105 282.75Z" fill="#0175D8"/>
<path d="M200.046 262.159V277.808L183.781 277.396V267.101L200.046 262.159Z" fill="#F25751"/>
<path d="M220.064 255.982V278.22L203.507 277.849L201.714 277.808V261.747L220.064 255.982Z" fill="#0175D8"/>
<path d="M242.584 248.981V278.632L221.732 278.22V255.57L242.584 248.981Z" fill="#0175D8"/>
<path d="M244.254 248.293V278.632L261.186 278.961L265.498 279.043H265.523L265.94 241.569L244.254 248.293Z" fill="#0175D8"/>
<path d="M303.057 326.402H276.366V285.632C276.366 278.356 282.342 272.454 289.712 272.454C297.081 272.454 303.057 278.356 303.057 285.632V326.402Z" fill="#0175D8"/>
<path d="M194.323 311.989C194.79 311.59 195.311 311.165 195.874 310.728V311.989H194.323Z" fill="#0986E2"/>
<path d="M206.302 304.988C212.266 303.023 225.19 304.308 236.121 302.076V311.988H197.961V309.205C200.296 307.611 203.132 306.03 206.302 304.988Z" fill="#0986E2"/>
<path d="M265.455 282.548L265.105 312.4L237.162 311.988V301.85C241.879 300.775 246.158 298.988 249.257 295.928C252.843 292.386 256.23 287.486 259.133 282.573L265.455 282.548Z" fill="#0986E2"/>
<path d="M265.602 270.243L265.497 279.043L261.185 278.961C262.924 275.786 264.425 272.751 265.602 270.243Z" fill="#0986E2"/>
<path d="M349.765 256.188V326.402H309.312V256.188C309.312 253.186 309.983 250.336 311.184 247.783C311.38 247.367 311.589 246.96 311.814 246.56C313.374 243.764 315.592 241.375 318.261 239.6C320.034 238.427 322.007 237.517 324.121 236.94L324.288 236.899C324.646 236.804 325.013 236.714 325.38 236.639C326.723 236.359 328.112 236.215 329.538 236.215C331.119 236.215 332.658 236.397 334.134 236.73C334.551 236.829 334.968 236.94 335.377 237.06C338.618 238.023 341.512 239.765 343.843 242.063C345.391 243.591 346.688 245.37 347.668 247.326C347.876 247.734 348.068 248.15 348.243 248.574C349.194 250.843 349.724 253.322 349.761 255.921C349.765 256.007 349.765 256.098 349.765 256.188Z" fill="#FFB78F"/>
<path d="M309.312 256.188V321.872C309.312 321.872 312.231 312.401 316.819 301.693C321.406 290.986 322.657 271.219 327.662 253.923C332.491 237.233 334.794 236.94 334.948 236.94C333.225 236.467 331.411 236.215 329.539 236.215C323.95 236.215 318.896 238.451 315.234 242.063C311.635 245.621 309.387 250.509 309.316 255.921C309.312 256.007 309.312 256.098 309.312 256.188Z" fill="#FFEAC9"/>
<path d="M346.845 294.28C348.93 303.752 349.347 303.34 348.93 309.106C348.513 314.871 343.926 326.402 343.926 326.402H349.764V256.188C349.764 249.278 346.211 243.191 340.814 239.6C341.14 244.291 341.807 252.865 342.674 258.865C343.926 267.513 344.76 284.809 346.845 294.28Z" fill="#FFEAC9"/>
<path d="M349.765 275.749H309.312V276.985H349.765V275.749Z" fill="#F6F7F9"/>
<path opacity="0.35" d="M349.761 255.921C348.235 255.476 345.945 254.903 342.676 254.335C335.586 253.1 325.577 253.923 320.155 262.983C314.733 272.043 309.312 274.926 309.312 274.926V256.188C309.312 245.156 318.366 236.215 329.538 236.215C335.127 236.215 340.182 238.451 343.843 242.063C347.442 245.621 349.69 250.509 349.761 255.921Z" fill="#FC8946"/>
<path d="M348.243 248.574L335.131 248.294L333.88 248.269L325.13 248.08L323.879 248.055L311.184 247.783C311.38 247.367 311.589 246.96 311.814 246.56L323.904 246.82L325.155 246.844L333.909 247.034L335.16 247.058L347.668 247.326C347.876 247.734 348.068 248.15 348.243 248.574Z" fill="#F6F7F9"/>
<path d="M337.811 308.154C337.811 308.154 336.977 306.919 338.228 305.683C339.479 304.448 338.645 303.624 339.479 302.801C340.313 301.977 341.982 301.565 341.565 302.801C341.148 304.036 339.896 304.036 339.896 305.683C339.896 307.331 339.896 307.742 337.811 308.154Z" fill="#FFEAC9"/>
<path d="M337.392 309.39C337.392 309.39 336.975 309.39 336.558 308.566C336.141 307.743 334.89 305.684 334.056 306.919C333.222 308.154 335.307 308.978 335.724 309.39C336.141 309.802 336.558 310.213 337.392 309.39Z" fill="#FFEAC9"/>
<path d="M337.393 311.861C337.547 311.478 337.393 309.39 338.644 309.802C339.895 310.213 339.895 311.861 339.061 312.272C338.227 312.684 336.559 313.92 337.393 311.861Z" fill="#FFEAC9"/>
<path d="M336.142 317.626C336.142 317.626 335.725 317.215 336.976 316.803C338.227 316.391 337.393 315.567 338.227 315.567C339.061 315.567 339.895 315.156 339.478 316.391C339.061 317.626 337.81 318.45 336.142 317.626Z" fill="#FFEAC9"/>
<path d="M334.473 318.45C334.473 317.626 335.307 317.626 334.056 316.802C332.805 315.979 331.554 316.391 331.554 315.155C331.554 313.92 330.303 313.096 329.469 313.096C328.635 313.096 326.966 312.684 327.8 314.743C328.635 316.802 329.469 317.626 330.303 317.626C331.137 317.626 332.388 318.45 332.805 318.45C333.222 318.45 334.473 318.45 334.473 318.45Z" fill="#FFEAC9"/>
<path d="M334.683 325.863C336.18 325.863 337.394 325.586 337.394 325.245C337.394 324.904 336.18 324.627 334.683 324.627C333.186 324.627 331.972 324.904 331.972 325.245C331.972 325.586 333.186 325.863 334.683 325.863Z" fill="#F76D69"/>
<path d="M338.611 320.636L338.561 320.842L337.393 325.451H337.239L332.063 325.401L331.997 325.162L330.812 320.846L330.754 320.632C330.791 320.591 330.854 320.546 330.946 320.509H338.419C338.511 320.55 338.578 320.591 338.611 320.636Z" fill="#FFEAC9"/>
<path d="M338.611 320.636L338.561 320.843C338.186 321.123 336.593 321.333 334.682 321.333C332.785 321.333 331.2 321.127 330.812 320.847L330.754 320.632C330.791 320.591 330.854 320.546 330.946 320.509C331.471 320.278 332.86 320.109 334.511 320.097H334.682C336.409 320.097 337.877 320.27 338.419 320.509C338.511 320.55 338.578 320.591 338.611 320.636Z" fill="#F87728"/>
<path fill-rule="evenodd" clip-rule="evenodd" d="M331.059 311.64L331.138 311.449C331.217 311.258 331.217 311.258 331.217 311.258L331.219 311.259L331.226 311.262L331.251 311.272C331.273 311.281 331.304 311.295 331.345 311.312C331.426 311.346 331.541 311.396 331.679 311.46C331.957 311.586 332.33 311.767 332.711 311.982C333.09 312.197 333.485 312.449 333.801 312.72C334.11 312.984 334.378 313.295 334.449 313.631L334.041 313.715C333.999 313.518 333.823 313.283 333.528 313.031C333.241 312.785 332.872 312.548 332.504 312.34C332.136 312.132 331.774 311.957 331.504 311.833C331.369 311.772 331.258 311.723 331.18 311.69C331.141 311.673 331.111 311.661 331.09 311.652L331.067 311.643L331.061 311.64L331.059 311.64Z" fill="#F6F7F9"/>
<path fill-rule="evenodd" clip-rule="evenodd" d="M333.021 309.44L333.223 309.39C333.425 309.34 333.425 309.34 333.425 309.34L333.462 309.486C333.486 309.58 333.52 309.717 333.562 309.888C333.647 310.229 333.764 310.706 333.895 311.247C334.156 312.328 334.469 313.669 334.679 314.703C334.892 315.759 334.891 317.222 334.839 318.407C334.813 319.003 334.773 319.533 334.741 319.915C334.724 320.106 334.709 320.259 334.699 320.366C334.693 320.419 334.689 320.46 334.686 320.488L334.683 320.52L334.682 320.528L334.681 320.531C334.681 320.531 334.681 320.531 334.474 320.509L334.267 320.486L334.267 320.483L334.268 320.476L334.271 320.445C334.274 320.418 334.278 320.377 334.284 320.325C334.294 320.221 334.309 320.069 334.325 319.88C334.357 319.502 334.396 318.978 334.422 318.389C334.474 317.206 334.473 315.787 334.27 314.784C334.062 313.758 333.75 312.423 333.489 311.342C333.359 310.802 333.242 310.326 333.157 309.986C333.115 309.815 333.081 309.679 333.057 309.585L333.021 309.44Z" fill="#F6F7F9"/>
<path fill-rule="evenodd" clip-rule="evenodd" d="M336.582 304.387L336.791 304.334C337.001 304.282 337.001 304.282 337.001 304.282L337.003 304.293L337.011 304.322C337.017 304.349 337.026 304.387 337.038 304.437C337.062 304.536 337.096 304.68 337.137 304.859C337.218 305.218 337.326 305.718 337.435 306.286C337.651 307.419 337.87 308.836 337.87 309.935C337.87 311.044 337.43 313.01 337 314.673C336.784 315.51 336.568 316.28 336.405 316.84C336.324 317.12 336.257 317.348 336.209 317.506C336.186 317.585 336.167 317.646 336.154 317.688L336.14 317.736L336.135 317.751L335.273 320.763L334.859 320.645L335.722 317.625L335.917 317.685C335.723 317.625 335.722 317.625 335.722 317.625L335.727 317.61L335.742 317.563C335.754 317.521 335.773 317.461 335.796 317.382C335.843 317.225 335.91 316.999 335.991 316.72C336.152 316.163 336.368 315.398 336.583 314.566C337.015 312.89 337.438 310.979 337.438 309.935C337.438 308.879 337.226 307.496 337.011 306.367C336.904 305.805 336.796 305.309 336.716 304.954C336.676 304.777 336.642 304.634 336.619 304.537C336.607 304.488 336.598 304.45 336.592 304.425L336.585 304.396L336.582 304.387Z" fill="#F6F7F9"/>
<path d="M337.394 305.272C337.394 305.272 333.64 304.448 333.64 300.742C333.64 300.33 331.972 300.33 331.972 297.447C331.972 294.565 334.891 292.918 336.56 295.8C338.228 298.683 336.977 299.507 337.394 301.154C337.811 302.801 339.062 302.801 337.394 305.272Z" fill="#FFEAC9"/>
<path d="M333.639 309.802C333.639 309.802 334.056 307.331 333.222 306.507C332.388 305.684 334.056 304.86 333.222 303.213C332.388 301.566 329.886 299.918 329.052 301.566C328.217 303.213 329.052 304.86 330.303 306.507C331.554 308.155 330.72 309.802 331.971 309.802C333.222 309.802 333.639 309.802 333.639 309.802Z" fill="#FFEAC9"/>
<path d="M331.555 311.449C331.555 311.449 331.972 310.625 330.304 309.39C328.635 308.155 329.053 307.331 327.801 306.919C326.55 306.507 323.631 306.507 324.465 307.743C325.299 308.978 324.882 311.037 326.967 311.037C329.053 311.037 329.47 311.861 330.304 311.861C331.138 311.861 331.555 311.449 331.555 311.449Z" fill="#FFEAC9"/>
<path d="M328.835 235.86V326.257H330.341V235.86H328.835Z" fill="#F6F7F9"/>
<path d="M270.736 314.912V317.42H161.903V316.123C161.903 315.456 162.449 314.912 163.129 314.912H270.736Z" fill="#FFEAC9"/>
<path d="M270.736 316.168H161.903V317.421H270.736V316.168Z" fill="#FFB78F"/>
<path d="M270.736 317.42V321.6H154.47V318.783C154.47 318.03 155.088 317.42 155.851 317.42H270.736Z" fill="#FFEAC9"/>
<path d="M270.736 319.195H154.47V321.6H270.736V319.195Z" fill="#FFB78F"/>
<path d="M270.735 321.6V326.196H147.914V322.955C147.914 322.205 148.527 321.6 149.286 321.6H270.735Z" fill="#FFEAC9"/>
<path d="M270.735 323.272H147.914V326.196H270.735V323.272Z" fill="#FFB78F"/>
<path d="M182.528 267.435V277.396H169.6V271.446L182.528 267.435Z" fill="#0265CD"/>
<path d="M169.6 279.867L195.874 280.691V283.079C194.606 283.952 193.355 284.805 192.12 285.633C183.517 291.398 174.008 292.242 169.6 292.287V279.867Z" fill="#0265CD"/>
<path d="M197.961 280.897L199.004 280.93C198.653 281.169 198.307 281.408 197.961 281.647V280.897Z" fill="#0265CD"/>
<path d="M194.83 280.31H193.324V312.273H194.83V280.31Z" fill="#F6F7F9"/>
<path d="M200.046 262.003V277.808L183.781 277.396V267.047L200.046 262.003Z" fill="#0265CD"/>
<path d="M220.064 255.797V267.987C214.563 270.597 208.962 274.164 203.507 277.849L201.714 277.808V261.484L220.064 255.797Z" fill="#0265CD"/>
<path d="M242.584 248.812V260.034C237.667 262.093 232.913 263.753 229.239 264.63C226.778 265.215 224.268 266.108 221.732 267.224V255.278L242.584 248.812Z" fill="#0265CD"/>
<path d="M265.94 241.569L265.877 246.832C261.853 250.674 252.961 255.55 244.254 259.322V248.293L265.94 241.569Z" fill="#0265CD"/>
<path d="M270.736 311.988V314.912H165.222V313.022C165.222 312.454 165.689 311.988 166.269 311.988H270.736Z" fill="#FFEAC9"/>
<path d="M270.736 313.726V314.913H165.222V313.43L217.041 313.578H217.045L270.736 313.726Z" fill="#FFB78F"/>
<path d="M276.366 297.163H282.622V304.988H288.46V312.812H293.465V321.048H298.887V326.402H276.366V297.163Z" fill="#5DBFFB"/>
<path opacity="0.25" d="M220.118 311.988L217.044 313.03H217.04V314.912L212.973 316.168V317.42L208.774 319.508V321.6L202.902 323.272L202.756 323.313V326.196H147.914V322.943C147.914 322.201 148.522 321.6 149.273 321.6H154.47V318.746C154.47 318.013 155.07 317.42 155.813 317.42H161.901V316.135C161.901 315.46 162.456 314.912 163.14 314.912H165.221V312.903C165.221 312.396 165.634 311.988 166.147 311.988H220.118Z" fill="#F87728"/>
<path d="M231.336 251.452H230.686V260.137H231.336V251.452Z" fill="#FC8946"/>
<path d="M232.642 263.357H229.385V261.747C229.385 260.858 230.114 260.137 231.015 260.137C231.916 260.137 232.646 260.858 232.646 261.747V263.357H232.642Z" fill="#5DBFFB"/>
<path d="M232.438 273.006H229.586C228.935 273.006 228.405 272.483 228.405 271.841V264.519C228.405 263.876 228.935 263.353 229.586 263.353H232.438C233.089 263.353 233.618 263.876 233.618 264.519V271.841C233.618 272.487 233.089 273.006 232.438 273.006Z" fill="#55B7F3"/>
<path d="M232.209 272.364H229.815C229.398 272.364 229.056 272.03 229.056 271.614V264.749C229.056 264.338 229.393 264 229.815 264H232.209C232.626 264 232.968 264.333 232.968 264.749V271.614C232.968 272.03 232.626 272.364 232.209 272.364Z" fill="#FFEAC9"/>
<path d="M291.798 274.925H287.627C283.019 274.925 279.286 278.611 279.286 283.162H300.139C300.139 278.611 296.402 274.925 291.798 274.925Z" fill="#5DBFFB"/>
<path d="M286.793 274.925H285.959V283.162H286.793V274.925Z" fill="#0175D8"/>
<path d="M293.466 274.925H292.632V283.162H293.466V274.925Z" fill="#0175D8"/>
<path d="M265.939 232.949L265.931 232.925L265.376 231.372C264.922 230.087 263.512 229.4 262.203 229.811L157.719 262.793C157.039 263.008 156.518 263.547 156.334 264.231L153.507 274.695C153.39 275.119 153.369 275.564 153.436 276L154.166 280.695L157.915 267.64C158.048 267.179 158.407 266.813 158.874 266.669L265.935 233.608V232.949H265.939Z" fill="#FFEAC9"/>
<path d="M296.176 254.541C296.176 254.821 296.159 255.092 296.126 255.364C295.73 258.482 293.136 260.92 289.92 261.117C289.783 261.126 289.645 261.13 289.503 261.13C289.362 261.13 289.224 261.126 289.086 261.117C285.871 260.92 283.277 258.482 282.885 255.364C282.847 255.092 282.831 254.821 282.831 254.541C282.831 251.04 285.591 248.178 289.086 247.964C289.224 247.956 289.362 247.952 289.503 247.952C289.645 247.952 289.783 247.956 289.92 247.964C293.415 248.178 296.176 251.04 296.176 254.541Z" fill="#FFB78F"/>
<path d="M289.919 247.964V261.117C289.781 261.126 289.644 261.13 289.502 261.13C289.36 261.13 289.222 261.126 289.085 261.117V247.964C289.222 247.956 289.36 247.952 289.502 247.952C289.644 247.952 289.781 247.956 289.919 247.964Z" fill="#F6F7F9"/>
<path d="M296.176 254.541C296.176 254.821 296.159 255.093 296.126 255.365H282.885C282.847 255.093 282.831 254.821 282.831 254.541H296.176Z" fill="#F6F7F9"/>
<path d="M237.371 281.72H235.703V312.194H237.371V281.72Z" fill="#F6F7F9"/>
<path d="M229.918 301.195L230.406 312.009H230.898L231.386 300.874L229.918 301.195Z" fill="#0E1343"/>
<path d="M232.367 297.036C232.367 297.204 232.321 297.361 232.258 297.501H218.5L216.352 291.711C216.352 291.711 221.257 290.583 221.745 290.583C222.232 290.583 222.232 288.968 222.232 288.968C223.217 289.936 229.101 292.036 230.736 293.325C232.367 294.618 232.367 296.393 232.367 297.036Z" fill="#0E1343"/>
<path d="M211.614 296.031C211.614 296.031 211.776 296.677 212.431 296.838C213.086 296.998 213.903 295.87 213.574 294.577C213.249 293.284 211.451 294.898 211.451 294.898L211.614 296.031Z" fill="#FFEAC9"/>
<path d="M216.105 305.152C215.942 305.638 210.55 309.188 210.55 309.188L210.058 311.284L210.696 311.663C210.746 311.692 210.725 311.77 210.666 311.77H209.403L208.927 309.777L209.077 309.674L208.894 309.637L208.752 309.032C208.752 309.032 210.387 308.385 210.875 307.578C211.367 306.771 213.49 305.317 213.49 305.317L208.752 305.803H204.832C204.832 305.803 204.507 302.092 206.137 299.671C207.772 297.25 210.875 295.635 210.875 295.635L211.038 295.956V299.992L210.058 302.735L214.307 302.896L216.105 304.189C216.105 304.18 216.267 304.666 216.105 305.152Z" fill="#FFEAC9"/>
<path d="M209.163 297.484C209.163 297.484 206.223 300.227 206.548 301.841C206.873 303.456 209.818 302.002 211.615 302.327C213.413 302.653 214.067 302.488 214.067 302.488C214.067 302.488 213.905 301.681 212.595 301.52C211.29 301.36 211.123 301.36 209.163 301.199L207.691 301.038" stroke="#0265CD" stroke-width="0.25" stroke-miterlimit="10" stroke-linecap="round" stroke-linejoin="round"/>
<path d="M216.844 304.263L220.602 309.748C220.602 309.748 221.419 311.202 223.542 311.523C223.542 311.523 224.359 311.684 223.867 311.844C223.375 312.005 220.76 312.166 220.435 311.684V311.844H219.617C219.617 311.844 219.455 311.523 219.617 311.037C219.78 310.551 219.617 309.909 219.125 309.262C218.633 308.616 216.673 307.487 216.185 306.52C215.693 305.552 216.51 303.452 216.51 303.452L216.844 304.263Z" fill="#FFEAC9"/>
<path d="M209.409 297.242C209.409 297.242 206.302 300.203 206.627 301.817C206.952 303.431 209.897 301.978 211.694 302.303C213.492 302.628 214.146 302.463 214.146 302.463C214.146 302.463 213.984 301.656 212.674 301.496C211.365 301.335 211.202 301.335 209.242 301.174L207.77 301.014L209.409 297.242Z" fill="#FFEAC9"/>
<path d="M216.515 303.777L216.027 312.009H215.698L215.21 303.295L216.515 303.777Z" fill="#0E1343"/>
<path d="M214.47 297.888H218.274H232.287V301.599L225.26 301.759C225.26 301.759 224.196 302.002 223.379 302.649C222.561 303.295 221.419 304.424 219.946 304.424C218.474 304.424 210.467 304.424 210.467 304.424C210.467 304.424 210.629 302.328 212.102 302.002C213.574 301.677 214.554 300.549 214.554 299.42C214.554 298.292 214.47 297.888 214.47 297.888Z" fill="#0E1343"/>
<path d="M209.416 306.524H204.987C204.766 306.524 204.587 306.347 204.587 306.129V305.906C204.587 305.803 204.675 305.717 204.779 305.717H209.625C209.729 305.717 209.817 305.803 209.817 305.906V306.129C209.817 306.347 209.637 306.524 209.416 306.524Z" fill="#0E1343"/>
<path d="M205.329 311.848H205.158C205.116 311.848 205.087 311.811 205.095 311.77L206.505 306.046L207.289 306.272L205.425 311.778C205.412 311.819 205.37 311.848 205.329 311.848Z" fill="#0E1343"/>
<path d="M209.177 311.848H209.348C209.39 311.848 209.419 311.811 209.411 311.77L208.001 306.046L207.217 306.272L209.081 311.778C209.094 311.819 209.131 311.848 209.177 311.848Z" fill="#0E1343"/>
<path d="M212.102 295.389C212.102 295.389 211.447 296.035 211.776 297.971C212.102 299.906 211.776 301.52 210.796 301.36C209.816 301.199 209.653 299.585 210.141 299.099C210.141 299.099 208.999 298.938 209.979 297.81C210.959 296.682 210.471 297.003 210.471 296.035C210.471 296.035 208.836 297.003 207.856 298.457C206.876 299.91 206.713 299.75 206.713 299.75C206.713 299.75 205.896 297.489 208.348 296.2C210.8 294.907 210.963 294.907 211.126 294.104C211.288 293.296 213.578 292.65 213.903 293.618C214.229 294.585 214.395 294.585 214.395 294.585C214.395 294.585 214.233 295.232 213.903 295.071C213.574 294.911 213.578 294.911 213.578 294.911C213.578 294.911 212.598 295.397 212.435 295.232C212.273 295.067 212.598 294.746 212.11 294.746C211.614 294.742 212.102 295.389 212.102 295.389Z" fill="#0E1343"/>
<path d="M209.24 305.474C209.24 305.474 210.095 306.911 209.812 307.331C209.486 307.817 214.141 304.428 214.141 304.428L209.24 305.474Z" fill="#FFEAC9"/>
<path opacity="0.34" d="M242.584 248.759V259.981C237.667 262.04 232.913 263.699 229.239 264.576C226.778 265.161 224.268 266.055 221.732 267.171V255.224L242.584 248.759Z" fill="#0265CD"/>
<path opacity="0.35" d="M235.702 302.138V311.964H197.997V309.18C200.332 307.586 203.168 306.005 206.338 304.963C212.218 303.027 224.872 304.251 235.702 302.138Z" fill="#0986E2"/>
<path d="M450.648 414.24H466.574H537.552V323.564V322.165C528.675 321.092 518.297 320.734 508.002 320.771C495.228 320.815 482.576 321.468 473.05 322.121C463.314 322.786 456.844 323.445 456.844 323.445L450.807 323.489L450.172 323.495L437.328 323.583L420.303 323.708L406.958 323.802L377.09 324.022L375.183 324.035L373.156 324.047L363.998 324.116L353.252 324.191L345.315 324.248L335.782 324.317L329.427 324.361L295.11 324.612L286.836 324.668L286.531 324.675L283.532 324.693L182.945 325.421L159.445 325.591L105.408 325.98C105.408 325.98 103.883 325.905 101.112 325.767C100.578 325.741 100 325.716 99.3774 325.685C95.1513 325.478 88.8917 325.183 81.2213 324.832C65.9439 324.135 45.0741 323.231 23.5371 322.459C22.1136 322.403 20.6837 322.353 19.2602 322.303C17.5507 322.24 15.8476 322.183 14.1381 322.127C13.1912 322.089 12.2443 322.058 11.3038 322.027C8.45041 321.932 5.60974 321.838 2.78177 321.75C1.07864 321.7 -0.611755 321.65 -2.30215 321.6C-9.64215 321.38 -16.8296 321.192 -23.6612 321.054C-23.801 321.048 -23.9345 321.041 -24.0743 321.041C-24.6082 321.029 -25.142 321.016 -25.6694 321.01C-40.3939 320.715 -53.3199 320.633 -62.3567 320.91C-68.8451 321.104 -152.973 325.597 -206.152 330.667C-285.921 343.725 -484.764 398.658 -499.407 398.018L-419.254 432.645C-416.556 452.812 -163.518 418.82 -163.378 420.088C-163.238 421.356 -116.83 421.458 -114.053 423.893L-92.4727 420.088C-95.5613 419.178 -84.6004 420.631 -84.7657 421.61C-85.0834 423.474 -82.6666 420.948 -79.756 423.132L-76.2878 421.61H-71.2782C-69.7912 422.57 -64.7272 420.088 -64.7272 420.088L-58.8614 415.809C-58.8614 415.809 -51.7375 421.036 -53.7774 420.088H-52.7812C-51.2242 421.079 -53.7774 415.809 -53.7774 415.809H-37.2545C-37.8773 415.275 -36.6381 420.603 -37.2545 420.088L-36.619 420.468C-36.2504 420.989 -37.0003 415.281 -36.619 415.809H-23.9091C-23.9091 415.809 -22.0817 419.95 -22.7235 418.946L-20.7968 418.566C-20.3011 419.595 -20.0961 415.809 -20.0961 415.809C-20.0961 415.809 -16.1942 415.89 -9.9472 416.009H-9.94086C13.4136 416.436 69.4772 417.296 76.4995 415.809C77.7768 415.539 77.9021 417.404 79.3955 416.663H85.5612C83.2797 417.467 82.8545 415.809 82.8545 415.809H93.6579L94.4244 417.424L322.94 418.566H331.803L350.685 417.044L365.187 414.24H367.595H382.765H385.122H412.932H414.222H430.548H434.513H448.78H450.648Z" fill="#0986E2"/>
<path d="M187.559 379.149C187.559 379.149 190.914 370.163 195.649 367.942C195.649 367.942 193.043 377.424 193.418 379.269C193.793 381.113 187.559 379.149 187.559 379.149Z" fill="#0175D8"/>
<path d="M207.334 378.244C207.334 378.244 214.172 364.081 220.775 361.489C220.775 361.489 220.165 374.41 215.309 379.217C210.454 384.023 207.334 378.244 207.334 378.244Z" fill="#0175D8"/>
<path d="M450.872 413.769H466.798H537.777V323.093V321.694V310.179L518.858 310.01C515.312 309.978 511.766 310.022 508.226 310.142C496.476 310.549 484.795 311.798 473.273 313.875C465.781 315.218 458.365 316.912 451.031 318.946C450.821 319.002 450.605 319.065 450.395 319.121C446.08 320.332 441.797 321.663 437.552 323.112C436.37 323.514 435.188 323.928 434.019 324.349C429.805 325.855 425.624 327.48 421.493 329.218C409.311 334.345 395.202 340.093 379.893 345.973C378.603 346.468 377.307 346.964 376.004 347.454C366.656 351.012 356.895 354.607 346.879 358.121C345.742 358.523 344.598 358.925 343.454 359.32C336.68 361.679 329.803 363.995 322.87 366.235C322.54 366.342 322.209 366.449 321.879 366.555C318.759 367.565 315.632 368.557 312.493 369.53C287.314 377.348 265.243 379.727 243.827 379.72C240.624 379.72 237.434 379.664 234.257 379.57C233.411 379.545 232.566 379.52 231.727 379.482C228.143 379.35 224.559 379.168 220.975 378.942C219.075 378.829 217.168 378.704 215.262 378.566C212.872 378.403 210.483 378.221 208.081 378.026C203.346 377.656 198.574 377.248 193.737 376.84C192.085 376.702 190.42 376.564 188.749 376.432C160.571 374.11 130.01 372.203 91.9753 377.06C90.3675 377.267 88.7851 377.48 87.2217 377.7C86.5799 377.788 85.938 377.882 85.3026 377.982H85.2962C75.4714 379.419 66.53 381.176 58.3829 383.159C50.8205 384.992 43.9507 387.018 37.7102 389.171C35.505 389.93 33.3824 390.702 31.3361 391.493C12.5699 398.69 0.190424 406.911 -7.74058 413.769C-32.2762 418.03 -9.30019 490.02 -7.74083 487.03C15.6137 487.456 26.4775 480.987 33.4998 479.5C34.7771 479.23 36.2167 493.24 37.7102 492.5L66.4998 487.03C64.2183 487.833 91.9753 482 91.9753 482L116.5 479.5L201 487.03H365.41H470.5L414.445 437.5L413.155 429.5H392.5L382.988 413.769H385.346H413.155H414.445H430.771H434.737H449.004H450.872Z" fill="#0175D8"/>
<path d="M220.712 379.608C220.712 379.608 225.294 354.375 225.542 352.405C225.79 350.434 231.916 367.779 229.552 372.09C227.188 376.401 235.519 360.023 235.519 360.023C235.519 360.023 238.773 372.818 230.683 380.825C222.587 388.832 220.712 379.608 220.712 379.608Z" fill="#0175D8"/>
<path d="M232.799 381.684C232.799 381.684 238.519 371.588 256.097 371.939C256.097 371.939 243.266 378.967 242.522 381.678C241.779 384.389 233.428 384.759 232.799 381.684Z" fill="#0175D8"/>
</g>
</svg>
