<svg width="170" height="170" viewBox="0 0 170 170" fill="none" xmlns="http://www.w3.org/2000/svg">
<path d="M62.4004 19L24.5066 40.8836V77.6005L62.4004 99.4785L100.294 77.6005V40.8836L62.4004 19Z" fill="#FFEAC9"/>
<path d="M100.294 77.6007L62.4004 99.4787V62.7618L100.294 40.8838V77.6007Z" fill="#FFB78F"/>
<path d="M24.5066 77.6007L62.4004 99.4787V62.7618L24.5066 40.8838V77.6007Z" fill="#FC8946"/>
<path d="M29.6887 46.8643L26.3361 50.9743L27.6247 51.7181V54.511L31.7419 56.888V54.0954L33.0411 54.8454L29.6887 46.8643Z" fill="#0E1343"/>
<path d="M62.2996 20.2837L48.3628 28.2475L56.9095 33.2006L70.7004 25.1721L62.2996 20.2837Z" fill="white"/>
<path d="M62.4401 22.2166L64.2561 23.2759L54.0661 29.0772L52.2501 28.0178L62.4401 22.2166Z" fill="#FFB78F"/>
<path d="M65.0367 23.8342L66.8528 24.8936L56.6627 30.6949L54.8467 29.6355L65.0367 23.8342Z" fill="#FFB78F"/>
<g opacity="0.2">
<path opacity="0.2" d="M73.5017 25.4106L35.7969 47.4018L48.4189 54.6891L86.1224 32.699L73.5017 25.4106Z" fill="white"/>
</g>
<g opacity="0.2">
<path opacity="0.4" d="M81.3058 29.9052L48.4628 49.008L45.5916 47.3526L78.4348 28.25L81.3058 29.9052Z" fill="#0265CD"/>
</g>
<path d="M142.647 104.204L142.424 104.039L142.425 104.039C142.41 104.028 142.397 104.014 142.382 104.003L129.499 94.4798L121.972 68.3822L116.67 65.3212L116.325 65.1222L100.294 55.8667L62.4001 77.6954V99.4788L24.5262 77.6104V95.9919C24.5262 98.1699 25.6876 100.183 27.5733 101.273L62.4004 121.38L104.752 145.831L106.986 145.956V146.059L107.652 145.994L108.825 146.059L109.204 145.84L144.114 125.685C144.114 125.685 144.115 125.685 144.115 125.685L144.248 125.608C144.335 125.557 144.405 125.49 144.458 125.413C144.729 125.129 144.888 124.749 144.888 124.345V108.948V108.709V108.653C144.888 106.899 144.057 105.248 142.647 104.204ZM142.205 107.406C142.206 107.406 142.207 107.405 142.208 107.405C142.207 107.405 142.206 107.406 142.205 107.406Z" fill="#5DBFFB"/>
<path d="M46.0887 94.9122L46.1021 94.9323C48.4817 93.7077 51.3584 94.9795 53.4572 98.6146C56.3509 103.626 56.6652 111.208 54.1592 115.549C53.5008 116.689 52.7114 117.484 51.8554 117.957L51.8539 117.977L45.5194 121.626L39.7875 98.5502L46.0887 94.9122Z" fill="#212938"/>
<path d="M96.4208 123.812L96.4342 123.832C98.8138 122.607 101.691 123.879 103.789 127.514C106.683 132.526 106.997 140.108 104.491 144.448C103.833 145.589 103.044 146.383 102.188 146.857L102.186 146.876L95.8516 150.526L90.1196 127.45L96.4208 123.812Z" fill="#212938"/>
<path d="M144.436 124.654L134.528 111.843L109.722 126.174C108.067 127.13 106.003 127.011 104.468 125.873L91.6322 116.353L125.705 96.6717L118.181 70.5659L83.9587 90.2801L62.4006 77.6952V99.4785L24.5262 77.6104V95.9919C24.5262 98.1699 25.6876 100.183 27.5733 101.273L62.4004 121.38L104.752 145.831L108.825 146.059L144.248 125.608C144.587 125.412 144.675 124.963 144.436 124.654Z" fill="#0265CD"/>
<path d="M129.5 94.4799L121.972 68.3823L83.9587 90.2801L91.6323 116.353L129.5 94.4799Z" fill="#0986E2"/>
<path d="M66.9727 83.0405L81.7793 91.5955L87.9769 114.33L66.9727 102.197V83.0405Z" fill="#CBE9FF"/>
<path d="M86.474 91.7884L93.2911 115.519L127.916 95.3836L121.062 71.6643L86.474 91.7884Z" fill="#CBE9FF"/>
<path d="M97.5233 131.135C100.417 136.147 100.731 143.729 98.2253 148.07C95.7194 152.41 91.342 151.866 88.4483 146.854C85.5546 141.842 85.2403 134.26 87.7463 129.92C90.2522 125.579 94.6296 126.123 97.5233 131.135Z" fill="#0E1343"/>
<path d="M95.4828 134.669C97.0753 137.428 97.2483 141.6 95.8693 143.989C94.4902 146.378 92.081 146.078 90.4885 143.32C88.896 140.562 88.723 136.389 90.1023 134C91.481 131.611 93.8903 131.911 95.4828 134.669Z" fill="#F6F7F9"/>
<path d="M94.8618 135.745C96.0584 137.818 96.1883 140.953 95.1521 142.747C94.116 144.542 92.3059 144.317 91.1094 142.244C89.9129 140.172 89.7829 137.037 90.8191 135.242C91.8552 133.447 93.6653 133.672 94.8618 135.745Z" fill="#0265CD"/>
<path d="M94.5959 136.206C95.6228 137.984 95.7341 140.675 94.845 142.215C93.9558 143.755 92.4024 143.562 91.3758 141.784C90.349 140.005 90.2376 137.315 91.1268 135.775C92.0157 134.234 93.569 134.427 94.5959 136.206Z" fill="#F6F7F9"/>
<path d="M47.1907 102.236C50.0844 107.248 50.3987 114.83 47.8927 119.17C45.3868 123.511 41.0094 122.967 38.1157 117.955C35.222 112.942 34.9077 105.361 37.4137 101.02C39.9199 96.6798 44.297 97.2244 47.1907 102.236Z" fill="#0E1343"/>
<path d="M45.1504 105.77C46.7429 108.528 46.9159 112.701 45.5366 115.09C44.1573 117.479 41.7483 117.179 40.1558 114.42C38.5633 111.662 38.3903 107.49 39.7693 105.101C41.1489 102.712 43.5579 103.012 45.1504 105.77Z" fill="#F6F7F9"/>
<path d="M44.5296 106.846C45.7261 108.918 45.856 112.053 44.8199 113.848C43.7837 115.643 41.9736 115.418 40.7771 113.345C39.5806 111.273 39.4506 108.138 40.4868 106.343C41.5229 104.548 43.333 104.773 44.5296 106.846Z" fill="#0265CD"/>
<path d="M44.2636 107.306C45.2905 109.085 45.4019 111.775 44.5127 113.315C43.6235 114.856 42.0702 114.662 41.0433 112.884C40.0164 111.106 39.9051 108.415 40.7943 106.875C41.6835 105.335 43.2368 105.528 44.2636 107.306Z" fill="#F6F7F9"/>
<path d="M142.647 104.204L142.424 104.039L142.425 104.039C143.555 104.922 143.448 106.671 142.207 107.405C142.207 107.405 142.206 107.406 142.205 107.406H142.205C142.2 107.409 142.195 107.413 142.189 107.417L110.046 125.986C108.158 127.078 106.995 129.093 106.994 131.274L106.986 146.059L109.204 145.84L144.114 125.685C144.592 125.408 144.888 124.898 144.888 124.345V108.948V108.709V108.653C144.888 106.899 144.057 105.248 142.647 104.204Z" fill="#0986E2"/>
<path d="M113.269 133.958L109.417 136.195C109.087 136.385 108.885 136.736 108.885 137.117V137.423C108.885 137.8 109.293 138.036 109.62 137.847L113.473 135.609C113.802 135.418 114.004 135.067 114.004 134.687V134.383C114.004 134.005 113.596 133.77 113.269 133.958Z" fill="#F6F7F9"/>
<path d="M143.535 116.471L139.682 118.707C139.353 118.898 139.15 119.249 139.15 119.629V119.935C139.15 120.312 139.558 120.548 139.885 120.36L143.738 118.121C144.067 117.931 144.27 117.58 144.27 117.2V116.895C144.27 116.518 143.861 116.282 143.535 116.471Z" fill="#F6F7F9"/>
<g opacity="0.2">
<path opacity="0.6" d="M71.7797 85.8181L80.4608 109.989L87.9268 114.301L84.8163 102.812L80.5281 90.8725L71.7797 85.8181Z" fill="white"/>
</g>
<g opacity="0.2">
<path opacity="0.6" d="M67.5581 83.3793L67.4295 83.3048L66.9727 83.041V102.197L76.2395 107.55L67.5581 83.3793Z" fill="white"/>
</g>
<path d="M117.293 125.752L134.469 115.865C136.179 114.881 138.314 116.115 138.314 118.088C138.314 120.126 137.226 122.01 135.46 123.028L118.282 132.938C116.572 133.925 114.435 132.691 114.435 130.717V130.695C114.435 128.655 115.525 126.77 117.293 125.752Z" fill="#0E1343"/>
<path d="M113.285 129.853C113.285 131.474 112.3 133.356 111.085 134.057C109.87 134.759 108.885 134.014 108.885 132.394C108.885 130.774 109.87 128.892 111.085 128.19C112.3 127.489 113.285 128.233 113.285 129.853Z" fill="#FFEAC9"/>
<path d="M143.354 112.519C143.354 114.14 142.368 116.022 141.153 116.723C139.938 117.425 138.953 116.68 138.953 115.06C138.953 113.44 139.938 111.558 141.153 110.856C142.368 110.155 143.354 110.899 143.354 112.519Z" fill="#FFEAC9"/>
<path d="M145.493 119.393V123.488C145.493 124.353 145.032 125.152 144.283 125.585L109.436 145.797C107.948 146.657 106.114 146.655 104.628 145.792L101.047 143.714V138.192L101.389 137.979L106.542 140.966C106.868 141.155 107.269 141.155 107.595 140.967L144.896 119.331V119.052L145.493 119.393Z" fill="#9BCEFD"/>
<g opacity="0.2">
<path opacity="0.6" d="M119.617 100.188L125.076 85.5565L121.062 71.6643L114.037 75.8117L101.53 110.635L119.617 100.188Z" fill="white"/>
</g>
<g opacity="0.2">
<path opacity="0.6" d="M93.9554 115.01L106.456 80.2063L90.7444 89.313L87.977 97.019L93.2603 115.412L93.9554 115.01Z" fill="white"/>
</g>
</svg>
