<svg width="170" height="170" viewBox="0 0 170 170" fill="none" xmlns="http://www.w3.org/2000/svg">
<g clip-path="url(#clip0)">
<path d="M53.2936 85.115C52.9466 85.115 52.6124 84.9235 52.4453 84.5914C52.2087 84.1217 52.3965 83.5485 52.8646 83.3112C52.9257 83.2803 58.9835 80.1843 61.002 77.1023C61.9179 75.7041 62.3908 73.8567 62.8918 71.9008C63.5299 69.4085 64.1898 66.8313 65.8393 64.5695C66.1491 64.1448 66.7435 64.0523 67.1666 64.3632C67.5899 64.6739 67.6822 65.2703 67.3723 65.6949C65.9385 67.6609 65.325 70.0574 64.7316 72.375C64.1903 74.489 63.6791 76.4858 62.5896 78.1491C60.2921 81.6567 53.9883 84.8771 53.7212 85.0125C53.5836 85.0819 53.4374 85.115 53.2936 85.115Z" fill="#0E1343"/>
<path d="M52.4656 72.8301L40.6882 70.7314L0.444275 94.0436V131.292L2.36368 132.405L42.6076 109.093L54.385 93.3498V73.9438L52.4656 72.8301ZM48.0377 87.2922C48.0377 86.1124 48.6245 84.7772 49.4287 83.9912C49.4275 83.9924 49.4263 83.9934 49.4251 83.9946C50.289 83.7603 50.9338 84.4198 50.9338 85.6562C50.9338 86.8342 50.3487 88.1674 49.5464 88.9538C48.6825 89.1882 48.0377 88.5287 48.0377 87.2922ZM49.8095 83.6734C49.7889 83.6878 49.7686 83.703 49.7481 83.7182C49.7686 83.703 49.7889 83.6878 49.8095 83.6734ZM49.6395 83.8032C49.6159 83.8227 49.5921 83.8416 49.5687 83.862C49.5921 83.8416 49.6159 83.8227 49.6395 83.8032ZM49.7638 88.8787C49.8362 88.8484 49.9096 88.8121 49.9843 88.7688C49.9096 88.812 49.8362 88.8477 49.7638 88.8787ZM49.5464 88.9539C49.614 88.9355 49.6831 88.9117 49.7531 88.8827C49.6829 88.9122 49.6141 88.9355 49.5464 88.9539Z" fill="#FFB78F"/>
<path d="M42.6076 71.8452L2.36368 95.1575V132.406L42.6076 109.093L54.385 93.35V73.944L42.6076 71.8452ZM49.9843 88.769C48.9092 89.3918 48.0376 88.7307 48.0376 87.2924C48.0376 85.8541 48.9092 84.1833 49.9843 83.5604C51.0594 82.9376 51.931 83.5987 51.931 85.037C51.931 86.4754 51.0594 88.1461 49.9843 88.769Z" fill="#FFEAC9"/>
<path d="M51.931 85.0368C51.931 84.4351 51.766 83.6588 51.147 83.4021C50.2816 83.0432 49.3877 84.0321 49.4255 83.9945C50.5042 83.7023 50.9328 84.8306 50.9328 85.7118C50.9328 86.799 50.3838 88.133 49.5463 88.9539C51.0563 88.5442 51.931 86.4631 51.931 85.0368Z" fill="#F87728"/>
<path d="M27.1572 110.914C25.3602 111.845 23.6289 112.31 21.9633 112.309V106.843C24.1011 107.06 27.8252 106.614 29.2256 104.697C31.2335 101.949 28.4554 102.007 26.2956 102.209C22.5649 102.524 21.5961 99.7706 22.0201 96.5356C22.4539 93.2257 24.515 90.6002 27.1572 88.7026V86.4469L29.7049 84.9709V87.1938C31.3376 86.3689 32.9829 85.9536 34.6402 85.9485L33.1757 91.4894C31.4072 91.4501 28.5705 91.923 27.424 93.4742C25.6765 95.8388 28.1558 95.9682 30.025 95.735C38.7588 94.8141 33.6165 106.433 29.7049 109.34V112.517L27.1572 113.993V110.914Z" fill="#0E1343"/>
<path d="M2.36368 132.406L0.444275 131.292V94.0439L2.36368 95.1577V132.406Z" fill="#F87728"/>
<path d="M42.6077 71.8452L40.6883 70.7314L52.4657 72.8302L54.3851 73.9439L42.6077 71.8452Z" fill="#F87728"/>
<path d="M51.368 83.8L54.1568 82.1909C54.8076 81.8154 55.6198 82.2867 55.6198 83.04C55.6198 83.8073 55.2112 84.5161 54.5484 84.8987L51.5841 86.6098C50.9696 86.961 50.2059 86.5157 50.2059 85.8061C50.2059 84.9765 50.6495 84.2107 51.368 83.8Z" fill="#FC8946"/>
</g>
<path d="M106.719 94.7448L97.3626 89.325V136.58L106.719 142L116.075 136.58V89.325L106.719 94.7448Z" fill="#FC8946"/>
<path d="M106.719 142L116.075 136.58V89.325L106.719 94.7448V142Z" fill="#FFB78F"/>
<path d="M134.464 29L131.019 30.9952V36.0519C131.019 39.6657 132.757 43.0572 135.686 45.1605L144.233 51.2987V72.8144L148.127 74.6599H151.534L151.563 38.9049L134.464 29Z" fill="#F87728"/>
<path d="M131.019 30.9954L134.464 29L151.563 38.9049L151.534 74.6602H148.127V40.8955L131.019 30.9954Z" fill="#FFB78F"/>
<path d="M151.563 38.9049L148.127 40.8955L131.019 30.9954L134.464 29L151.563 38.9049Z" fill="#FFEAC9"/>
<path d="M155.626 66.6233L94.0032 30.8261C91.3081 29.1406 87.7411 29.23 83.8287 31.4962L81.5604 32.8102C73.1599 37.6765 66.3503 50.7311 66.3503 61.9689V89.3581L128.336 125.368L161.025 106.432V79.0431C161.025 72.8078 158.928 68.4434 155.626 66.6233Z" fill="#0986E2"/>
<path d="M161.025 106.432L128.336 125.368V97.9786C128.336 86.7409 135.146 73.6863 143.546 68.8202L145.815 67.5062C154.215 62.6401 161.025 67.8052 161.025 79.043L161.025 106.432Z" fill="#9BCEFD"/>
<path d="M140.71 93.1663L161.025 81.4275V86.4595L140.71 98.2232V93.1663Z" fill="#0986E2"/>
<path d="M140.71 93.166L134.576 89.6272V94.6694L140.71 98.2229V93.166Z" fill="#0265CD"/>
<path d="M134.576 89.6273L136.161 88.7066L140.71 91.342L157.861 81.4273L153.307 78.7769L154.899 77.8577L161.025 81.4273L140.71 93.1661L134.576 89.6273Z" fill="#F6F7F9"/>
<path d="M153.307 78.7769V83.8175L153.518 83.9398L157.861 81.4273L153.307 78.7769Z" fill="#0265CD"/>
<defs>
<clipPath id="clip0">
<rect width="68" height="68.2264" fill="white" transform="translate(0 64.1792)"/>
</clipPath>
</defs>
</svg>
